<svg width="18" height="10" viewBox="0 0 18 10" fill="none" xmlns="http://www.w3.org/2000/svg">
<path d="M12.4922 8.49219C12.3828 8.60156 12.3125 8.71875 12.2812 8.84375C12.25 8.96875 12.25 9.09766 12.2812 9.23047C12.3125 9.36328 12.3828 9.47656 12.4922 9.57031C12.5547 9.63281 12.6328 9.68359 12.7266 9.72266C12.8203 9.76172 12.9141 9.78125 13.0078 9.78125C13.2109 9.78125 13.3906 9.71094 13.5469 9.57031L17.9766 5.02344L13.5469 0.476562C13.3906 0.320312 13.2109 0.242188 13.0078 0.242188C12.8047 0.242188 12.6328 0.320312 12.4922 0.476562C12.4297 0.523438 12.3828 0.574219 12.3516 0.628906C12.3203 0.683594 12.2969 0.742188 12.2812 0.804688C12.2656 0.867188 12.2578 0.929688 12.2578 0.992188C12.2578 1.05469 12.2656 1.11719 12.2812 1.17969C12.2969 1.24219 12.3203 1.30469 12.3516 1.36719C12.3828 1.42969 12.4297 1.48438 12.4922 1.53125L15.1875 4.25H0.75C0.546875 4.25 0.371094 4.32031 0.222656 4.46094C0.0742188 4.60156 0 4.77734 0 4.98828C0 5.19922 0.0742188 5.37891 0.222656 5.52734C0.371094 5.67578 0.546875 5.75 0.75 5.75H15.2344L12.4922 8.49219Z" fill="#0073C7"/>
</svg>
