<svg width="21" height="21" viewBox="0 0 21 21" fill="none" xmlns="http://www.w3.org/2000/svg">
<path opacity="0.2" d="M10.4255 0C4.66767 0 0 4.66767 0 10.4255C0 16.1834 4.66767 20.8511 10.4255 20.8511C16.1834 20.8511 20.8511 16.1834 20.8511 10.4255C20.8444 4.67045 16.1806 0.00670254 10.4255 0Z" fill="#0073C7"/>
<path d="M15.118 8.3033L9.99563 13.48C9.87383 13.6005 9.70539 13.6689 9.52816 13.6699C9.35093 13.6708 9.17978 13.6044 9.05317 13.4853L6.16311 10.7089C5.90811 10.4637 5.9086 10.0718 6.16421 9.83353C6.41982 9.59525 6.83375 9.60086 7.08876 9.84606L9.49855 12.1626L14.1585 7.45281C14.3135 7.28038 14.5571 7.20379 14.7926 7.25343C15.0282 7.30308 15.2175 7.47093 15.2855 7.69035C15.3535 7.90976 15.2892 8.14525 15.118 8.3033Z" fill="#0073C7"/>
</svg>
