<svg width="21" height="22" viewBox="0 0 21 22" fill="none" xmlns="http://www.w3.org/2000/svg">
<path d="M10.4468 0.680664C4.68897 0.680664 0.0213013 5.34833 0.0213013 11.1062C0.0213013 16.8641 4.68897 21.5317 10.4468 21.5317C16.2047 21.5317 20.8724 16.8641 20.8724 11.1062C20.8657 5.35111 16.2019 0.687367 10.4468 0.680664Z" fill="white"/>
<path d="M16.465 7.80469L10.5181 15.8749C10.3762 16.0631 10.1648 16.1864 9.93113 16.2171C9.69751 16.2478 9.46134 16.1834 9.27569 16.0383L5.02903 12.643C4.65429 12.3431 4.59361 11.7962 4.89349 11.4215C5.19338 11.0467 5.74028 10.9861 6.11502 11.286L9.65623 14.1191L15.0662 6.77691C15.2436 6.5107 15.553 6.36352 15.8714 6.39381C16.1899 6.42409 16.4659 6.62693 16.59 6.9218C16.714 7.21667 16.666 7.55586 16.465 7.80469Z" fill="#0073C7"/>
</svg>
