<svg width="29" height="29" viewBox="0 0 29 29" fill="none" xmlns="http://www.w3.org/2000/svg">
<rect width="29" height="29" rx="14.5" fill="#0073C7"/>
<path d="M17.75 9H10.25C9.00781 9 8 10.0078 8 11.25V18.75C8 19.9922 9.00781 21 10.25 21H14.4063V16.3516H12.8438V14.5391H14.4063V13.2031C14.4063 11.6562 15.3594 10.8125 16.7422 10.8125C17.3984 10.8125 17.9688 10.8594 18.1328 10.8828V12.5L17.1797 12.5078C16.4219 12.5078 16.2813 12.8594 16.2813 13.3828V14.5391H18.0703L17.8359 16.3516H16.2813V21H17.75C18.9922 21 20 19.9922 20 18.75V11.25C20 10.0078 18.9922 9 17.75 9Z" fill="white"/>
</svg>
