<svg width="53" height="63" viewBox="0 0 53 63" fill="none" xmlns="http://www.w3.org/2000/svg">
<g clip-path="url(#clip0_751_1200)">
<g filter="url(#filter0_d_751_1200)">
<path d="M2.18266 27.6558C2.18266 27.6558 2.26786 48.3269 26.402 61.5689V45.3297C26.402 45.3297 12.5403 40.7714 2.18266 27.6558Z" fill="white"/>
<path d="M42.3949 48.3819C42.3949 48.3819 33.7553 48.733 26.402 45.3286V61.5678C26.402 61.5678 32.5928 59.5198 42.3949 48.3808V48.3819Z" fill="white"/>
<path d="M51.3893 7.29928C51.3543 6.66966 50.7707 6.22026 50.1532 6.33612C49.8171 6.39932 49.4774 6.459 49.1413 6.51284C47.1033 6.84052 45.0409 7.01607 42.9773 6.99149C42.4661 6.98564 41.9548 6.96692 41.4436 6.93649C41.9688 7.33556 42.4906 7.73932 43.0053 8.15361C45.8544 10.4474 48.4281 12.9004 50.6551 15.4411C50.9621 15.7899 51.2632 16.141 51.5562 16.4932C51.6367 12.3574 51.4897 8.99389 51.3904 7.29694L51.3893 7.29928Z" fill="#0073C7"/>
<path d="M45.4401 14.2001C44.2472 13.0462 42.9575 11.9016 41.607 10.7992C40.2391 9.71078 38.8221 8.67505 37.3958 7.71774C37.2768 7.63786 37.1152 7.50685 36.9363 7.35178C35.9623 6.50758 34.8476 5.80654 33.6362 5.36604C32.5321 4.96228 31.4571 4.48128 30.4265 3.91954C29.6456 3.49237 28.8869 3.0184 28.1668 2.49176C27.903 2.29866 27.6415 2.09737 27.3906 1.88788C27.1431 1.68776 26.9109 1.43263 26.5735 1.41391C26.5245 1.41157 26.4778 1.4221 26.43 1.42912V40.1148C28.6115 41.1271 30.8221 41.9744 33.0363 42.638C36.5414 43.6831 39.8679 44.2121 42.9236 44.2121C43.1711 44.2121 43.4208 44.2085 43.6613 44.2015C44.3779 44.1781 45.0771 44.1196 45.7564 44.0295C49.6245 37.7941 51.0064 29.2186 51.4231 21.2488C50.6481 20.1113 49.7949 18.9831 48.8588 17.8725C47.7231 16.5266 46.6061 15.3247 45.4413 14.2001H45.4401Z" fill="white"/>
<path d="M25.7472 1.77678C25.3351 2.10915 24.9208 2.43449 24.4878 2.73994C23.7162 3.27594 22.9085 3.75694 22.0728 4.1841C20.992 4.73883 19.8703 5.20578 18.7195 5.59081C17.3142 6.06011 15.8692 6.40535 14.4079 6.63356C12.6594 6.90975 10.8888 7.02093 9.12163 6.98933C7.01485 6.95656 4.91623 6.7225 2.84446 6.33513C2.22818 6.21927 1.64691 6.66516 1.60606 7.29595C1.50218 8.99173 1.34811 12.3599 1.42281 16.4992C1.57572 16.8597 1.73796 17.2213 1.9107 17.5865C3.20395 20.3004 4.98509 22.9991 7.20276 25.6078C8.34195 26.9466 9.46245 28.1415 10.6285 29.2591C11.8249 30.4072 13.1181 31.5447 14.4662 32.6366C15.8458 33.7402 17.2558 34.7795 18.6553 35.7262C20.0384 36.6625 21.5126 37.5578 23.163 38.4648C24.2415 39.0581 25.3328 39.6058 26.43 40.1149V1.4292C26.1732 1.46665 25.9421 1.61762 25.7472 1.77795V1.77678Z" fill="white"/>
</g>
</g>
<defs>
<filter id="filter0_d_751_1200" x="-6.59692" y="-6.58643" width="66.1763" height="76.1553" filterUnits="userSpaceOnUse" color-interpolation-filters="sRGB">
<feFlood flood-opacity="0" result="BackgroundImageFix"/>
<feColorMatrix in="SourceAlpha" type="matrix" values="0 0 0 0 0 0 0 0 0 0 0 0 0 0 0 0 0 0 127 0" result="hardAlpha"/>
<feOffset/>
<feGaussianBlur stdDeviation="4"/>
<feColorMatrix type="matrix" values="0 0 0 0 0.34902 0 0 0 0 0.192157 0 0 0 0 1 0 0 0 0.3 0"/>
<feBlend mode="normal" in2="BackgroundImageFix" result="effect1_dropShadow_751_1200"/>
<feBlend mode="normal" in="SourceGraphic" in2="effect1_dropShadow_751_1200" result="shape"/>
</filter>
<clipPath id="clip0_751_1200">
<rect width="53" height="63" fill="white"/>
</clipPath>
</defs>
</svg>
