<svg width="130" height="31" viewBox="0 0 130 31" fill="none" xmlns="http://www.w3.org/2000/svg">
<path d="M0.78 24C0.641333 24 0.511333 23.948 0.39 23.844C0.286 23.7227 0.234 23.5927 0.234 23.454C0.234 23.3673 0.242667 23.2893 0.26 23.22L6.37 6.528C6.422 6.33733 6.526 6.17267 6.682 6.034C6.85533 5.878 7.08933 5.8 7.384 5.8H11.232C11.5267 5.8 11.752 5.878 11.908 6.034C12.0813 6.17267 12.194 6.33733 12.246 6.528L18.33 23.22C18.3647 23.2893 18.382 23.3673 18.382 23.454C18.382 23.5927 18.3213 23.7227 18.2 23.844C18.096 23.948 17.966 24 17.81 24H14.612C14.352 24 14.1527 23.9393 14.014 23.818C13.8927 23.6793 13.8147 23.558 13.78 23.454L12.766 20.802H5.824L4.836 23.454C4.80133 23.558 4.72333 23.6793 4.602 23.818C4.48067 23.9393 4.27267 24 3.978 24H0.78ZM6.89 17.058H11.726L9.282 10.194L6.89 17.058ZM22.5816 24C22.2869 24 22.0529 23.9133 21.8796 23.74C21.7063 23.5667 21.6023 23.3673 21.5676 23.142L18.7336 6.528C18.7163 6.49333 18.7076 6.45867 18.7076 6.424C18.7076 6.38933 18.7076 6.36333 18.7076 6.346C18.7076 6.20733 18.7596 6.086 18.8636 5.982C18.9849 5.86067 19.1149 5.8 19.2536 5.8H22.4776C22.9629 5.8 23.2316 5.99067 23.2836 6.372L24.9736 16.538L26.8456 10.532C26.8976 10.3933 26.9843 10.246 27.1056 10.09C27.2269 9.91667 27.4263 9.83 27.7036 9.83H29.5756C29.8703 9.83 30.0783 9.91667 30.1996 10.09C30.3209 10.246 30.3989 10.3933 30.4336 10.532L32.3056 16.512L33.9956 6.372C34.0476 5.99067 34.3163 5.8 34.8016 5.8H38.0256C38.1816 5.8 38.3116 5.86067 38.4156 5.982C38.5196 6.086 38.5716 6.20733 38.5716 6.346C38.5716 6.36333 38.5716 6.38933 38.5716 6.424C38.5716 6.45867 38.5716 6.49333 38.5716 6.528L35.7376 23.142C35.7029 23.3673 35.5989 23.5667 35.4256 23.74C35.2523 23.9133 35.0183 24 34.7236 24H32.2536C31.9589 24 31.7336 23.922 31.5776 23.766C31.4216 23.61 31.3176 23.4627 31.2656 23.324L28.6396 15.888L26.0136 23.324C25.9616 23.4627 25.8576 23.61 25.7016 23.766C25.5629 23.922 25.3463 24 25.0516 24H22.5816ZM41.9016 24C41.711 24 41.555 23.9393 41.4336 23.818C41.3123 23.6967 41.2516 23.5407 41.2516 23.35V6.45C41.2516 6.25933 41.3123 6.10333 41.4336 5.982C41.555 5.86067 41.711 5.8 41.9016 5.8H54.0436C54.2343 5.8 54.3903 5.86067 54.5116 5.982C54.633 6.10333 54.6936 6.25933 54.6936 6.45V8.894C54.6936 9.08467 54.633 9.24067 54.5116 9.362C54.3903 9.48333 54.2343 9.544 54.0436 9.544H45.7496V13.054H53.4716C53.6623 13.054 53.8183 13.1233 53.9396 13.262C54.061 13.3833 54.1216 13.5393 54.1216 13.73V15.992C54.1216 16.1653 54.061 16.3213 53.9396 16.46C53.8183 16.5813 53.6623 16.642 53.4716 16.642H45.7496V20.256H54.2516C54.4423 20.256 54.5983 20.3167 54.7196 20.438C54.841 20.5593 54.9016 20.7153 54.9016 20.906V23.35C54.9016 23.5407 54.841 23.6967 54.7196 23.818C54.5983 23.9393 54.4423 24 54.2516 24H41.9016ZM64.6431 24.26C62.9098 24.26 61.4711 24.0173 60.3271 23.532C59.1831 23.0293 58.3164 22.3793 57.7271 21.582C57.1378 20.7847 56.8258 19.9353 56.7911 19.034C56.7911 18.8953 56.8431 18.774 56.9471 18.67C57.0684 18.5487 57.2071 18.488 57.3631 18.488H60.6391C60.8818 18.488 61.0638 18.5313 61.1851 18.618C61.3238 18.7047 61.4451 18.8173 61.5491 18.956C61.6878 19.216 61.8784 19.4673 62.1211 19.71C62.3811 19.9527 62.7104 20.152 63.1091 20.308C63.5251 20.4467 64.0364 20.516 64.6431 20.516C65.6484 20.516 66.4024 20.36 66.9051 20.048C67.4251 19.736 67.6851 19.3113 67.6851 18.774C67.6851 18.3927 67.5464 18.0807 67.2691 17.838C66.9918 17.578 66.5411 17.3527 65.9171 17.162C65.3104 16.954 64.4958 16.746 63.4731 16.538C62.1558 16.2607 61.0291 15.9053 60.0931 15.472C59.1744 15.0213 58.4724 14.4407 57.9871 13.73C57.5018 13.002 57.2591 12.1007 57.2591 11.026C57.2591 9.96867 57.5538 9.024 58.1431 8.192C58.7498 7.36 59.5904 6.71 60.6651 6.242C61.7398 5.774 63.0138 5.54 64.4871 5.54C65.6831 5.54 66.7318 5.696 67.6331 6.008C68.5518 6.32 69.3231 6.736 69.9471 7.256C70.5711 7.776 71.0391 8.33067 71.3511 8.92C71.6804 9.492 71.8538 10.0553 71.8711 10.61C71.8711 10.7487 71.8191 10.8787 71.7151 11C71.6111 11.104 71.4811 11.156 71.3251 11.156H67.8931C67.7024 11.156 67.5378 11.1213 67.3991 11.052C67.2604 10.9827 67.1391 10.87 67.0351 10.714C66.9311 10.3327 66.6538 10.0033 66.2031 9.726C65.7698 9.43133 65.1978 9.284 64.4871 9.284C63.7244 9.284 63.1264 9.42267 62.6931 9.7C62.2771 9.96 62.0691 10.3673 62.0691 10.922C62.0691 11.2687 62.1818 11.572 62.4071 11.832C62.6498 12.092 63.0398 12.3173 63.5771 12.508C64.1318 12.6987 64.8858 12.898 65.8391 13.106C67.4164 13.4007 68.6904 13.7733 69.6611 14.224C70.6318 14.6573 71.3424 15.2293 71.7931 15.94C72.2438 16.6333 72.4691 17.5087 72.4691 18.566C72.4691 19.7447 72.1311 20.7673 71.4551 21.634C70.7964 22.4833 69.8778 23.1333 68.6991 23.584C67.5204 24.0347 66.1684 24.26 64.6431 24.26ZM82.508 24.26C80.9133 24.26 79.5266 24 78.348 23.48C77.1693 22.96 76.2506 22.18 75.592 21.14C74.9333 20.0827 74.5693 18.7653 74.5 17.188C74.4826 16.4427 74.474 15.6973 74.474 14.952C74.474 14.2067 74.4826 13.4527 74.5 12.69C74.5693 11.13 74.9333 9.82133 75.592 8.764C76.268 7.68933 77.1953 6.88333 78.374 6.346C79.5526 5.80867 80.9306 5.54 82.508 5.54C84.068 5.54 85.4373 5.80867 86.616 6.346C87.812 6.88333 88.748 7.68933 89.424 8.764C90.1 9.82133 90.464 11.13 90.516 12.69C90.5506 13.4527 90.568 14.2067 90.568 14.952C90.568 15.6973 90.5506 16.4427 90.516 17.188C90.4466 18.7653 90.0826 20.0827 89.424 21.14C88.7653 22.18 87.8466 22.96 86.668 23.48C85.4893 24 84.1026 24.26 82.508 24.26ZM82.508 20.516C83.4266 20.516 84.172 20.2387 84.744 19.684C85.3333 19.1293 85.6453 18.2453 85.68 17.032C85.7146 16.2693 85.732 15.55 85.732 14.874C85.732 14.198 85.7146 13.496 85.68 12.768C85.6453 11.9533 85.4893 11.2947 85.212 10.792C84.952 10.272 84.588 9.89067 84.12 9.648C83.652 9.40533 83.1146 9.284 82.508 9.284C81.9186 9.284 81.39 9.40533 80.922 9.648C80.454 9.89067 80.0813 10.272 79.804 10.792C79.5266 11.2947 79.3706 11.9533 79.336 12.768C79.3186 13.496 79.31 14.198 79.31 14.874C79.31 15.55 79.3186 16.2693 79.336 17.032C79.388 18.2453 79.7 19.1293 80.272 19.684C80.844 20.2387 81.5893 20.516 82.508 20.516ZM94.2317 24C94.0584 24 93.9024 23.9393 93.7637 23.818C93.6424 23.6967 93.5817 23.5407 93.5817 23.35V6.45C93.5817 6.25933 93.6424 6.10333 93.7637 5.982C93.9024 5.86067 94.0584 5.8 94.2317 5.8H97.0397C97.3171 5.8 97.5251 5.878 97.6637 6.034C97.8197 6.17267 97.9151 6.28533 97.9497 6.372L102.526 14.588L107.102 6.372C107.154 6.28533 107.24 6.17267 107.362 6.034C107.5 5.878 107.717 5.8 108.012 5.8H110.794C110.984 5.8 111.14 5.86067 111.262 5.982C111.4 6.10333 111.47 6.25933 111.47 6.45V23.35C111.47 23.5407 111.4 23.6967 111.262 23.818C111.14 23.9393 110.984 24 110.794 24H107.7C107.509 24 107.344 23.9393 107.206 23.818C107.084 23.6967 107.024 23.5407 107.024 23.35V13.6L104.086 19.034C104.016 19.19 103.912 19.3287 103.774 19.45C103.635 19.5713 103.444 19.632 103.202 19.632H101.85C101.607 19.632 101.416 19.5713 101.278 19.45C101.139 19.3287 101.026 19.19 100.94 19.034L98.0017 13.6V23.35C98.0017 23.5407 97.9411 23.6967 97.8197 23.818C97.6984 23.9393 97.5424 24 97.3517 24H94.2317ZM115.738 24C115.547 24 115.391 23.9393 115.27 23.818C115.148 23.6967 115.088 23.5407 115.088 23.35V6.45C115.088 6.25933 115.148 6.10333 115.27 5.982C115.391 5.86067 115.547 5.8 115.738 5.8H127.88C128.07 5.8 128.226 5.86067 128.348 5.982C128.469 6.10333 128.53 6.25933 128.53 6.45V8.894C128.53 9.08467 128.469 9.24067 128.348 9.362C128.226 9.48333 128.07 9.544 127.88 9.544H119.586V13.054H127.308C127.498 13.054 127.654 13.1233 127.776 13.262C127.897 13.3833 127.958 13.5393 127.958 13.73V15.992C127.958 16.1653 127.897 16.3213 127.776 16.46C127.654 16.5813 127.498 16.642 127.308 16.642H119.586V20.256H128.088C128.278 20.256 128.434 20.3167 128.556 20.438C128.677 20.5593 128.738 20.7153 128.738 20.906V23.35C128.738 23.5407 128.677 23.6967 128.556 23.818C128.434 23.9393 128.278 24 128.088 24H115.738Z" fill="white"/>
</svg>
