<svg width="129" height="20" viewBox="0 0 129 20" fill="none" xmlns="http://www.w3.org/2000/svg">
<path d="M0.78 19C0.641333 19 0.511333 18.948 0.39 18.844C0.286 18.7227 0.234 18.5927 0.234 18.454C0.234 18.3673 0.242667 18.2893 0.26 18.22L6.37 1.528C6.422 1.33733 6.526 1.17267 6.682 1.034C6.85533 0.877999 7.08933 0.799999 7.384 0.799999H11.232C11.5267 0.799999 11.752 0.877999 11.908 1.034C12.0813 1.17267 12.194 1.33733 12.246 1.528L18.33 18.22C18.3647 18.2893 18.382 18.3673 18.382 18.454C18.382 18.5927 18.3213 18.7227 18.2 18.844C18.096 18.948 17.966 19 17.81 19H14.612C14.352 19 14.1527 18.9393 14.014 18.818C13.8927 18.6793 13.8147 18.558 13.78 18.454L12.766 15.802H5.824L4.836 18.454C4.80133 18.558 4.72333 18.6793 4.602 18.818C4.48067 18.9393 4.27267 19 3.978 19H0.78ZM6.89 12.058H11.726L9.282 5.194L6.89 12.058ZM22.5816 19C22.2869 19 22.0529 18.9133 21.8796 18.74C21.7063 18.5667 21.6023 18.3673 21.5676 18.142L18.7336 1.528C18.7163 1.49333 18.7076 1.45867 18.7076 1.424C18.7076 1.38933 18.7076 1.36333 18.7076 1.346C18.7076 1.20733 18.7596 1.086 18.8636 0.982C18.9849 0.860666 19.1149 0.799999 19.2536 0.799999H22.4776C22.9629 0.799999 23.2316 0.990666 23.2836 1.372L24.9736 11.538L26.8456 5.532C26.8976 5.39333 26.9843 5.246 27.1056 5.09C27.2269 4.91667 27.4263 4.83 27.7036 4.83H29.5756C29.8703 4.83 30.0783 4.91667 30.1996 5.09C30.3209 5.246 30.3989 5.39333 30.4336 5.532L32.3056 11.512L33.9956 1.372C34.0476 0.990666 34.3163 0.799999 34.8016 0.799999H38.0256C38.1816 0.799999 38.3116 0.860666 38.4156 0.982C38.5196 1.086 38.5716 1.20733 38.5716 1.346C38.5716 1.36333 38.5716 1.38933 38.5716 1.424C38.5716 1.45867 38.5716 1.49333 38.5716 1.528L35.7376 18.142C35.7029 18.3673 35.5989 18.5667 35.4256 18.74C35.2523 18.9133 35.0183 19 34.7236 19H32.2536C31.9589 19 31.7336 18.922 31.5776 18.766C31.4216 18.61 31.3176 18.4627 31.2656 18.324L28.6396 10.888L26.0136 18.324C25.9616 18.4627 25.8576 18.61 25.7016 18.766C25.5629 18.922 25.3463 19 25.0516 19H22.5816ZM41.9016 19C41.711 19 41.555 18.9393 41.4336 18.818C41.3123 18.6967 41.2516 18.5407 41.2516 18.35V1.45C41.2516 1.25933 41.3123 1.10333 41.4336 0.982C41.555 0.860666 41.711 0.799999 41.9016 0.799999H54.0436C54.2343 0.799999 54.3903 0.860666 54.5116 0.982C54.633 1.10333 54.6936 1.25933 54.6936 1.45V3.894C54.6936 4.08467 54.633 4.24067 54.5116 4.362C54.3903 4.48333 54.2343 4.544 54.0436 4.544H45.7496V8.054H53.4716C53.6623 8.054 53.8183 8.12333 53.9396 8.262C54.061 8.38333 54.1216 8.53933 54.1216 8.73V10.992C54.1216 11.1653 54.061 11.3213 53.9396 11.46C53.8183 11.5813 53.6623 11.642 53.4716 11.642H45.7496V15.256H54.2516C54.4423 15.256 54.5983 15.3167 54.7196 15.438C54.841 15.5593 54.9016 15.7153 54.9016 15.906V18.35C54.9016 18.5407 54.841 18.6967 54.7196 18.818C54.5983 18.9393 54.4423 19 54.2516 19H41.9016ZM64.6431 19.26C62.9098 19.26 61.4711 19.0173 60.3271 18.532C59.1831 18.0293 58.3164 17.3793 57.7271 16.582C57.1378 15.7847 56.8258 14.9353 56.7911 14.034C56.7911 13.8953 56.8431 13.774 56.9471 13.67C57.0684 13.5487 57.2071 13.488 57.3631 13.488H60.6391C60.8818 13.488 61.0638 13.5313 61.1851 13.618C61.3238 13.7047 61.4451 13.8173 61.5491 13.956C61.6878 14.216 61.8784 14.4673 62.1211 14.71C62.3811 14.9527 62.7104 15.152 63.1091 15.308C63.5251 15.4467 64.0364 15.516 64.6431 15.516C65.6484 15.516 66.4024 15.36 66.9051 15.048C67.4251 14.736 67.6851 14.3113 67.6851 13.774C67.6851 13.3927 67.5464 13.0807 67.2691 12.838C66.9918 12.578 66.5411 12.3527 65.9171 12.162C65.3104 11.954 64.4958 11.746 63.4731 11.538C62.1558 11.2607 61.0291 10.9053 60.0931 10.472C59.1744 10.0213 58.4724 9.44067 57.9871 8.73C57.5018 8.002 57.2591 7.10067 57.2591 6.026C57.2591 4.96867 57.5538 4.024 58.1431 3.192C58.7498 2.36 59.5904 1.71 60.6651 1.242C61.7398 0.773999 63.0138 0.539999 64.4871 0.539999C65.6831 0.539999 66.7318 0.695999 67.6331 1.008C68.5518 1.32 69.3231 1.736 69.9471 2.256C70.5711 2.776 71.0391 3.33067 71.3511 3.92C71.6804 4.492 71.8538 5.05533 71.8711 5.61C71.8711 5.74867 71.8191 5.87867 71.7151 6C71.6111 6.104 71.4811 6.156 71.3251 6.156H67.8931C67.7024 6.156 67.5378 6.12133 67.3991 6.052C67.2604 5.98267 67.1391 5.87 67.0351 5.714C66.9311 5.33267 66.6538 5.00333 66.2031 4.726C65.7698 4.43133 65.1978 4.284 64.4871 4.284C63.7244 4.284 63.1264 4.42267 62.6931 4.7C62.2771 4.96 62.0691 5.36733 62.0691 5.922C62.0691 6.26867 62.1818 6.572 62.4071 6.832C62.6498 7.092 63.0398 7.31733 63.5771 7.508C64.1318 7.69867 64.8858 7.898 65.8391 8.106C67.4164 8.40067 68.6904 8.77333 69.6611 9.224C70.6318 9.65733 71.3424 10.2293 71.7931 10.94C72.2438 11.6333 72.4691 12.5087 72.4691 13.566C72.4691 14.7447 72.1311 15.7673 71.4551 16.634C70.7964 17.4833 69.8778 18.1333 68.6991 18.584C67.5204 19.0347 66.1684 19.26 64.6431 19.26ZM82.508 19.26C80.9133 19.26 79.5266 19 78.348 18.48C77.1693 17.96 76.2506 17.18 75.592 16.14C74.9333 15.0827 74.5693 13.7653 74.5 12.188C74.4826 11.4427 74.474 10.6973 74.474 9.952C74.474 9.20667 74.4826 8.45267 74.5 7.69C74.5693 6.13 74.9333 4.82133 75.592 3.764C76.268 2.68933 77.1953 1.88333 78.374 1.346C79.5526 0.808666 80.9306 0.539999 82.508 0.539999C84.068 0.539999 85.4373 0.808666 86.616 1.346C87.812 1.88333 88.748 2.68933 89.424 3.764C90.1 4.82133 90.464 6.13 90.516 7.69C90.5506 8.45267 90.568 9.20667 90.568 9.952C90.568 10.6973 90.5506 11.4427 90.516 12.188C90.4466 13.7653 90.0826 15.0827 89.424 16.14C88.7653 17.18 87.8466 17.96 86.668 18.48C85.4893 19 84.1026 19.26 82.508 19.26ZM82.508 15.516C83.4266 15.516 84.172 15.2387 84.744 14.684C85.3333 14.1293 85.6453 13.2453 85.68 12.032C85.7146 11.2693 85.732 10.55 85.732 9.874C85.732 9.198 85.7146 8.496 85.68 7.768C85.6453 6.95333 85.4893 6.29467 85.212 5.792C84.952 5.272 84.588 4.89067 84.12 4.648C83.652 4.40533 83.1146 4.284 82.508 4.284C81.9186 4.284 81.39 4.40533 80.922 4.648C80.454 4.89067 80.0813 5.272 79.804 5.792C79.5266 6.29467 79.3706 6.95333 79.336 7.768C79.3186 8.496 79.31 9.198 79.31 9.874C79.31 10.55 79.3186 11.2693 79.336 12.032C79.388 13.2453 79.7 14.1293 80.272 14.684C80.844 15.2387 81.5893 15.516 82.508 15.516ZM94.2317 19C94.0584 19 93.9024 18.9393 93.7637 18.818C93.6424 18.6967 93.5817 18.5407 93.5817 18.35V1.45C93.5817 1.25933 93.6424 1.10333 93.7637 0.982C93.9024 0.860666 94.0584 0.799999 94.2317 0.799999H97.0397C97.3171 0.799999 97.5251 0.877999 97.6637 1.034C97.8197 1.17267 97.9151 1.28533 97.9497 1.372L102.526 9.588L107.102 1.372C107.154 1.28533 107.24 1.17267 107.362 1.034C107.5 0.877999 107.717 0.799999 108.012 0.799999H110.794C110.984 0.799999 111.14 0.860666 111.262 0.982C111.4 1.10333 111.47 1.25933 111.47 1.45V18.35C111.47 18.5407 111.4 18.6967 111.262 18.818C111.14 18.9393 110.984 19 110.794 19H107.7C107.509 19 107.344 18.9393 107.206 18.818C107.084 18.6967 107.024 18.5407 107.024 18.35V8.6L104.086 14.034C104.016 14.19 103.912 14.3287 103.774 14.45C103.635 14.5713 103.444 14.632 103.202 14.632H101.85C101.607 14.632 101.416 14.5713 101.278 14.45C101.139 14.3287 101.026 14.19 100.94 14.034L98.0017 8.6V18.35C98.0017 18.5407 97.9411 18.6967 97.8197 18.818C97.6984 18.9393 97.5424 19 97.3517 19H94.2317ZM115.738 19C115.547 19 115.391 18.9393 115.27 18.818C115.148 18.6967 115.088 18.5407 115.088 18.35V1.45C115.088 1.25933 115.148 1.10333 115.27 0.982C115.391 0.860666 115.547 0.799999 115.738 0.799999H127.88C128.07 0.799999 128.226 0.860666 128.348 0.982C128.469 1.10333 128.53 1.25933 128.53 1.45V3.894C128.53 4.08467 128.469 4.24067 128.348 4.362C128.226 4.48333 128.07 4.544 127.88 4.544H119.586V8.054H127.308C127.498 8.054 127.654 8.12333 127.776 8.262C127.897 8.38333 127.958 8.53933 127.958 8.73V10.992C127.958 11.1653 127.897 11.3213 127.776 11.46C127.654 11.5813 127.498 11.642 127.308 11.642H119.586V15.256H128.088C128.278 15.256 128.434 15.3167 128.556 15.438C128.677 15.5593 128.738 15.7153 128.738 15.906V18.35C128.738 18.5407 128.677 18.6967 128.556 18.818C128.434 18.9393 128.278 19 128.088 19H115.738Z" fill="white"/>
</svg>
