<svg width="70" height="70" viewBox="0 0 70 70" fill="none" xmlns="http://www.w3.org/2000/svg">
<path fill-rule="evenodd" clip-rule="evenodd" d="M2.66609 0.241582C2.18866 0.398672 1.75402 0.695078 1.22504 1.22445C0.668301 1.78158 0.405793 2.1767 0.233796 2.71592C0.0159966 3.39924 0 5.60738 0 35C0 64.3926 0.0159966 66.6008 0.233796 67.2841C0.405793 67.8236 0.668027 68.2179 1.22504 68.775C1.78218 69.332 2.17649 69.5942 2.716 69.7662C3.39154 69.9815 4.77463 70 20.2455 70C36.7292 70 37.0553 69.9949 37.7754 69.7255C38.179 69.5745 38.762 69.2345 39.071 68.97C39.3801 68.7054 39.8059 68.1369 40.0172 67.7064L40.4016 66.9238L40.4429 60.1904C40.4656 56.4871 40.5059 53.457 40.5326 53.457C40.5591 53.457 41.4634 53.8839 42.542 54.4054C43.6207 54.927 44.7495 55.5648 45.0504 55.8225C45.3513 56.0804 45.8426 56.7149 46.142 57.2325C46.4416 57.7503 47.0377 58.5289 47.4669 58.963C47.9994 59.5014 48.5764 59.9082 49.2838 60.2442C49.9317 60.5519 50.6972 60.7908 51.326 60.8814C52.1387 60.9984 52.5435 60.9845 53.4362 60.8087C54.38 60.6227 55.0532 60.3222 58.0671 58.7416C60.0066 57.7244 61.6774 56.7662 61.7798 56.6122C61.8897 56.4469 61.9303 56.1899 61.8789 55.9848C61.8309 55.7938 61.6703 55.5162 61.5218 55.3677C61.3733 55.2192 61.1115 55.0977 60.9399 55.0977C60.7685 55.0977 59.0954 55.8942 57.2219 56.8678C55.3485 57.8413 53.5136 58.7103 53.1441 58.7989C52.7558 58.892 52.147 58.923 51.7009 58.8726C51.2765 58.8245 50.5472 58.5987 50.0804 58.3711C49.5873 58.1306 49.0237 57.7162 48.7352 57.382C48.4622 57.0656 48.0825 56.5008 47.8915 56.1269C47.7005 55.7531 47.1579 55.0609 46.6858 54.5888C45.8475 53.7506 45.6301 53.6329 37.4404 49.5839C30.6016 46.2027 28.9728 45.3454 28.6159 44.9385C28.3753 44.664 28.1354 44.2098 28.0826 43.9291C28.0278 43.6369 28.0576 43.1546 28.1522 42.8008C28.2431 42.4609 28.4713 41.981 28.6593 41.7346C28.8473 41.4881 29.2412 41.1641 29.5346 41.0144C29.828 40.8647 30.2882 40.7422 30.5573 40.7422C30.8985 40.7422 31.6342 41.0471 32.9896 41.7505C34.0583 42.305 35.5295 43.072 36.2587 43.4548C37.4566 44.0835 37.6255 44.1366 38.0048 44.0043C38.2359 43.9239 38.4851 43.7455 38.5587 43.6079C38.6322 43.4704 38.6925 43.2168 38.6925 43.0445C38.6925 42.8723 36.403 38.3616 33.6048 33.0209C28.7116 23.682 28.5169 23.2818 28.5159 22.5586C28.515 22.0157 28.6058 21.6456 28.8425 21.2275C29.0227 20.9089 29.4066 20.4844 29.6954 20.2843C30.0251 20.0558 30.4693 19.8964 30.8887 19.8561C31.4066 19.8063 31.6748 19.8591 32.0825 20.0908C32.3717 20.2552 32.7145 20.5332 32.8441 20.7089C32.9737 20.8845 35.0564 24.8024 37.4724 29.4154C39.8884 34.0285 41.9927 37.9411 42.1485 38.1104C42.3042 38.2796 42.5411 38.418 42.6749 38.418C42.8087 38.418 43.0707 38.3485 43.257 38.2635C43.4435 38.1786 43.6677 37.9359 43.7554 37.7243C43.9007 37.3737 43.8392 37.19 43.0638 35.6571C42.5958 34.7318 42.1647 33.9131 42.1057 33.8379C42.0466 33.7627 41.9571 33.4802 41.9066 33.2102C41.8562 32.9402 41.8817 32.471 41.9635 32.1673C42.061 31.8054 42.3195 31.4243 42.7144 31.0603C43.0822 30.7213 43.5109 30.4689 43.8161 30.4116C44.0908 30.36 44.56 30.3507 44.8589 30.3908C45.1579 30.4309 45.5488 30.5595 45.7276 30.6768C45.9099 30.7962 46.4874 31.7182 47.0412 32.7741C47.5848 33.8103 48.1224 34.7658 48.2359 34.8975C48.3532 35.0335 48.6331 35.1367 48.8844 35.1367C49.1276 35.1367 49.4667 35.0232 49.638 34.8846C49.8371 34.7234 49.947 34.4891 49.9429 34.2352C49.9393 34.0134 49.4761 32.9686 48.8948 31.8709C48.3218 30.7891 47.853 29.7473 47.853 29.5557C47.853 29.3642 47.9782 28.9488 48.1312 28.6326C48.2875 28.3101 48.6521 27.8897 48.9626 27.6746C49.3709 27.3916 49.7188 27.2783 50.2909 27.2416C50.849 27.2059 51.1982 27.261 51.538 27.4388C51.9292 27.6432 52.1801 28.0107 52.9995 29.5796C53.5436 30.6213 54.0943 31.5904 54.2234 31.733C54.3647 31.889 54.64 31.9922 54.9154 31.9922C55.1905 31.9922 55.4817 31.8832 55.6462 31.7188C55.7965 31.5684 55.9196 31.2829 55.9196 31.0844C55.9196 30.8859 55.4582 29.8465 54.8942 28.7749C54.248 27.5469 53.8688 26.6673 53.8688 26.396C53.8688 26.1594 53.993 25.7221 54.1449 25.4244C54.2968 25.1267 54.6697 24.7186 54.9735 24.5175C55.3387 24.2759 55.7699 24.1318 56.2458 24.0923C56.7845 24.0476 57.1006 24.1015 57.5022 24.3064C57.7973 24.4571 58.1442 24.6969 58.273 24.8392C58.4018 24.9817 59.4334 26.8633 60.5654 29.0206C61.6976 31.1779 62.9845 33.7596 63.4254 34.7576C63.8662 35.7556 64.5098 37.3879 64.8554 38.3849C65.201 39.3818 65.7645 41.2181 66.1074 42.4654C66.4503 43.7128 66.9812 45.3193 67.2871 46.0353C67.6269 46.8304 67.8708 47.6406 67.914 48.1168C67.9597 48.6207 67.9083 49.1591 67.7684 49.6387C67.6495 50.0469 67.366 50.6737 67.1385 51.0315C66.9111 51.3894 66.436 51.8816 66.0826 52.1253C65.7293 52.369 65.3284 52.6761 65.1917 52.8076C65.0551 52.9393 64.9433 53.1973 64.9433 53.381C64.9433 53.5649 65.0852 53.8802 65.2586 54.0817C65.4537 54.3085 65.7126 54.4482 65.9378 54.4482C66.138 54.4482 66.6115 54.2495 66.99 54.0065C67.3686 53.7636 67.9552 53.257 68.2936 52.8808C68.6318 52.5045 69.0865 51.8189 69.3042 51.3572C69.5219 50.8953 69.7678 50.1915 69.851 49.7931C69.9341 49.3946 70.0011 48.7793 70 48.4259C69.9989 48.0724 69.9103 47.4141 69.8032 46.9629C69.6962 46.5117 69.3955 45.6812 69.1352 45.1172C68.875 44.5532 68.4668 43.3535 68.2282 42.4512C67.9896 41.5488 67.6084 40.1953 67.3813 39.4434C67.1541 38.6914 66.5673 37.0616 66.0771 35.8215C65.587 34.5814 64.8484 32.8895 64.4358 32.0618C64.0233 31.2339 62.8828 29.0313 61.9014 27.1671C60.3895 24.2953 60.0132 23.6843 59.4382 23.1673C58.939 22.7184 58.5061 22.48 57.803 22.2664C57.0666 22.0428 56.6575 21.9957 56.025 22.0618C55.5733 22.1089 54.842 22.3099 54.3998 22.5083C53.926 22.7209 53.367 23.1175 53.0384 23.4739C52.7318 23.8066 52.367 24.3332 52.2278 24.6441L51.9746 25.2094L50.5632 25.2171C49.3502 25.2235 49.0557 25.2718 48.4682 25.5605C48.0922 25.7454 47.5058 26.176 47.1651 26.5176C46.8243 26.8592 46.4174 27.4121 46.2608 27.7464L45.9762 28.3541L44.5562 28.3616C43.2853 28.3683 43.0539 28.4095 42.3548 28.7528C41.9154 28.9685 41.3336 29.4089 41.0254 29.7589L40.4776 30.3814L40.4396 16.7288L40.4016 3.07617L40.0172 2.29359C39.8059 1.86307 39.3801 1.29459 39.071 1.03004C38.762 0.765488 38.179 0.425469 37.7754 0.274531C37.0603 0.00697263 36.7233 0 24.6201 0C12.6875 0 12.1862 0.0101172 11.8827 0.255801C11.654 0.440918 11.5667 0.653516 11.5667 1.02539C11.5667 1.39727 11.654 1.60986 11.8827 1.79498C12.1861 2.04066 12.6847 2.05078 24.5021 2.05078C35.5176 2.05078 36.8539 2.07375 37.2683 2.27035C37.5229 2.39121 37.8706 2.71428 38.0409 2.98813C38.3118 3.42371 38.3567 3.70535 38.3986 5.22949L38.4466 6.97266H20.2486H2.05084L2.05111 5.29785C2.05125 3.97359 2.10129 3.52488 2.29038 3.15424C2.42177 2.89639 2.70287 2.55801 2.91493 2.40229C3.25045 2.15592 3.55821 2.11025 5.28597 2.05078C7.16701 1.98598 7.285 1.96547 7.53219 1.65963C7.67575 1.48217 7.7932 1.18713 7.7932 1.00406C7.7932 0.820996 7.64212 0.520215 7.45754 0.335645C7.13282 0.0108008 7.06146 0.000273438 5.2358 0.00847656C3.87322 0.0144922 3.15994 0.0792969 2.66609 0.241582ZM38.3859 17.8359C38.4075 23.1906 38.3722 26.5295 38.2948 26.4492C38.2252 26.3773 37.6403 25.3154 36.9949 24.0896L35.8214 21.8606V18.4431C35.8214 15.767 35.7795 14.9454 35.6284 14.6562C35.5223 14.4532 35.2563 14.1168 35.0371 13.9084C34.818 13.7002 34.4283 13.4694 34.1712 13.3957C33.8798 13.3122 28.5874 13.2628 20.0992 13.2647C7.0296 13.2676 6.47177 13.278 5.92228 13.5274C5.56243 13.6909 5.2075 14.0029 4.96522 14.3689L4.58021 14.9507V19.3357C4.58021 23.6738 4.58363 23.7262 4.89467 24.2266C5.06776 24.5046 5.43692 24.8738 5.71501 25.0469L6.22088 25.3613L16.771 25.3988L27.321 25.4362L30.7004 31.8929C32.559 35.4441 34.3591 38.8675 34.7006 39.5005L35.3216 40.6513L33.9649 39.9306C33.2188 39.5341 32.3065 39.1047 31.9376 38.9761L31.2667 38.7424L31.0325 37.5855C30.9037 36.9491 30.6428 36.0437 30.4529 35.5735C30.263 35.1034 29.9014 34.3667 29.6493 33.9365C29.3972 33.5063 28.6064 32.5698 27.8917 31.8555C26.9005 30.8644 26.3333 30.4217 25.4988 29.9873C24.8972 29.6743 24.0074 29.2887 23.5214 29.1307C23.0353 28.9726 22.0705 28.7764 21.3773 28.6947C20.4478 28.585 19.8003 28.5876 18.9112 28.7044C18.2481 28.7913 17.1973 29.0367 16.5761 29.2495C15.9549 29.4623 15.1034 29.8435 14.6837 30.0966C14.2641 30.3496 13.5278 30.88 13.0472 31.2752C12.5667 31.6705 11.8354 32.4431 11.4222 32.992C11.0091 33.5411 10.4596 34.4481 10.2013 35.0078C9.94302 35.5675 9.62173 36.4253 9.4876 36.9141C9.3115 37.5553 9.24164 38.3168 9.23685 39.6484C9.23152 41.1707 9.28443 41.681 9.5386 42.5604C9.70813 43.1469 10.038 44.0083 10.2717 44.4745C10.5054 44.9408 10.9587 45.6914 11.2792 46.1426C11.5997 46.5938 12.1922 47.2734 12.5961 47.653C13 48.0326 13.6073 48.5319 13.9457 48.7628C14.2841 48.9936 14.9424 49.3745 15.4088 49.6094C15.875 49.8441 16.7364 50.175 17.3229 50.3445C18.2023 50.5987 18.7127 50.6516 20.235 50.6462C21.5528 50.6414 22.3349 50.5708 22.9694 50.3986C23.4582 50.2662 24.3503 49.9209 24.9519 49.6316C25.5535 49.3422 26.4456 48.802 26.9344 48.4312C27.4232 48.0606 27.9026 47.6613 27.9999 47.5441C28.156 47.3558 28.4981 47.4935 30.9394 48.7268C32.4589 49.4946 34.7652 50.6239 36.0643 51.2366L38.4265 52.3504L38.3886 54.3735L38.3507 56.3965L20.2008 56.4312L2.05084 56.4658V32.7441V9.02248L20.2008 9.05707L38.3507 9.0918L38.3859 17.8359ZM33.7404 17.0479L33.7789 18.7149L32.9319 18.2783C32.1793 17.8903 31.9619 17.8425 30.9795 17.8485C30.1541 17.8536 29.71 17.9293 29.2268 18.1474C28.8708 18.3081 28.3589 18.608 28.0891 18.8137C27.8194 19.0195 27.4159 19.4534 27.1926 19.778C26.9692 20.1026 26.691 20.6302 26.5742 20.9506C26.4575 21.2711 26.3618 21.9484 26.3616 22.4561L26.3614 23.3789H16.626C9.23658 23.3789 6.85131 23.3394 6.72676 23.2148C6.60726 23.0954 6.56269 22.0451 6.56269 19.3457C6.56269 16.638 6.60699 15.5963 6.72744 15.4759C6.85418 15.3491 9.98431 15.3192 20.2972 15.346L33.7022 15.3809L33.7404 17.0479ZM21.7389 30.8186C22.3029 30.9199 23.1414 31.1564 23.6024 31.3444C24.0633 31.5324 24.8016 31.932 25.2431 32.2324C25.6845 32.5329 26.356 33.1093 26.7353 33.5133C27.1147 33.9175 27.6477 34.6172 27.9196 35.0684C28.1917 35.5195 28.5469 36.2835 28.7089 36.766C28.8709 37.2485 29.0355 37.9252 29.0748 38.2699L29.1459 38.8965L28.3761 39.2923C27.9528 39.5099 27.3649 39.9623 27.0699 40.2976C26.7748 40.6328 26.4023 41.2545 26.242 41.6791C26.007 42.3023 25.962 42.6621 26.009 43.5449C26.0491 44.2948 26.1607 44.8294 26.3641 45.2454C26.5274 45.5792 26.6609 45.8931 26.6609 45.943C26.6609 45.993 26.2952 46.3213 25.8481 46.6725C25.401 47.0237 24.5841 47.5254 24.0326 47.7872C23.4812 48.0491 22.6011 48.3541 22.0768 48.4653C21.5526 48.5763 20.7052 48.6682 20.1935 48.6696C19.6821 48.6708 18.8207 48.5715 18.2794 48.4489C17.7383 48.3264 16.965 48.0803 16.5611 47.9023C16.1572 47.7243 15.4398 47.3024 14.9668 46.9648C14.4937 46.6274 13.8384 46.0445 13.5105 45.6697C13.1827 45.2949 12.7114 44.6533 12.4634 44.244C12.2152 43.8346 11.8574 43.0485 11.6681 42.497C11.4299 41.8028 11.301 41.0728 11.2495 40.1253C11.1891 39.0106 11.2286 38.5459 11.4623 37.622C11.6201 36.9979 11.941 36.0979 12.1753 35.6218C12.4096 35.1457 12.9192 34.379 13.3078 33.9179C13.6962 33.4567 14.3525 32.8255 14.7661 32.5151C15.1796 32.2049 15.9487 31.7516 16.4751 31.5078C17.0015 31.2642 17.7705 30.9966 18.1841 30.9133C18.5977 30.8301 19.0899 30.7396 19.2779 30.7121C19.4659 30.6847 19.8658 30.656 20.1666 30.6484C20.4674 30.6407 21.1749 30.7174 21.7389 30.8186ZM21.5036 38.4475L18.0562 41.8949L16.7714 40.635C15.6368 39.5224 15.4296 39.375 14.9994 39.375C14.6362 39.375 14.4405 39.4665 14.2291 39.7353C14.0733 39.9334 13.9457 40.2448 13.9457 40.4273C13.9457 40.6632 14.3518 41.1785 15.3471 42.2058C16.118 43.0012 16.9885 43.8279 17.2818 44.0429C17.575 44.2578 17.9417 44.4336 18.0968 44.4336C18.2835 44.4336 19.7287 43.0864 22.383 40.4377C26.0014 36.827 26.3875 36.3986 26.3875 35.9944C26.3875 35.7291 26.2761 35.4354 26.114 35.2734C25.9527 35.1121 25.6583 35 25.396 35C24.997 35 24.596 35.3552 21.5036 38.4475ZM38.3926 62.5146C38.352 66.3957 38.3416 66.5284 38.0409 67.0119C37.8706 67.2857 37.5229 67.6088 37.2683 67.7296C36.8512 67.9275 35.1677 67.9492 20.2143 67.9489C4.68891 67.9488 3.59307 67.9335 3.15433 67.7097C2.89647 67.5783 2.55808 67.2971 2.40236 67.085C2.13315 66.7183 2.11729 66.4971 2.07928 62.6075L2.03936 58.5156H20.2367H38.4343L38.3926 62.5146ZM16.4118 60.5902C16.1513 60.665 15.7654 60.8491 15.5541 60.9995C15.3429 61.1499 15.0355 61.5293 14.8712 61.8425C14.6565 62.2516 14.5736 62.6474 14.5764 63.247C14.5794 63.893 14.6602 64.2182 14.9333 64.684C15.1397 65.0363 15.5122 65.4132 15.8309 65.5923C16.3583 65.8887 16.4948 65.8984 20.1421 65.8984C22.4783 65.8984 24.0549 65.8431 24.2936 65.7526C24.5052 65.6724 24.825 65.4724 25.0041 65.3082C25.1832 65.1442 25.4434 64.7637 25.5822 64.4629C25.7247 64.154 25.8359 63.6012 25.8376 63.1928C25.8395 62.7396 25.7408 62.2739 25.5732 61.9454C25.4261 61.657 25.1165 61.2619 24.8853 61.0673C24.6541 60.8728 24.236 60.6501 23.9564 60.5724C23.6656 60.4916 22.0435 60.4361 20.1666 60.4428C18.3619 60.4491 16.6721 60.5155 16.4118 60.5902ZM23.6693 62.7395C23.9447 62.9625 23.9702 63.0532 23.8521 63.389L23.715 63.7793L20.317 63.8159C17.925 63.8416 16.8635 63.8064 16.7313 63.6966C16.6279 63.6109 16.5435 63.3988 16.5435 63.2255C16.5435 63.0521 16.6401 62.8135 16.7582 62.6953C16.9413 62.5123 17.4453 62.4805 20.1613 62.4805C23.0869 62.4805 23.3756 62.5018 23.6693 62.7395Z" fill="#0073C7"/>
</svg>
