<svg width="29" height="29" viewBox="0 0 29 29" fill="none" xmlns="http://www.w3.org/2000/svg">
<rect width="29" height="29" rx="14.5" fill="#0073C7"/>
<path d="M9.85156 19.0469V13.625H11.6563V19.0469H9.85156ZM11.7734 11.9531C11.7734 12.4687 11.3828 12.8906 10.75 12.8906H10.7422C10.1328 12.8906 9.74219 12.4687 9.74219 11.9531C9.74219 11.4219 10.1484 11.0156 10.7656 11.0156C11.3828 11.0156 11.7656 11.4219 11.7734 11.9531ZM16.3438 19.0469V16.1484C16.3438 15.4141 16.0859 14.9219 15.4375 14.9219C14.9375 14.9219 14.6406 15.2578 14.5078 15.5781C14.4609 15.6953 14.4531 15.8594 14.4531 16.0156V19.0469H12.6484C12.6719 14.1328 12.6484 13.625 12.6484 13.625H14.4531V14.4141H14.4375C14.6719 14.0391 15.1016 13.5 16.0703 13.5C17.2578 13.5 18.1484 14.2734 18.1484 15.9375V19.0469H16.3438ZM20 11.25C20 10.0078 18.9922 9 17.75 9H10.25C9.00781 9 8 10.0078 8 11.25V18.75C8 19.9922 9.00781 21 10.25 21H17.75C18.9922 21 20 19.9922 20 18.75V11.25Z" fill="white"/>
</svg>
