<svg width="62" height="70" viewBox="0 0 62 70" fill="none" xmlns="http://www.w3.org/2000/svg">
<path d="M58.4352 37.03H56.8224C56.8083 35.843 55.8397 34.8815 54.6494 34.8815H44.9829C43.7926 34.8815 42.824 35.843 42.8097 37.03H41.1971C40.0037 37.03 38.9675 37.714 38.4583 38.7103C35.5263 37.5747 34.8344 37.3069 34.7245 37.2642C34.8116 37.298 35.1218 37.4182 33.2134 36.6791L33.2112 34.0007C35.5599 32.2816 37.1866 29.635 37.5501 26.6043C40.2182 26.3704 42.2035 24.2434 42.2035 21.7644C42.2035 20.0668 41.3423 18.4963 40.0019 17.5837C40.1444 17.2424 40.2237 16.8685 40.2237 16.4761V14.4663C40.2237 13.9 39.7647 13.4409 39.1983 13.4409C38.6318 13.4409 38.1729 13.9 38.1729 14.4663V16.4762C38.1729 16.7223 38.069 16.9647 37.8361 17.1412C37.6501 17.2821 37.3986 17.3801 36.8176 17.2566H36.8173C35.647 17.0082 34.8138 15.9593 34.8138 14.7875C34.8138 14.2462 34.449 13.7524 33.8983 13.6144H33.8982H33.8981C33.3494 13.4766 32.7957 13.7382 32.5397 14.2161C31.5189 16.1254 29.542 17.3116 27.3808 17.3116H15.6412C14.6407 17.3116 13.7725 16.4963 13.7725 15.4429V7.89885C13.7725 4.67418 16.3959 2.0508 19.6205 2.0508H29.9639C32.366 2.0508 32.7724 3.11161 33.0035 4.29355C33.2769 5.6911 34.5863 6.6599 36.0506 6.54765C37.0855 6.46821 38.1726 7.3666 38.1726 8.60419V9.68113C38.1726 10.2474 38.6316 10.7065 39.198 10.7065C39.7644 10.7065 40.2234 10.2474 40.2234 9.68113V8.60419C40.2234 6.13776 38.0858 4.33457 35.8932 4.50287C35.4587 4.53732 35.0909 4.28261 35.016 3.89993C34.503 1.27573 32.8505 0 29.9641 0H19.6207C15.2653 0 11.7218 3.54337 11.7218 7.89885V15.4425C11.7218 16.5163 12.1562 17.4904 12.8581 18.1989C11.8661 19.135 11.2588 20.4359 11.2588 21.7774C11.2588 24.2175 13.2073 26.3749 15.9115 26.6054C16.2652 29.5818 17.8333 32.2439 20.2429 33.9885V36.6361C18.8924 37.1636 7.86401 41.4708 6.4804 42.0113C6.47466 42.0135 6.46892 42.0158 6.46318 42.0181C3.58659 43.202 0.49057 46.5942 0.49057 51.2449V67.1959C0.49057 68.742 1.74839 69.9999 3.29456 69.9999H47.4238C47.9902 69.9999 48.4492 69.5408 48.4492 68.9745C48.4492 68.4082 47.9902 67.9491 47.4238 67.9491H41.1974C40.6329 67.9491 40.1738 67.4898 40.1738 66.9254V40.1292C40.1745 40.1159 40.1749 40.1027 40.175 40.0928C40.175 40.091 40.1747 40.0893 40.1747 40.0873C40.184 39.5309 40.6388 39.0808 41.1975 39.0808H42.8089C42.8196 40.0146 43.4459 40.872 44.3815 41.1428V41.9432C44.3815 43.8895 45.9651 45.4732 47.9116 45.4732H51.7214C53.6677 45.4732 55.2512 43.8895 55.2512 41.9432V41.1428C56.2025 40.8694 56.8133 39.9978 56.8238 39.0808H58.4353C58.9998 39.0808 59.4589 39.5399 59.4589 40.1043V66.9256C59.4589 67.49 58.9998 67.9492 58.4353 67.9492H52.2089C51.6425 67.9492 51.1835 68.4083 51.1835 68.9746C51.1835 69.5409 51.6425 70 52.2089 70H58.4353C60.1305 70 61.5097 68.6208 61.5097 66.9256V40.1043C61.5096 38.4091 60.1304 37.03 58.4352 37.03ZM37.6298 19.3474C37.9497 19.3137 38.2735 19.2209 38.5396 19.098C39.4943 19.5836 40.1526 20.6422 40.1526 21.7644C40.1526 23.1662 39.0382 24.2957 37.6298 24.529V19.3474ZM15.8322 24.5315C14.4233 24.3035 13.3094 23.1755 13.3094 21.7774C13.3094 20.7963 13.9141 19.81 14.8137 19.2733C15.2517 19.3679 15.5596 19.362 15.8322 19.362V24.5315ZM34.4548 39.3589L37.4339 40.5125L32.4859 47.392C32.4384 47.458 32.3463 47.4769 32.2767 47.4355L29.7403 45.9215C29.6602 45.8733 29.639 45.7652 29.6949 45.6908L34.4548 39.3589ZM28.0555 44.4585C27.9859 44.5512 27.8829 44.7141 27.8154 44.8602H25.6466C25.5818 44.7197 25.5006 44.5837 25.4068 44.4588L25.4067 44.4587L20.9682 38.5544C21.1895 38.468 21.2932 38.4375 21.4236 38.3491C21.9846 37.9682 22.2934 37.3833 22.2934 36.702V35.1537C24.9876 36.3116 28.2432 36.436 31.1613 35.1799L31.1626 36.7106C31.1648 37.5463 31.6697 38.2809 32.4486 38.5821L32.4676 38.5894C31.455 39.9364 28.9116 43.3198 28.0555 44.4585ZM28.2137 47.3003V55.825C28.2137 56.1116 27.9806 56.3448 27.6938 56.3448H25.7442C25.4575 56.3448 25.2244 56.1116 25.2244 55.825V47.3252C25.3182 47.2285 25.4575 47.0514 25.5405 46.9112H27.9214C28.0011 47.0461 28.1251 47.2059 28.2137 47.3003ZM17.883 25.3164V19.362H27.3808C29.6476 19.362 31.754 18.3952 33.221 16.7814C33.7028 17.7721 34.5331 18.5616 35.5502 18.9953C35.5599 18.9995 35.5693 19.0042 35.5792 19.0083V25.3164C35.5792 30.1046 31.6744 34.0235 26.8719 34.0235C21.6553 34.0235 17.883 30 17.883 25.3164ZM18.9848 39.3291L23.7674 45.6909C23.8219 45.7638 23.804 45.8722 23.7223 45.9215C23.7223 45.9215 21.1882 47.434 21.1857 47.4355C21.1236 47.4728 21.0275 47.4635 20.9763 47.3921L16.0121 40.4901L18.9848 39.3291ZM8.83991 67.9492H3.29442C2.8792 67.9492 2.54123 67.6112 2.54123 67.196V61.1072H8.83991V67.9492ZM8.83991 59.0564H2.54123V56.1853H8.83991V59.0564ZM10.8907 67.9492C10.8907 67.678 10.8907 51.4824 10.8907 51.2121C10.8907 50.6458 10.4317 50.1867 9.86531 50.1867C9.29888 50.1867 8.83991 50.6458 8.83991 51.2121V54.1345H2.54123V51.245C2.54123 47.2925 5.34522 44.7001 7.23523 43.9181L14.0399 41.2605L19.3116 48.5898C19.9807 49.5199 21.243 49.789 22.2368 49.1966L23.1739 48.6373V55.825C23.1739 57.2424 24.3271 58.3956 25.7445 58.3956H27.6941C29.1115 58.3956 30.2647 57.2424 30.2647 55.825V48.623L31.2257 49.1967C32.2148 49.7864 33.4764 49.5273 34.151 48.5898L38.1231 43.0672V66.9256C38.1231 67.2816 38.1879 67.6364 38.2982 67.9492H10.8907ZM53.2003 41.9432C53.2003 42.7587 52.5367 43.4224 51.7213 43.4224H47.9114C47.0956 43.4224 46.4321 42.7587 46.4321 41.9432V41.2291H53.2004V41.9432H53.2003ZM54.773 39.0547C54.773 39.1229 54.7176 39.1783 54.6495 39.1783H44.983C44.9148 39.1783 44.8594 39.1228 44.8594 39.0547C44.8594 38.3325 44.8594 37.7806 44.8594 37.0559C44.8594 36.9876 44.9148 36.9321 44.983 36.9321H54.6495C54.7176 36.9321 54.773 36.9876 54.773 37.0557V39.0547Z" fill="#0073C7"/>
</svg>
