<svg width="70" height="70" viewBox="0 0 70 70" fill="none" xmlns="http://www.w3.org/2000/svg">
<path fill-rule="evenodd" clip-rule="evenodd" d="M2.1862 0.17786C1.92301 0.261253 1.398 0.639941 1.01942 1.01917C0.586558 1.45296 0.269501 1.91763 0.164909 2.27158C0.0368009 2.70536 -0.00107088 9.24872 2.28869e-05 30.844L0.0013901 58.8537L0.324463 59.5373C0.5022 59.9132 0.82459 60.3864 1.04102 60.5887C1.25731 60.7911 1.71109 61.082 2.04948 61.2351C2.63123 61.4984 2.93119 61.5137 7.55866 61.5166L12.4527 61.5196L12.7883 61.184C13.0158 60.9566 13.1239 60.6955 13.1239 60.3737C13.1239 60.0236 13.0293 59.8245 12.7636 59.6156C12.4149 59.3413 12.2522 59.3322 7.63044 59.3322H2.85736L2.52185 58.9966L2.1862 58.6611V30.7598V2.85847L2.52185 2.52299L2.85736 2.18736H18.0318H33.2064L33.2483 6.04943C33.2895 9.83111 33.2973 9.92571 33.6257 10.5929C33.81 10.9676 34.2271 11.533 34.5525 11.8491C34.8954 12.1824 35.4604 12.5423 35.8972 12.7057C36.5823 12.962 36.952 12.9875 39.9949 12.9875H43.3393V15.3904V17.7934L43.755 18.209C44.1028 18.5568 44.2422 18.6108 44.6095 18.5398C44.8509 18.4932 45.1598 18.3208 45.296 18.1566C45.523 17.8828 45.54 17.5749 45.501 14.4317C45.4606 11.1757 45.4435 10.9814 45.1576 10.5267C44.992 10.2635 42.8694 7.93042 40.4407 5.34209C37.5858 2.2996 35.8314 0.535494 35.4779 0.352165C34.9341 0.0699956 34.8394 0.0682184 18.7978 0.0473017C7.30628 0.0322636 2.52704 0.0698589 2.1862 0.17786ZM48.9792 0.210124C48.8143 0.325644 48.6186 0.648553 48.5443 0.927852C48.4701 1.20701 48.2223 2.32189 47.9936 3.40518C47.7649 4.48847 47.5777 5.53895 47.5777 5.73964C47.5777 5.94402 47.7167 6.23494 47.8941 6.40159C48.0774 6.57371 48.3875 6.6988 48.631 6.6988C48.8622 6.6988 49.1817 6.59107 49.341 6.45956C49.5457 6.29045 49.707 5.85967 49.8914 4.98992C50.0349 4.31321 50.2239 3.40326 50.3114 2.96784L50.4706 2.17629L51.5146 2.21594L52.5586 2.25572L52.9734 4.20275C53.2695 5.59213 53.4667 6.22373 53.6618 6.40761C53.8122 6.54951 54.3967 6.80092 54.9606 6.96648C55.5246 7.13204 56.5005 7.53943 57.1295 7.87177C57.7582 8.20412 58.4044 8.47603 58.5652 8.47603C58.7258 8.47603 59.6149 7.98388 60.5408 7.38235C61.4667 6.78083 62.2688 6.28867 62.3232 6.28867C62.3776 6.28867 62.7122 6.58301 63.0666 6.94269C63.4208 7.30251 63.7108 7.63745 63.7108 7.68722C63.7108 7.73698 63.2186 8.53017 62.617 9.44982C62.0155 10.3696 61.5233 11.2581 61.5233 11.4242C61.5233 11.5903 61.7952 12.2408 62.1276 12.8695C62.46 13.4984 62.8674 14.4742 63.033 15.0381C63.1985 15.6021 63.45 16.1865 63.5919 16.3369C63.7758 16.532 64.4074 16.7291 65.7969 17.0252L67.7441 17.44L67.784 18.4948C67.806 19.0749 67.7744 19.5496 67.7139 19.5496C67.6533 19.5496 66.7515 19.7325 65.7097 19.9561C64.668 20.1798 63.7301 20.4338 63.6256 20.5205C63.521 20.6073 63.2823 21.1802 63.0953 21.7937C62.9081 22.4071 62.4779 23.4476 62.1391 24.1058C61.8004 24.764 61.5233 25.4431 61.5233 25.615C61.5233 25.7867 61.6765 26.0713 61.864 26.2473C62.0647 26.4358 62.373 26.5673 62.6142 26.5673C62.8394 26.5673 63.1544 26.4495 63.3142 26.3054C63.4739 26.1613 63.866 25.5204 64.1854 24.8813C64.5048 24.2421 64.8699 23.4022 64.997 23.0149L65.2279 22.3104L66.1442 22.1073C66.6481 21.9954 67.583 21.7927 68.2217 21.6568C69.0097 21.4891 69.4818 21.3105 69.6914 21.1009C69.9861 20.8063 70 20.6933 70 18.6053C70 17.2643 69.94 16.2863 69.8448 16.0774C69.7594 15.89 69.5902 15.6943 69.4688 15.6425C69.3474 15.5908 68.3625 15.3567 67.2801 15.1223C66.0077 14.847 65.2749 14.6239 65.2071 14.4913C65.1493 14.3785 64.9071 13.7941 64.6688 13.1925C64.4305 12.591 64.1709 11.9437 64.0917 11.7541C63.9629 11.4454 64.0662 11.2266 65.0827 9.65584C65.8582 8.4573 66.2173 7.77334 66.2173 7.49486C66.2173 7.15651 65.9376 6.80776 64.5646 5.43491C63.1858 4.05619 62.8439 3.78236 62.5012 3.78236C62.2189 3.78236 61.5428 4.13644 60.3372 4.91569C58.7697 5.92899 58.5475 6.03398 58.242 5.9052C58.054 5.82604 57.3157 5.51981 56.6013 5.22479L55.3025 4.68834L54.9303 2.92519C54.7256 1.9555 54.5249 1.02533 54.4843 0.858267C54.4437 0.69107 54.2765 0.42968 54.1128 0.277248C53.8387 0.0218736 53.6366 0 51.5473 0C49.7285 0 49.2197 0.0415599 48.9792 0.210124ZM38.7496 7.51906L41.7061 10.7318L39.2937 10.7692C37.1874 10.8017 36.8288 10.7758 36.4673 10.5641C36.2397 10.4307 35.9238 10.1481 35.7657 9.9361C35.4984 9.57805 35.4748 9.34865 35.4367 6.72341C35.4005 4.24731 35.4202 3.92167 35.5943 4.10131C35.7037 4.21409 37.1236 5.75208 38.7496 7.51906ZM50.7565 9.87102C50.5872 10.0534 50.4488 10.3628 50.4488 10.5585C50.4488 10.7543 50.4871 11.0141 50.5337 11.1357C50.5805 11.2575 50.7927 11.447 51.0056 11.5571C51.2183 11.6671 51.6658 11.7571 51.9999 11.7571C52.3341 11.7571 53.0031 11.8792 53.4864 12.0284C53.9697 12.1777 54.7304 12.5359 55.1767 12.8244C55.6231 13.1128 56.2482 13.6441 56.5659 14.005C56.8835 14.3658 57.325 15.0246 57.5471 15.4689C57.7692 15.9133 58.0233 16.6263 58.1121 17.0532C58.2007 17.4803 58.2433 18.3242 58.2068 18.9289C58.1685 19.5612 58.0041 20.4238 57.8195 20.9599C57.5258 21.8128 57.516 21.9224 57.7037 22.2568C57.8163 22.4577 58.0758 22.6808 58.2804 22.7527C58.5154 22.8354 58.7878 22.8357 59.0209 22.7538C59.2238 22.6824 59.5014 22.4326 59.6382 22.1986C59.7747 21.9647 60.0162 21.2609 60.1745 20.6348C60.4075 19.7136 60.4503 19.2209 60.3989 18.0533C60.3513 16.9733 60.2464 16.3581 59.9819 15.6075C59.7876 15.056 59.4242 14.2617 59.1745 13.8423C58.9248 13.4229 58.3152 12.6745 57.8199 12.1791C57.3244 11.6838 56.576 11.0743 56.1566 10.8246C55.7371 10.5749 54.9427 10.2131 54.3912 10.0206C53.7456 9.79529 52.9744 9.64723 52.2262 9.60499C51.1303 9.54319 51.0466 9.55837 50.7565 9.87102ZM6.32475 9.7957C6.157 9.83179 5.89559 10.0194 5.74369 10.2125C5.59179 10.4056 5.46751 10.7007 5.46751 10.8685C5.46751 11.0362 5.59507 11.3355 5.75093 11.5336C6.0077 11.8602 6.12186 11.8938 6.97145 11.8938C7.82103 11.8938 7.93519 11.8602 8.19196 11.5336C8.34782 11.3355 8.47538 11.0078 8.47538 10.8054C8.47538 10.5924 8.33524 10.3059 8.14205 10.1245C7.92453 9.9201 7.60419 9.79734 7.21918 9.77068C6.89502 9.74826 6.49237 9.75947 6.32475 9.7957ZM12.3405 9.80048C12.1727 9.83398 11.9113 10.0194 11.7594 10.2125C11.6075 10.4056 11.4833 10.7007 11.4833 10.8685C11.4833 11.0362 11.6108 11.3355 11.7667 11.5336L12.05 11.8938H20.1599C27.6825 11.8938 28.2905 11.8764 28.5578 11.6545C28.7163 11.523 28.8827 11.2254 28.9274 10.9933C28.9907 10.6657 28.9322 10.4823 28.6663 10.173L28.3238 9.77478L20.4846 9.75714C16.1731 9.7473 12.5081 9.76685 12.3405 9.80048ZM5.80316 15.1003C5.61736 15.286 5.46751 15.596 5.46751 15.7943C5.46751 16.0084 5.62871 16.3139 5.86715 16.5525C6.19364 16.8789 6.38245 16.9521 6.89939 16.9521C7.24721 16.9521 7.70591 16.8621 7.91865 16.7521C8.13153 16.642 8.34372 16.4525 8.39048 16.3307C8.4371 16.209 8.47538 15.9579 8.47538 15.7727C8.47538 15.5874 8.3243 15.2849 8.13973 15.1003C7.85699 14.8175 7.67337 14.7647 6.97145 14.7647C6.26952 14.7647 6.0859 14.8175 5.80316 15.1003ZM11.909 15.0039C11.7505 15.1356 11.5826 15.4406 11.536 15.682C11.4651 16.0492 11.5191 16.1887 11.8669 16.5365L12.2825 16.9521H20.2334H28.1843L28.5999 16.5365C28.9478 16.1887 29.0018 16.0492 28.9308 15.682C28.8842 15.4406 28.7163 15.1356 28.5578 15.0039C28.2907 14.7821 27.6861 14.7647 20.2334 14.7647C12.7807 14.7647 12.1762 14.7821 11.909 15.0039ZM6.0025 19.8615C5.88328 19.9531 5.70992 20.1701 5.61749 20.3437C5.52124 20.5242 5.48706 20.8314 5.53765 21.0612C5.58618 21.2822 5.75777 21.5555 5.91896 21.6684C6.09807 21.7938 6.52136 21.8736 7.00809 21.8736C7.67105 21.8736 7.86027 21.8174 8.13973 21.538C8.35137 21.3265 8.47538 21.0463 8.47538 20.78C8.47538 20.5136 8.35137 20.2334 8.13973 20.0219C7.85931 19.7414 7.67419 19.687 7.01178 19.6906C6.57605 19.693 6.12186 19.7699 6.0025 19.8615ZM12.074 19.8488C11.9102 19.928 11.7046 20.1653 11.6172 20.3762C11.5299 20.5872 11.4995 20.8895 11.5498 21.0479C11.6001 21.2064 11.7712 21.4569 11.9299 21.6049C12.2045 21.8606 12.4328 21.8736 16.6423 21.8736H21.0662L21.4017 21.538C21.6133 21.3265 21.7374 21.0463 21.7374 20.78C21.7374 20.5136 21.6133 20.2334 21.4017 20.0219L21.0662 19.6863L16.719 19.6956C13.9731 19.7013 12.2622 19.7578 12.074 19.8488ZM32.2064 21.0558C31.8357 21.2005 31.2901 21.5513 30.9937 21.8355C30.6974 22.1196 30.309 22.6597 30.1307 23.0357C29.8194 23.6922 29.8065 23.8421 29.8053 26.8249L29.8039 29.9305L24.3692 29.9692L18.9346 30.0079L18.1624 30.3699C17.7377 30.5689 17.1404 30.9817 16.8351 31.287C16.5296 31.5924 16.146 32.1043 15.9825 32.4249C15.819 32.7455 15.6308 33.1941 15.5644 33.4218C15.4973 33.6514 15.4449 41.034 15.4467 49.9989L15.4499 66.1621L15.7447 66.951C15.959 67.5243 16.2697 67.9703 16.8821 68.5831C17.6029 69.3044 17.8617 69.4679 18.6715 69.7132L19.6182 70L43.0004 69.9636L66.3828 69.9273L67.288 69.4816C67.7888 69.2351 68.4206 68.7844 68.7021 68.4727C68.9821 68.1629 69.3731 67.5637 69.5714 67.1411L69.9316 66.3728V49.9676V33.5624L69.568 32.7865C69.3678 32.3599 68.9459 31.7304 68.6302 31.388C68.3145 31.0455 67.7091 30.5949 67.285 30.3866L66.5136 30.0079L61.088 29.9678L55.6623 29.9278L55.6191 26.7551L55.5759 23.5825L55.1701 22.8499C54.9468 22.447 54.5189 21.9073 54.2191 21.6507C53.9191 21.3939 53.3677 21.093 52.9935 20.9819C52.4204 20.8118 50.7833 20.7809 42.5967 20.7864C33.3408 20.7924 32.8482 20.8052 32.2064 21.0558ZM52.9414 23.4824L53.3884 23.9291V26.9002V29.8712H52.2262H51.0641L51.0266 27.5813L50.9892 25.2914H42.6524H34.3157V27.6155V29.9395H33.1536H31.9915V27.0618C31.9915 24.7607 32.0329 24.1041 32.1983 23.7843C32.3119 23.5643 32.5735 23.2923 32.7794 23.1799C33.1031 23.0029 34.4576 22.9793 42.824 23.0055L52.4945 23.0357L52.9414 23.4824ZM48.8082 28.7105V29.9424L42.6899 29.9067L36.5716 29.8712L36.5321 28.675L36.4926 27.4788H42.6504H48.8082V28.7105ZM66.4111 32.4169C66.7717 32.5914 67.1562 32.9275 67.3771 33.261L67.7441 33.8151L67.784 37.8868C67.8218 41.745 67.8094 41.9869 67.5479 42.4996C67.396 42.7971 67.0893 43.1706 66.8665 43.3293C66.6435 43.4881 66.2332 43.7131 65.9546 43.8296C65.6759 43.9459 61.781 44.7429 57.299 45.6007C52.817 46.4584 48.9807 47.1969 48.774 47.2419L48.398 47.3235V45.3051C48.398 43.557 48.3611 43.2123 48.1225 42.731C47.971 42.4253 47.6789 42.0521 47.4731 41.9017C47.121 41.6443 46.8513 41.6261 42.8608 41.5914C39.031 41.558 38.5766 41.5777 38.1467 41.7964C37.885 41.9294 37.5311 42.2474 37.3605 42.5029C37.0702 42.9373 37.0501 43.1087 37.0501 45.1438C37.0501 47.1522 37.0317 47.3147 36.8109 47.2498C36.6794 47.211 35.2181 46.9262 33.5638 46.6168C31.9094 46.3074 28.1329 45.5933 25.1714 45.0296C21.9783 44.4219 19.5445 43.8911 19.1915 43.7251C18.8639 43.5712 18.4116 43.2353 18.1862 42.9785C17.9608 42.7219 17.7419 42.3746 17.7 42.2068C17.658 42.0389 17.6417 40.0512 17.6639 37.7894L17.7041 33.6772L18.0874 33.1751C18.2983 32.8988 18.6982 32.5526 18.9761 32.4059C19.4715 32.1443 19.9406 32.1389 42.6467 32.1329L65.8121 32.1269L66.4111 32.4169ZM46.1833 48.1562C46.1436 52.4012 46.1309 52.586 45.8402 53.1294C45.6741 53.4399 45.2594 53.9392 44.9187 54.2391C44.5721 54.5441 44.0258 54.861 43.6789 54.958C43.3155 55.0599 42.7464 55.0995 42.3039 55.0539C41.857 55.0077 41.3026 54.8315 40.9449 54.6219C40.6126 54.4272 40.1867 54.066 39.9985 53.8193C39.8103 53.5725 39.5621 53.1453 39.447 52.8697C39.2741 52.4558 39.2377 51.6193 39.2377 48.058V43.7473H42.7311H46.2246L46.1833 48.1562ZM27.599 47.7099C32.2332 48.5916 36.2495 49.3543 36.5242 49.4047L37.0235 49.4965L37.0737 51.3042C37.121 53.0038 37.1498 53.1651 37.5564 54.0005C37.7942 54.4893 38.2852 55.1868 38.6475 55.5507C39.0096 55.9145 39.5522 56.3556 39.8529 56.531C40.1537 56.7064 40.766 56.955 41.2133 57.0833C41.8119 57.2552 42.3136 57.2973 43.1117 57.2425C43.987 57.1826 44.3874 57.0739 45.1842 56.6802C45.7618 56.3947 46.3983 55.9465 46.7173 55.6003C47.0173 55.2749 47.4226 54.7356 47.6182 54.4021C47.8137 54.0685 48.0691 53.4288 48.1858 52.9807C48.3076 52.5129 48.398 51.5959 48.398 50.8275C48.398 50.0913 48.4475 49.4891 48.5081 49.4891C48.5685 49.4891 51.9984 48.8437 56.1303 48.0547C60.262 47.2659 64.2514 46.4921 64.9956 46.3353C65.7399 46.1784 66.6782 45.9044 67.0806 45.7264L67.8125 45.4028L67.8094 55.546C67.8066 65.0913 67.7917 65.7218 67.5554 66.2417C67.4175 66.5456 67.1083 66.9593 66.8687 67.1609C66.629 67.3626 66.205 67.5935 65.9264 67.674C65.5727 67.7763 58.4637 67.8083 42.3723 67.7801L19.3248 67.7399L18.7564 67.3638C18.4437 67.157 18.0638 66.7441 17.9119 66.4465C17.6421 65.9177 17.6357 65.6689 17.6357 55.654V45.403L18.4045 45.7549C18.9787 46.0177 21.3057 46.5125 27.599 47.7099ZM41.8976 50.7263C41.7553 50.8835 41.644 51.2104 41.644 51.4714C41.644 51.7324 41.7553 52.0592 41.8976 52.2165C42.0655 52.402 42.3208 52.4967 42.6531 52.4967C43.0009 52.4967 43.2462 52.3997 43.4523 52.1804C43.6215 52.0001 43.7495 51.6867 43.7495 51.4523C43.7495 51.1987 43.628 50.9263 43.4331 50.7433C43.2315 50.5539 42.9413 50.4461 42.634 50.4461C42.3209 50.4461 42.0621 50.5446 41.8976 50.7263Z" fill="#0073C7"/>
</svg>
