<svg width="29" height="29" viewBox="0 0 29 29" fill="none" xmlns="http://www.w3.org/2000/svg">
<rect width="29" height="29" rx="14.5" fill="#0073C7"/>
<path d="M18 12.7656C17.7813 13.1016 17.5 13.3906 17.1797 13.6172C17.1875 13.6875 17.1875 13.7578 17.1875 13.8281C17.1875 16 15.5313 18.5 12.5156 18.5C11.5859 18.5 10.7266 18.2266 10 17.7656C10.125 17.7812 10.2578 17.7891 10.3906 17.7891C11.1641 17.7891 11.8672 17.5234 12.4297 17.0859C11.7109 17.0703 11.1094 16.5937 10.8984 15.9453C11 15.9609 11.1016 15.9766 11.2031 15.9766C11.3516 15.9766 11.4609 15.9531 11.6016 15.9141C10.8516 15.7656 10.25 15.1016 10.25 14.3047C10.25 14.2969 10.25 14.2891 10.25 14.2891C10.5 14.4062 10.7578 14.4844 11.0313 14.4922C10.5859 14.1953 10.3203 13.6953 10.3203 13.125C10.3203 12.8281 10.4063 12.5391 10.5469 12.2969C11.3594 13.2969 12.5703 13.9453 13.9375 14.0156C13.9063 13.8984 13.8984 13.7656 13.8984 13.6406C13.8984 12.7344 14.6328 12 15.5391 12C16.0078 12 16.4375 12.1953 16.7344 12.5156C17.1094 12.4453 17.4609 12.3047 17.7813 12.1172C17.6563 12.5 17.3984 12.8281 17.0547 13.0312C17.3906 12.9844 17.7031 12.8984 18 12.7656ZM20 11.25C20 10.0078 18.9922 9 17.75 9H10.25C9.00781 9 8 10.0078 8 11.25V18.75C8 19.9922 9.00781 21 10.25 21H17.75C18.9922 21 20 19.9922 20 18.75V11.25Z" fill="white"/>
</svg>
