<svg width="70" height="70" viewBox="0 0 70 70" fill="none" xmlns="http://www.w3.org/2000/svg">
<path d="M68.9746 67.9488H62.9891V48.6878C62.9891 48.1215 62.53 47.6624 61.9637 47.6624C61.3974 47.6624 60.9383 48.1215 60.9383 48.6878V67.9488H54.606C54.852 67.4549 54.991 66.8989 54.991 66.3109V53.9783C56.6954 53.653 57.9879 52.1528 57.9879 50.3558V39.7013C57.9774 37.4262 56.0093 35.7965 53.7797 36.0113V27.0535C53.7797 26.0387 52.9542 25.2132 51.9395 25.2132H49.1185L57.359 16.974L65.5994 25.2132H62.7785C61.7638 25.2132 60.9383 26.0387 60.9383 27.0535V43.9027C60.9383 44.469 61.3974 44.9281 61.9637 44.9281C62.53 44.9281 62.9891 44.469 62.9891 43.9027V27.264H66.1076C66.8545 27.264 67.5218 26.8182 67.8077 26.1281C68.0936 25.4379 67.9368 24.6504 67.4082 24.1218L58.6611 15.376C58.3138 15.0273 57.8514 14.8353 57.359 14.8353C56.8665 14.8353 56.404 15.0273 56.0584 15.3744L47.3096 24.1218C46.7811 24.6504 46.6242 25.4379 46.9103 26.1281C47.1961 26.8182 47.8635 27.264 48.6104 27.264H51.7289V36.0113H45.9881V31.2794C45.9881 29.4269 44.6161 27.8892 42.8354 27.6288V17.5775C42.8354 17.4788 42.9157 17.3984 43.0145 17.3984H47.9377C49.8479 17.417 50.9023 14.9478 49.5145 13.5904L36.5768 0.652656C35.7074 -0.216738 34.2926 -0.216738 33.4232 0.652656L20.4862 13.5897C19.1041 14.9685 20.0524 17.3982 22.0623 17.3984H26.9855C27.0843 17.3984 27.1646 17.4788 27.1646 17.5775V27.6288C25.3839 27.8892 24.0119 29.4269 24.0119 31.2794V36.0113H18.2711V27.264H21.3896C22.1365 27.264 22.8039 26.8182 23.0897 26.1281C23.3756 25.4379 23.2188 24.6504 22.6903 24.1218L13.9431 15.376C13.5959 15.0273 13.1335 14.8353 12.641 14.8353C12.1486 14.8353 11.6862 15.0273 11.3404 15.3744L2.59164 24.1218C2.06309 24.6504 1.90641 25.4379 2.19229 26.1281C2.47816 26.8182 3.14549 27.264 3.89238 27.264H7.01094V67.9488H1.02539C0.459102 67.9488 0 68.4079 0 68.9742C0 69.5405 0.459102 69.9995 1.02539 69.9995H68.9746C69.5409 69.9995 70 69.5405 70 68.9742C70 68.4079 69.5409 67.9488 68.9746 67.9488ZM26.9855 15.3476H22.0623C21.929 15.3613 21.8344 15.1221 21.9356 15.0404L34.8733 2.1027C34.9532 2.02791 35.0474 2.02791 35.1267 2.1027L48.0651 15.0411C48.1672 15.1237 48.0673 15.3614 47.9377 15.3476H43.0145C41.7849 15.3476 40.7846 16.3478 40.7846 17.5775V27.5894H29.2154V17.5775C29.2154 16.348 28.2151 15.3476 26.9855 15.3476ZM9.06172 67.9488V27.0535C9.06172 26.0387 8.23621 25.2132 7.22148 25.2132H4.40057L12.641 16.974L20.8815 25.2132H18.0605C17.0458 25.2132 16.2203 26.0387 16.2203 27.0535V36.0113C13.9956 35.7951 12.011 37.4387 12.0121 39.7013V50.3558C12.0121 52.1528 13.3046 53.653 15.009 53.9783V66.3109C15.009 66.8989 15.148 67.4549 15.394 67.9488H9.06172ZM52.9402 66.3109C52.9402 67.214 52.2048 67.9488 51.301 67.9488H18.699C17.7952 67.9488 17.0598 67.214 17.0598 66.3109V54.0445H28.4312V55.0835C28.4312 56.1631 29.3094 57.0412 30.3889 57.0412H39.6112C40.6908 57.0412 41.5689 56.1631 41.5689 55.0835V54.0445H52.9404V66.3109H52.9402ZM30.482 54.9904V51.0479H39.5181V54.9904H30.482ZM41.5688 51.9937V50.9548C41.5688 49.8752 40.6906 48.9971 39.6111 48.9971H30.3888C29.3092 48.9971 28.4311 49.8754 28.4311 50.9548V51.9937H15.7021C14.7983 51.9937 14.0629 51.259 14.0629 50.3558V39.7013C14.0629 38.7975 14.7983 38.062 15.7021 38.062H30.7271C31.2934 38.062 31.7525 37.6029 31.7525 37.0367C31.7525 36.4704 31.2934 36.0113 30.7271 36.0113H26.0627V31.2794C26.0627 30.3756 26.7974 29.6402 27.7006 29.6402H42.2994C43.2026 29.6402 43.9373 30.3756 43.9373 31.2794V36.0113H35.5123C34.946 36.0113 34.4869 36.4704 34.4869 37.0367C34.4869 37.6029 34.946 38.062 35.5123 38.062H54.2979C55.2017 38.062 55.9371 38.7975 55.9371 39.7013V50.3558C55.9371 51.259 55.2017 51.9937 54.2979 51.9937H41.5688Z" fill="#0073C7"/>
</svg>
