<svg width="70" height="70" viewBox="0 0 70 70" fill="none" xmlns="http://www.w3.org/2000/svg">
<path d="M34.0867 67.6737C34.3825 67.7652 34.6904 67.812 35 67.8126C35.3022 67.8118 35.6025 67.7665 35.8914 67.678C40.2886 66.4179 44.4437 64.43 48.1841 61.7969C48.4064 61.6241 48.5534 61.3723 48.5947 61.0937C48.636 60.8152 48.5682 60.5315 48.4056 60.3017C48.243 60.0719 47.998 59.9136 47.7217 59.8598C47.4453 59.8061 47.1588 59.8609 46.9219 60.013C43.3756 62.5071 39.4364 64.3893 35.268 65.5813C35.0866 65.6393 34.8916 65.6393 34.7102 65.5813C29.2658 64.0358 24.2308 61.3047 19.9664 57.5838C19.8604 57.4794 19.7341 57.3977 19.5953 57.3437C19.4566 57.2898 19.3083 57.2647 19.1595 57.2701C19.0108 57.2755 18.8647 57.3112 18.7302 57.375C18.5957 57.4388 18.4757 57.5294 18.3774 57.6412C18.2791 57.753 18.2047 57.8837 18.1588 58.0253C18.1128 58.1669 18.0962 58.3164 18.11 58.4646C18.1238 58.6128 18.1677 58.7567 18.2391 58.8873C18.3104 59.018 18.4077 59.1327 18.5249 59.2244C23.0258 63.1537 28.34 66.039 34.0867 67.6737Z" fill="#0073C7"/>
<path d="M6.09107 16.4643C5.94866 16.4452 5.80387 16.4544 5.665 16.4913C5.52613 16.5282 5.39589 16.5921 5.28172 16.6793C5.16755 16.7666 5.07169 16.8755 4.99962 16.9998C4.92756 17.1241 4.88069 17.2614 4.8617 17.4038C4.09061 23.169 3.17186 37.9532 11.2656 50.7293C11.3425 50.8506 11.4424 50.9557 11.5599 51.0384C11.6773 51.1211 11.8099 51.1799 11.9501 51.2114C12.0902 51.2429 12.2352 51.2465 12.3768 51.2219C12.5183 51.1974 12.6536 51.1452 12.775 51.0683C12.8964 50.9915 13.0014 50.8915 13.0841 50.7741C13.1668 50.6566 13.2256 50.524 13.2571 50.3839C13.2886 50.2437 13.2922 50.0987 13.2676 49.9572C13.2431 49.8156 13.1909 49.6803 13.114 49.559C5.40311 37.3921 6.29014 23.2215 7.02842 17.6936C7.06698 17.4063 6.98992 17.1155 6.81416 16.885C6.63841 16.6545 6.37833 16.5031 6.09107 16.4643Z" fill="#0073C7"/>
<path d="M14.2614 53.0983C14.1493 53.1884 14.0561 53.2997 13.9871 53.4258C13.9181 53.5519 13.8747 53.6904 13.8592 53.8333C13.8438 53.9762 13.8567 54.1208 13.8972 54.2588C13.9376 54.3967 14.0049 54.5253 14.0951 54.6372C14.4233 55.0441 14.7744 55.451 15.1353 55.8579C15.2306 55.9656 15.3462 56.0535 15.4754 56.1165C15.6047 56.1796 15.7451 56.2166 15.8887 56.2254C16.0323 56.2341 16.1762 56.2146 16.3121 56.1677C16.4481 56.1209 16.5736 56.0478 16.6813 55.9525C16.789 55.8572 16.8769 55.7416 16.94 55.6123C17.003 55.483 17.04 55.3426 17.0488 55.1991C17.0576 55.0555 17.038 54.9116 16.9912 54.7756C16.9444 54.6396 16.8712 54.5142 16.7759 54.4065C16.4379 54.0247 16.1098 53.6408 15.8036 53.2646C15.7135 53.1521 15.602 53.0585 15.4756 52.9892C15.3492 52.9199 15.2104 52.8762 15.067 52.8608C14.9237 52.8453 14.7788 52.8584 14.6405 52.8991C14.5022 52.9399 14.3734 53.0076 14.2614 53.0983Z" fill="#0073C7"/>
<path d="M62.3306 13.8021C58.3566 13.1104 54.4633 12.0165 50.7106 10.5372C45.8019 8.59439 41.1734 6.00722 36.9469 2.84379C36.3851 2.42132 35.7012 2.19287 34.9983 2.19287C34.2955 2.19287 33.6116 2.42132 33.0498 2.84379C30.9442 4.41898 28.7374 5.85416 26.4436 7.14004C26.318 7.21016 26.2074 7.30436 26.1183 7.41726C26.0291 7.53017 25.9631 7.65954 25.9241 7.79799C25.885 7.93643 25.8736 8.08123 25.8906 8.22408C25.9075 8.36693 25.9525 8.50503 26.0229 8.63047C26.0933 8.75591 26.1878 8.86623 26.3009 8.9551C26.414 9.04398 26.5436 9.10967 26.6821 9.14842C26.8207 9.18716 26.9655 9.19819 27.1083 9.18088C27.2511 9.16357 27.3891 9.11826 27.5144 9.04754C29.8934 7.71136 32.1821 6.22029 34.3656 4.58395C34.5472 4.44435 34.7698 4.36866 34.9989 4.36866C35.2279 4.36866 35.4506 4.44435 35.6322 4.58395C40.0154 7.86693 44.8161 10.552 49.9078 12.5683C53.802 14.1043 57.8423 15.2403 61.9664 15.9589C62.1908 15.997 62.397 16.1063 62.5546 16.2705C62.7121 16.4348 62.8127 16.6453 62.8414 16.8711C63.5447 21.4933 64.6155 33.483 59.3742 44.9411C59.3117 45.0721 59.2759 45.2141 59.2688 45.359C59.2617 45.5039 59.2836 45.6488 59.333 45.7852C59.3825 45.9216 59.4586 46.0468 59.5569 46.1535C59.6552 46.2601 59.7738 46.3462 59.9057 46.4066C60.0376 46.4671 60.1802 46.5007 60.3252 46.5055C60.4702 46.5102 60.6147 46.4861 60.7503 46.4345C60.8858 46.3829 61.0098 46.3049 61.115 46.2049C61.2201 46.1049 61.3043 45.9851 61.3626 45.8522C66.85 33.8571 65.7376 21.3588 65.0048 16.5397C64.9056 15.8593 64.5934 15.2279 64.1129 14.736C63.6325 14.2441 63.0085 13.9172 62.3306 13.8021Z" fill="#0073C7"/>
<path d="M33.9445 59.967C34.2826 60.0911 34.6398 60.1551 35 60.1562C35.3545 60.1558 35.7062 60.0932 36.0391 59.9714C37.548 59.4406 39.0192 58.808 40.4425 58.0781C40.5703 58.0123 40.6838 57.922 40.7767 57.8124C40.8695 57.7027 40.9399 57.5758 40.9837 57.4389C41.0275 57.3021 41.044 57.1579 41.0321 57.0147C41.0202 56.8715 40.9802 56.732 40.9144 56.6043C40.8487 56.4765 40.7584 56.363 40.6487 56.2701C40.539 56.1772 40.4121 56.1069 40.2753 56.0631C40.1384 56.0192 39.9943 56.0028 39.8511 56.0147C39.7079 56.0266 39.5684 56.0665 39.4406 56.1323C38.1029 56.8202 36.7197 57.4158 35.3008 57.9151C35.1021 57.9928 34.8815 57.9928 34.6828 57.9151C29.7792 56.2352 25.3718 53.359 21.8597 49.5469C13.6041 40.5442 12.8767 28.4911 13.1764 22.1309C13.1867 21.9614 13.2294 21.7954 13.3022 21.642C13.4081 21.3838 13.4114 21.0949 13.3112 20.8344C13.2111 20.5739 13.0152 20.3615 12.7636 20.2408C12.512 20.12 12.2238 20.1 11.9579 20.1848C11.692 20.2696 11.4686 20.4529 11.3334 20.697C11.1385 21.109 11.0245 21.5545 10.9977 22.0095C10.6805 28.7328 11.4614 41.4444 20.2519 51.03C24.0025 55.1006 28.7086 58.1722 33.9445 59.967Z" fill="#0073C7"/>
<path d="M55.0966 40.4688C55.2166 40.5135 55.3436 40.5365 55.4717 40.5366C55.6959 40.5365 55.9147 40.4675 56.0984 40.339C56.2821 40.2105 56.4219 40.0286 56.4988 39.818C58.4914 34.1012 59.3424 28.0488 59.0034 22.0041C58.9824 21.562 58.8739 21.1286 58.6843 20.7287C58.4947 20.3288 58.2277 19.9705 57.8988 19.6744C57.7945 19.5666 57.6692 19.4814 57.5307 19.4241C57.3921 19.3667 57.2433 19.3385 57.0934 19.3411C56.9434 19.3437 56.7956 19.3771 56.6592 19.4393C56.5227 19.5014 56.4005 19.591 56.3001 19.7023C56.1997 19.8137 56.1233 19.9445 56.0756 20.0867C56.0278 20.2289 56.0099 20.3793 56.0228 20.5287C56.0357 20.6781 56.0791 20.8232 56.1505 20.9551C56.2218 21.087 56.3195 21.2028 56.4375 21.2953C56.5519 21.3992 56.6447 21.5246 56.7104 21.6645C56.7761 21.8043 56.8135 21.9558 56.8203 22.1102C57.1458 27.862 56.3398 33.6218 54.448 39.0633C54.3982 39.1982 54.3754 39.3415 54.3811 39.4852C54.3867 39.6288 54.4207 39.77 54.4809 39.9005C54.5411 40.031 54.6265 40.1484 54.7322 40.2459C54.8378 40.3434 54.9616 40.4192 55.0966 40.4688Z" fill="#0073C7"/>
<path d="M34.5745 12.1209C34.7291 12.0506 34.8989 12.0204 35.0683 12.033C35.2376 12.0456 35.4011 12.1007 35.5436 12.1931C38.6919 14.2252 42.006 15.988 45.4508 17.4628C45.7154 17.5662 46.0099 17.5626 46.2719 17.4528C46.5339 17.3429 46.7429 17.1354 46.8546 16.8741C46.9663 16.6129 46.972 16.3184 46.8704 16.0531C46.7689 15.7878 46.568 15.5723 46.3104 15.4525C42.9789 14.0247 39.7734 12.319 36.7281 10.3534C36.2814 10.0659 35.7703 9.89398 35.2406 9.85312C34.711 9.81226 34.1795 9.90374 33.694 10.1193C33.4436 10.2449 33.251 10.4617 33.1557 10.7252C33.0605 10.9886 33.07 11.2785 33.1822 11.5351C33.2944 11.7918 33.5007 11.9956 33.7588 12.1046C34.0168 12.2136 34.3068 12.2194 34.569 12.1209H34.5745Z" fill="#0073C7"/>
<path d="M51.9422 19.879C52.0443 19.9097 52.1505 19.9252 52.2572 19.9249C52.5197 19.9247 52.7734 19.8301 52.972 19.6583C53.1705 19.4865 53.3007 19.249 53.3386 18.9892C53.3765 18.7294 53.3198 18.4647 53.1787 18.2433C53.0376 18.0219 52.8215 17.8586 52.57 17.7833C52.0417 17.6247 51.5145 17.4454 50.9862 17.2551C50.7133 17.1567 50.4124 17.1708 50.1499 17.2943C49.8873 17.4178 49.6846 17.6405 49.5862 17.9135C49.4879 18.1865 49.502 18.4873 49.6255 18.7499C49.749 19.0124 49.9717 19.2152 50.2447 19.3135C50.8112 19.5169 51.3767 19.7094 51.9422 19.879Z" fill="#0073C7"/>
<path d="M29.1058 32.2449C28.4556 31.6079 27.5818 31.2511 26.6716 31.2511C25.7615 31.2511 24.8876 31.6079 24.2375 32.2449L22.8681 33.6416C22.2309 34.2988 21.8746 35.1783 21.8746 36.0938C21.8746 37.0092 22.2309 37.8887 22.8681 38.5459L31.2484 47.098C31.5649 47.423 31.9434 47.6812 32.3613 47.8576C32.7793 48.034 33.2284 48.1248 33.682 48.1248C34.1357 48.1248 34.5847 48.034 35.0027 47.8576C35.4207 47.6812 35.7991 47.423 36.1156 47.098L51.5068 31.3906C52.144 30.7334 52.5004 29.8539 52.5004 28.9384C52.5004 28.023 52.144 27.1435 51.5068 26.4863L50.1375 25.0895C49.8217 24.7639 49.4436 24.5051 49.0257 24.3286C48.6078 24.1522 48.1586 24.0617 47.705 24.0625C47.251 24.0616 46.8015 24.1521 46.3832 24.3286C45.965 24.505 45.5865 24.7638 45.2703 25.0895L34.5515 36.027C34.3197 36.2563 34.0069 36.3848 33.6809 36.3848C33.3549 36.3848 33.0421 36.2563 32.8103 36.027L29.1058 32.2449ZM36.1156 37.5572L46.8343 26.6197C46.9473 26.5027 47.0826 26.4096 47.2323 26.3461C47.382 26.2825 47.5429 26.2498 47.7055 26.2498C47.8681 26.2498 48.0291 26.2825 48.1788 26.3461C48.3284 26.4096 48.4638 26.5027 48.5767 26.6197L49.9461 28.0175C50.1855 28.2643 50.3195 28.5946 50.3195 28.9384C50.3195 29.2823 50.1855 29.6126 49.9461 29.8594L34.5526 45.5678C34.3208 45.7971 34.008 45.9256 33.682 45.9256C33.356 45.9256 33.0432 45.7971 32.8114 45.5678L24.4311 37.0147C24.1916 36.7679 24.0577 36.4376 24.0577 36.0938C24.0577 35.7499 24.1916 35.4196 24.4311 35.1728L25.8004 33.775C26.0326 33.546 26.3455 33.4176 26.6716 33.4176C26.9977 33.4176 27.3107 33.546 27.5428 33.775L31.2484 37.5572C31.8985 38.1938 32.7721 38.5504 33.682 38.5504C34.5919 38.5504 35.4655 38.1938 36.1156 37.5572Z" fill="#0073C7"/>
<path d="M9.84375 15.3124C9.84387 15.5681 9.93354 15.8156 10.0972 16.012C10.2608 16.2084 10.4881 16.3413 10.7395 16.3876C17.675 17.6651 18.4286 18.4187 19.7083 25.3564C19.7551 25.6073 19.8883 25.8339 20.0846 25.9969C20.281 26.16 20.5282 26.2493 20.7834 26.2493C21.0387 26.2493 21.2859 26.16 21.4822 25.9969C21.6786 25.8339 21.8117 25.6073 21.8586 25.3564C23.1361 18.4209 23.8897 17.6673 30.8273 16.3876C31.0782 16.3407 31.3049 16.2076 31.4679 16.0112C31.631 15.8149 31.7203 15.5677 31.7203 15.3124C31.7203 15.0572 31.631 14.81 31.4679 14.6136C31.3049 14.4173 31.0782 14.2842 30.8273 14.2373C23.8919 12.9598 23.1383 12.2062 21.8586 5.26854C21.8117 5.01764 21.6786 4.79103 21.4822 4.62795C21.2859 4.46488 21.0387 4.37561 20.7834 4.37561C20.5282 4.37561 20.281 4.46488 20.0846 4.62795C19.8883 4.79103 19.7551 5.01764 19.7083 5.26854C18.4308 12.204 17.6772 12.9576 10.7395 14.2373C10.4881 14.2836 10.2608 14.4164 10.0972 14.6129C9.93354 14.8093 9.84387 15.0568 9.84375 15.3124ZM20.7812 10.162C21.1061 11.4 21.7542 12.5294 22.6592 13.4344C23.5643 14.3395 24.6937 14.9876 25.9317 15.3124C24.6937 15.6373 23.5643 16.2854 22.6592 17.1904C21.7542 18.0955 21.1061 19.2249 20.7812 20.4629C20.4564 19.2249 19.8083 18.0955 18.9033 17.1904C17.9982 16.2854 16.8688 15.6373 15.6308 15.3124C16.8688 14.9876 17.9982 14.3395 18.9033 13.4344C19.8083 12.5294 20.4564 11.4 20.7812 10.162Z" fill="#0073C7"/>
<path d="M64.7292 53.6123C57.7938 52.3348 57.0402 51.5812 55.7605 44.6435C55.7136 44.3926 55.5805 44.166 55.3841 44.003C55.1878 43.8399 54.9406 43.7506 54.6853 43.7506C54.4301 43.7506 54.1829 43.8399 53.9865 44.003C53.7902 44.166 53.657 44.3926 53.6102 44.6435C52.3327 51.579 51.5791 52.3326 44.6414 53.6123C44.3905 53.6592 44.1639 53.7923 44.0008 53.9886C43.8377 54.185 43.7485 54.4322 43.7485 54.6874C43.7485 54.9427 43.8377 55.1899 44.0008 55.3862C44.1639 55.5826 44.3905 55.7157 44.6414 55.7626C51.5769 57.0401 52.3305 57.7937 53.6102 64.7314C53.657 64.9823 53.7902 65.2089 53.9865 65.3719C54.1829 65.535 54.4301 65.6243 54.6853 65.6243C54.9406 65.6243 55.1878 65.535 55.3841 65.3719C55.5805 65.2089 55.7136 64.9823 55.7605 64.7314C57.038 57.7959 57.7916 57.0423 64.7292 55.7626C64.9801 55.7157 65.2067 55.5826 65.3698 55.3862C65.5329 55.1899 65.6222 54.9427 65.6222 54.6874C65.6222 54.4322 65.5329 54.185 65.3698 53.9886C65.2067 53.7923 64.9801 53.6592 64.7292 53.6123ZM54.6875 59.8379C54.3627 58.5999 53.7145 57.4705 52.8095 56.5654C51.9045 55.6604 50.7751 55.0123 49.537 54.6874C50.7751 54.3626 51.9045 53.7145 52.8095 52.8094C53.7145 51.9044 54.3627 50.775 54.6875 49.537C55.0123 50.775 55.6605 51.9044 56.5655 52.8094C57.4705 53.7145 58.5999 54.3626 59.838 54.6874C58.5999 55.0123 57.4705 55.6604 56.5655 56.5654C55.6605 57.4705 55.0123 58.5999 54.6875 59.8379Z" fill="#0073C7"/>
</svg>
