<svg width="22" height="12" viewBox="0 0 22 12" fill="none" xmlns="http://www.w3.org/2000/svg">
<path d="M15.0742 10.0742C14.9466 10.2018 14.8646 10.3385 14.8281 10.4844C14.7917 10.6302 14.7917 10.7806 14.8281 10.9355C14.8646 11.0905 14.9466 11.2227 15.0742 11.332C15.1471 11.4049 15.2383 11.4642 15.3477 11.5098C15.457 11.5553 15.5664 11.5781 15.6758 11.5781C15.9128 11.5781 16.1224 11.4961 16.3047 11.332L21.4727 6.02734L16.3047 0.722656C16.1224 0.540365 15.9128 0.449219 15.6758 0.449219C15.4388 0.449219 15.2383 0.540365 15.0742 0.722656C15.0013 0.777344 14.9466 0.836589 14.9102 0.900391C14.8737 0.964193 14.8464 1.03255 14.8281 1.10547C14.8099 1.17839 14.8008 1.2513 14.8008 1.32422C14.8008 1.39714 14.8099 1.47005 14.8281 1.54297C14.8464 1.61589 14.8737 1.6888 14.9102 1.76172C14.9466 1.83464 15.0013 1.89844 15.0742 1.95312L18.2188 5.125H1.375C1.13802 5.125 0.932943 5.20703 0.759766 5.37109C0.586589 5.53516 0.5 5.74023 0.5 5.98633C0.5 6.23242 0.586589 6.44206 0.759766 6.61523C0.932943 6.78841 1.13802 6.875 1.375 6.875H18.2734L15.0742 10.0742Z" fill="white"/>
</svg>
