<svg width="1218" height="292" viewBox="0 0 1218 292" fill="none" xmlns="http://www.w3.org/2000/svg">
<g clip-path="url(#clip0_31_162)">
<rect width="1218" height="292" rx="10" fill="#060D2A"/>
<g opacity="0.1">
<path fill-rule="evenodd" clip-rule="evenodd" d="M993.616 206.329H938.178L921.031 259.107L921.109 259.161L938.178 206.6H993.61L1010.68 259.161L1010.76 259.107L993.616 206.329ZM987.649 214.844L987.643 214.832H944.144L944.138 214.844H987.649ZM965.897 252.116L972.08 247.627L969.714 240.353H962.08L959.707 247.627L965.897 252.116ZM911.681 262.156L932.386 198.362H999.401L1020.11 262.156L965.897 301.575L911.681 262.156Z" fill="white"/>
<path fill-rule="evenodd" clip-rule="evenodd" d="M999.601 198.759H932.181L911.35 262.864L965.888 302.48L1020.44 262.864L999.601 198.759ZM902.298 265.803L926.592 191.064H1005.19L1029.49 265.803L965.888 312L902.298 265.803Z" fill="white"/>
<path fill-rule="evenodd" clip-rule="evenodd" d="M1005.59 190.15H926.203L901.668 265.576L965.894 312.199L1030.12 265.576L1005.59 190.15ZM892.915 268.417L920.805 182.724H1010.99L1038.87 268.417L965.894 321.383L892.915 268.417Z" fill="white"/>
<path fill-rule="evenodd" clip-rule="evenodd" d="M1011.57 181.546H920.214L891.967 268.294L965.891 321.9L1039.81 268.294L1011.57 181.546ZM883.532 271.031L914.996 174.383H1016.79L1048.26 271.031L965.891 330.766L883.532 271.031Z" fill="white"/>
<path fill-rule="evenodd" clip-rule="evenodd" d="M1016.76 172.94H913.998L882.233 271.012L965.375 331.617L1048.52 271.012L1016.76 172.94ZM874.149 273.645L909 166.042H1021.75L1056.6 273.645L965.375 340.149L874.149 273.645Z" fill="white"/>
<path fill-rule="evenodd" clip-rule="evenodd" d="M1022.74 164.338H908.003L872.555 273.724L965.372 341.321L1058.19 273.724L1022.74 164.338ZM864.766 276.255L903.2 157.702H1027.54L1065.98 276.255L965.372 349.532L864.766 276.255Z" fill="white"/>
<path fill-rule="evenodd" clip-rule="evenodd" d="M1028.72 155.738H902.022L862.864 276.433L965.369 351.025L1067.88 276.433L1028.72 155.738ZM855.383 278.866L897.403 149.362H1033.35L1075.36 278.866L965.369 358.915L855.383 278.866Z" fill="white"/>
<path fill-rule="evenodd" clip-rule="evenodd" d="M1034.71 147.132H896.036L853.173 279.153L965.369 360.746L1077.57 279.153L1034.71 147.132ZM846 281.478L891.6 141.021H1039.14L1084.74 281.478L965.369 368.298L846 281.478Z" fill="white"/>
<path fill-rule="evenodd" clip-rule="evenodd" d="M1040.7 139.575H890.049L843.481 282.902L965.369 371.491L1087.26 282.902L1040.7 139.575ZM836.617 285.137L885.798 133.724H1044.94L1094.13 285.137L965.369 378.724L836.617 285.137Z" fill="white"/>
<path fill-rule="evenodd" clip-rule="evenodd" d="M1046.69 130.963H884.064L833.799 285.624L965.372 381.199L1096.95 285.624L1046.69 130.963ZM827.234 287.756L880.004 125.383H1050.74L1103.51 287.756L965.372 388.106L827.234 287.756Z" fill="white"/>
<path fill-rule="evenodd" clip-rule="evenodd" d="M1052.67 122.369H878.074L824.106 288.339L965.372 390.907L1106.64 288.339L1052.67 122.369ZM817.851 290.368L874.205 117.042H1056.54L1112.89 290.368L965.372 397.489L817.851 290.368Z" fill="white"/>
<path fill-rule="evenodd" clip-rule="evenodd" d="M1058.66 113.764H872.081L814.412 291.045L965.372 400.615L1116.33 291.045L1058.66 113.764ZM808.468 292.979L868.409 108.702H1062.33L1122.28 292.979L965.372 406.872L808.468 292.979Z" fill="white"/>
<path fill-rule="evenodd" clip-rule="evenodd" d="M1064.65 105.147H866.103L804.73 293.759L965.372 410.329L1126.03 293.759L1064.65 105.147ZM799.085 295.596L862.616 100.362H1068.13L1131.66 295.596L965.372 416.255L799.085 295.596Z" fill="white"/>
<path fill-rule="evenodd" clip-rule="evenodd" d="M1070.63 96.5544H860.111L795.041 296.474L965.369 420.037L1135.7 296.474L1070.63 96.5544ZM789.702 298.203L856.81 92.0215H1073.93L1141.04 298.203L965.369 425.639L789.702 298.203Z" fill="white"/>
<path fill-rule="evenodd" clip-rule="evenodd" d="M1076.63 87.9491H854.123L785.347 299.195L965.375 429.75L1145.4 299.195L1076.63 87.9491ZM781.576 301.729L780.319 300.816L851.014 83.6807H1079.74L1150.43 300.816L965.375 435.021L781.576 301.729Z" fill="white"/>
<path fill-rule="evenodd" clip-rule="evenodd" d="M1082.61 79.3503H848.132L775.652 301.898L965.369 439.452L1155.09 301.898L1082.61 79.3503ZM770.936 303.435L845.209 75.3403H1085.52L1159.81 303.435L965.369 444.404L770.936 303.435Z" fill="white"/>
<path fill-rule="evenodd" clip-rule="evenodd" d="M1088.6 71.7821H842.142L765.963 305.662L965.372 450.202L1164.78 305.662L1088.6 71.7821ZM761.553 307.085L839.411 68.0425H1091.33L1169.19 307.085L965.372 454.83L761.553 307.085Z" fill="white"/>
<path fill-rule="evenodd" clip-rule="evenodd" d="M1094.79 63.1772H836.994L757.312 308.374L965.891 459.909L1174.48 308.374L1094.79 63.1772ZM753.213 309.701L834.467 59.7021H1097.32L1178.57 309.701L965.891 464.213L753.213 309.701Z" fill="white"/>
<path fill-rule="evenodd" clip-rule="evenodd" d="M1100.78 54.5847H831L747.612 311.083L965.891 469.617L1184.18 311.083L1100.78 54.5847ZM744.772 313.004L743.83 312.314L828.67 51.3618H1103.12L1187.96 312.314L965.891 473.596L744.772 313.004Z" fill="white"/>
<path fill-rule="evenodd" clip-rule="evenodd" d="M1106.77 45.9743H825.02L737.935 313.797L965.894 479.324L1193.86 313.797L1106.77 45.9743ZM734.447 314.925L822.87 43.0215H1108.92L1197.34 314.925L965.894 482.979L734.447 314.925Z" fill="white"/>
<path fill-rule="evenodd" clip-rule="evenodd" d="M1203.55 316.514L1112.76 37.3751H819.032L728.235 316.514L965.894 489.037L1203.55 316.514ZM725.857 318.123L725.064 317.547L816.762 35.6108L817.068 34.6807H1114.72L1206.72 317.547L966.686 491.791L965.894 492.362L725.857 318.123Z" fill="white"/>
<path fill-rule="evenodd" clip-rule="evenodd" d="M1118.75 28.7707H813.036L718.546 319.221L965.897 498.738L1213.24 319.221L1118.75 28.7707ZM715.681 320.157L811.27 26.3403H1120.52L1216.11 320.157L965.897 501.745L715.681 320.157Z" fill="white"/>
<path fill-rule="evenodd" clip-rule="evenodd" d="M1124.73 20.1663H807.047L708.845 321.945L965.894 508.451L1222.94 321.945L1124.73 20.1663ZM706.935 323.235L706.298 322.779L805.22 18.7501L805.467 18H1126.32L1225.24 322.029L1225.49 322.779L965.894 511.128L706.935 323.235Z" fill="white"/>
<path fill-rule="evenodd" clip-rule="evenodd" d="M1130.73 12.6042H801.057L699.156 325.694L965.891 519.195L1232.63 325.694L1130.73 12.6042ZM697.474 326.828L696.915 326.42L799.453 11.3622L799.675 10.7021H1132.11L1234.66 325.76L1234.87 326.42L965.891 521.553L697.474 326.828Z" fill="white"/>
<path fill-rule="evenodd" clip-rule="evenodd" d="M1242.31 328.411L1136.72 4.01779H795.077L689.479 328.411L965.894 528.902L1242.31 328.411ZM688.025 329.389L687.532 329.035L793.695 2.93782L793.881 2.36182H1137.91L1244.07 328.465L1244.26 329.035L966.38 530.576L965.894 530.936L688.025 329.389Z" fill="white"/>
<path fill-rule="evenodd" clip-rule="evenodd" d="M1142.71 -4.59257H789.082L679.778 331.124L965.891 538.615L1252 331.124L1142.71 -4.59257ZM678.552 331.952L678.149 331.652L787.921 -5.49252L788.072 -5.97852H1143.71L1253.49 331.178L1253.64 331.652L965.891 540.319L678.552 331.952Z" fill="white"/>
<path fill-rule="evenodd" clip-rule="evenodd" d="M1261.7 333.838L1148.7 -13.1974H783.098L670.089 333.838L965.894 548.31L1261.7 333.838ZM669.103 334.504L668.766 334.258L782.154 -13.9354L782.28 -14.3193H1149.51L1262.9 333.874L1263.02 334.258L966.23 549.456L965.894 549.702L669.103 334.504Z" fill="white"/>
<path fill-rule="evenodd" clip-rule="evenodd" d="M1271.38 337.19L1154.68 -21.8061H777.107L660.399 337.19L965.888 559.058L1271.38 337.19ZM659.642 337.7L659.383 337.52L776.481 -22.6597H1155.31L1272.4 337.52L966.14 559.941L965.888 560.128L659.642 337.7Z" fill="white"/>
<path fill-rule="evenodd" clip-rule="evenodd" d="M770.679 -31L770.613 -30.7897L650 340.129L650.18 340.261L965.894 569.511L966.068 569.378L1281.79 340.129L1281.73 339.924L1161.11 -31H770.679ZM650.704 339.901L771.124 -30.4049H1160.67L1281.08 339.901L965.894 568.76L650.704 339.901Z" fill="white"/>
</g>
<g opacity="0.6" clip-path="url(#clip1_31_162)">
<path style="mix-blend-mode:color-dodge" d="M180.582 278.217C167.456 278.217 156.81 267.532 156.81 254.357C156.81 241.182 167.456 230.497 180.582 230.497C193.708 230.497 204.354 241.182 204.354 254.357C204.354 267.532 193.712 278.217 180.582 278.217Z" fill="url(#paint0_radial_31_162)"/>
<path style="mix-blend-mode:color-dodge" d="M211.875 194.447C204.724 194.447 198.929 188.63 198.929 181.453C198.929 174.277 204.727 168.459 211.875 168.459C219.022 168.459 224.824 174.277 224.824 181.453C224.824 188.63 219.026 194.447 211.875 194.447Z" fill="url(#paint1_radial_31_162)"/>
<path style="mix-blend-mode:color-dodge" d="M50.1243 75.681C45.7094 75.681 42.1339 72.0909 42.1339 67.6587C42.1339 63.2264 45.7094 59.6362 50.1243 59.6362C54.5392 59.6362 58.1185 63.2264 58.1185 67.6587C58.1185 72.0909 54.5392 75.681 50.1243 75.681Z" fill="url(#paint2_radial_31_162)"/>
<path style="mix-blend-mode:color-dodge" d="M156.378 235.365C149.227 235.365 143.429 229.547 143.429 222.371C143.429 215.194 149.227 209.373 156.378 209.373C163.529 209.373 169.327 215.19 169.327 222.371C169.327 229.551 163.529 235.365 156.378 235.365Z" fill="url(#paint3_radial_31_162)"/>
<path style="mix-blend-mode:color-dodge" d="M176.293 72.874C173.716 72.874 171.623 70.776 171.623 68.1868C171.623 65.5977 173.712 63.5034 176.293 63.5034C178.874 63.5034 180.963 65.6014 180.963 68.1868C180.963 70.7723 178.874 72.874 176.293 72.874Z" fill="url(#paint4_radial_31_162)"/>
<path style="mix-blend-mode:color-dodge" d="M119.276 80.0989C116.699 80.0989 114.61 78.0009 114.61 75.4117C114.61 72.8226 116.699 70.7246 119.276 70.7246C121.853 70.7246 123.946 72.8226 123.946 75.4117C123.946 78.0009 121.853 80.0989 119.276 80.0989Z" fill="url(#paint5_radial_31_162)"/>
<path style="mix-blend-mode:color-dodge" d="M429.691 92.8157C427.11 92.8157 425.021 90.7177 425.021 88.1285C425.021 85.5393 427.11 83.4414 429.691 83.4414C432.272 83.4414 434.361 85.5393 434.361 88.1285C434.361 90.7177 432.268 92.8157 429.691 92.8157Z" fill="url(#paint6_radial_31_162)"/>
<path style="mix-blend-mode:color-dodge" d="M325.024 75.4114C322.447 75.4114 320.354 73.3134 320.354 70.7242C320.354 68.1351 322.443 66.0371 325.024 66.0371C327.605 66.0371 329.694 68.1351 329.694 70.7242C329.694 73.3134 327.605 75.4114 325.024 75.4114Z" fill="url(#paint7_radial_31_162)"/>
<path style="mix-blend-mode:color-dodge" d="M451.703 213.776C450.516 213.776 449.558 212.812 449.558 211.623C449.558 210.433 450.516 209.469 451.703 209.469C452.89 209.469 453.848 210.433 453.848 211.623C453.848 212.812 452.886 213.776 451.703 213.776Z" fill="url(#paint8_radial_31_162)"/>
<path style="mix-blend-mode:color-dodge" d="M363.834 180.874C362.65 180.874 361.689 179.91 361.689 178.724C361.689 177.538 362.65 176.571 363.834 176.571C365.017 176.571 365.978 177.535 365.978 178.724C365.978 179.913 365.017 180.874 363.834 180.874Z" fill="url(#paint9_radial_31_162)"/>
<path style="mix-blend-mode:color-dodge" d="M444.267 46.3838C443.084 46.3838 442.122 45.4198 442.122 44.2305C442.122 43.0412 443.084 42.0771 444.267 42.0771C445.45 42.0771 446.412 43.0412 446.412 44.2305C446.412 45.4198 445.45 46.3838 444.267 46.3838Z" fill="url(#paint10_radial_31_162)"/>
<path style="mix-blend-mode:color-dodge" d="M564.287 44.585C563.103 44.585 562.142 43.621 562.142 42.4316C562.142 41.2423 563.103 40.2783 564.287 40.2783C565.47 40.2783 566.431 41.2423 566.431 42.4316C566.431 43.621 565.47 44.585 564.287 44.585Z" fill="url(#paint11_radial_31_162)"/>
<path style="mix-blend-mode:color-dodge" d="M394.387 116.392C393.204 116.392 392.242 115.428 392.242 114.238C392.242 113.049 393.204 112.085 394.387 112.085C395.57 112.085 396.531 113.049 396.531 114.238C396.531 115.428 395.57 116.392 394.387 116.392Z" fill="url(#paint12_radial_31_162)"/>
<path style="mix-blend-mode:color-dodge" d="M340.935 95.7334C339.751 95.7334 338.79 94.7694 338.79 93.5801C338.79 92.3908 339.751 91.4268 340.935 91.4268C342.118 91.4268 343.079 92.3908 343.079 93.5801C343.079 94.7694 342.118 95.7334 340.935 95.7334Z" fill="url(#paint13_radial_31_162)"/>
<path style="mix-blend-mode:color-dodge" d="M315.447 190.569C314.264 190.569 313.303 189.605 313.303 188.416C313.303 187.227 314.26 186.263 315.447 186.263C316.634 186.263 317.592 187.227 317.592 188.416C317.592 189.605 316.634 190.569 315.447 190.569Z" fill="url(#paint14_radial_31_162)"/>
<path style="mix-blend-mode:color-dodge" d="M275.258 149.312C274.075 149.312 273.114 148.348 273.114 147.159C273.114 145.969 274.075 145.005 275.258 145.005C276.442 145.005 277.403 145.969 277.403 147.159C277.403 148.348 276.445 149.312 275.258 149.312Z" fill="url(#paint15_radial_31_162)"/>
<path style="mix-blend-mode:color-dodge" d="M238.031 156.548C236.844 156.548 235.887 155.584 235.887 154.395C235.887 153.205 236.844 152.241 238.031 152.241C239.218 152.241 240.176 153.205 240.176 154.395C240.176 155.584 239.215 156.548 238.031 156.548Z" fill="url(#paint16_radial_31_162)"/>
<path style="mix-blend-mode:color-dodge" d="M190.011 83.6814C188.828 83.6814 187.866 82.7174 187.866 81.5318C187.866 80.3461 188.824 79.3784 190.011 79.3784C191.198 79.3784 192.155 80.3424 192.155 81.5318C192.155 82.7211 191.194 83.6814 190.011 83.6814Z" fill="url(#paint17_radial_31_162)"/>
<path style="mix-blend-mode:color-dodge" d="M185.722 54.4209C184.538 54.4209 183.577 53.4569 183.577 52.2676C183.577 51.0783 184.535 50.1143 185.722 50.1143C186.909 50.1143 187.866 51.0783 187.866 52.2676C187.866 53.4569 186.905 54.4209 185.722 54.4209Z" fill="url(#paint18_radial_31_162)"/>
<path style="mix-blend-mode:color-dodge" d="M65.0255 108.288C63.8423 108.288 62.881 107.324 62.881 106.138C62.881 104.953 63.8423 103.985 65.0255 103.985C66.2087 103.985 67.1701 104.949 67.1701 106.138C67.1701 107.328 66.2087 108.288 65.0255 108.288Z" fill="url(#paint19_radial_31_162)"/>
<path style="mix-blend-mode:color-dodge" d="M73.5965 224.302C72.4133 224.302 71.4519 223.338 71.4519 222.149C71.4519 220.96 72.4133 219.996 73.5965 219.996C74.7797 219.996 75.741 220.96 75.741 222.149C75.741 223.338 74.7797 224.302 73.5965 224.302Z" fill="url(#paint20_radial_31_162)"/>
<path style="mix-blend-mode:color-dodge" d="M141.284 8.42533C140.101 8.42533 139.14 7.46133 139.14 6.272C139.14 5.08268 140.101 4.11865 141.284 4.11865C142.467 4.11865 143.429 5.08268 143.429 6.272C143.429 7.46133 142.467 8.42533 141.284 8.42533Z" fill="url(#paint21_radial_31_162)"/>
<path style="mix-blend-mode:color-dodge" d="M348.652 175.777C347.468 175.777 346.507 174.816 346.507 173.623C346.507 172.43 347.468 171.474 348.652 171.474C349.835 171.474 350.796 172.438 350.796 173.623C350.796 174.809 349.835 175.777 348.652 175.777Z" fill="url(#paint22_radial_31_162)"/>
<path style="mix-blend-mode:color-dodge" d="M342.366 39.7872C341.182 39.7872 340.221 38.8231 340.221 37.6338C340.221 36.4445 341.182 35.4805 342.366 35.4805C343.549 35.4805 344.51 36.4445 344.51 37.6338C344.51 38.8231 343.549 39.7872 342.366 39.7872Z" fill="url(#paint23_radial_31_162)"/>
<path style="mix-blend-mode:color-dodge" d="M271.476 38.0657C270.289 38.0657 269.331 37.1017 269.331 35.916C269.331 34.7304 270.293 33.7627 271.476 33.7627C272.659 33.7627 273.62 34.7267 273.62 35.916C273.62 37.1054 272.659 38.0657 271.476 38.0657Z" fill="url(#paint24_radial_31_162)"/>
<path style="mix-blend-mode:color-dodge" d="M219.451 36.3448C218.268 36.3448 217.306 35.3807 217.306 34.1914C217.306 33.0021 218.268 32.0381 219.451 32.0381C220.634 32.0381 221.596 33.0021 221.596 34.1914C221.596 35.3807 220.634 36.3448 219.451 36.3448Z" fill="url(#paint25_radial_31_162)"/>
<path style="mix-blend-mode:color-dodge" d="M136.511 83.6851C137.695 83.6851 138.655 82.721 138.655 81.5318C138.655 80.3425 137.695 79.3784 136.511 79.3784C135.326 79.3784 134.366 80.3425 134.366 81.5318C134.366 82.721 135.326 83.6851 136.511 83.6851Z" fill="url(#paint26_radial_31_162)"/>
<path style="mix-blend-mode:color-dodge" d="M112.465 74.9314C111.282 74.9314 110.321 73.9674 110.321 72.7818C110.321 71.5961 111.278 70.6284 112.465 70.6284C113.652 70.6284 114.61 71.5924 114.61 72.7818C114.61 73.9711 113.649 74.9314 112.465 74.9314Z" fill="url(#paint27_radial_31_162)"/>
<path style="mix-blend-mode:color-dodge" d="M296.342 77.6573C295.159 77.6573 294.197 76.6933 294.197 75.5039C294.197 74.3146 295.159 73.3506 296.342 73.3506C297.525 73.3506 298.487 74.3146 298.487 75.5039C298.487 76.6933 297.525 77.6573 296.342 77.6573Z" fill="url(#paint28_radial_31_162)"/>
<path style="mix-blend-mode:color-dodge" d="M425.021 116.388C423.838 116.388 422.877 115.424 422.877 114.234C422.877 113.045 423.838 112.081 425.021 112.081C426.204 112.081 427.166 113.045 427.166 114.234C427.166 115.424 426.208 116.388 425.021 116.388Z" fill="url(#paint29_radial_31_162)"/>
<path style="mix-blend-mode:color-dodge" d="M551.6 121.411C550.417 121.411 549.456 120.451 549.456 119.258C549.456 118.065 550.417 117.104 551.6 117.104C552.783 117.104 553.745 118.068 553.745 119.258C553.745 120.447 552.783 121.411 551.6 121.411Z" fill="url(#paint30_radial_31_162)"/>
<path style="mix-blend-mode:color-dodge" d="M623.344 147.517C622.161 147.517 621.2 146.553 621.2 145.364C621.2 144.174 622.161 143.21 623.344 143.21C624.527 143.21 625.489 144.174 625.489 145.364C625.489 146.553 624.527 147.517 623.344 147.517Z" fill="url(#paint31_radial_31_162)"/>
<path style="mix-blend-mode:color-dodge" d="M564.287 68.1905C565.471 68.1905 566.431 67.2264 566.431 66.0371C566.431 64.8479 565.471 63.8838 564.287 63.8838C563.102 63.8838 562.142 64.8479 562.142 66.0371C562.142 67.2264 563.102 68.1905 564.287 68.1905Z" fill="url(#paint32_radial_31_162)"/>
<path style="mix-blend-mode:color-dodge" d="M444.888 30.9411C442.307 30.9411 440.218 28.8432 440.218 26.254C440.218 23.6648 442.307 21.5669 444.888 21.5669C447.469 21.5669 449.558 23.6648 449.558 26.254C449.558 28.8432 447.465 30.9411 444.888 30.9411Z" fill="url(#paint33_radial_31_162)"/>
<path style="mix-blend-mode:color-dodge" d="M418.207 39.3586C415.629 39.3586 413.54 37.2607 413.54 34.6715C413.54 32.0823 415.629 29.9844 418.207 29.9844C420.784 29.9844 422.877 32.0823 422.877 34.6715C422.877 37.2607 420.787 39.3586 418.207 39.3586Z" fill="url(#paint34_radial_31_162)"/>
<path style="mix-blend-mode:color-dodge" d="M605.814 185.199C603.237 185.199 601.144 183.101 601.144 180.512C601.144 177.923 603.237 175.825 605.814 175.825C608.391 175.825 610.48 177.923 610.48 180.512C610.48 183.101 608.391 185.199 605.814 185.199Z" fill="url(#paint35_radial_31_162)"/>
<path style="mix-blend-mode:color-dodge" d="M597.739 139.717C595.161 139.717 593.069 137.619 593.069 135.029C593.069 132.44 595.161 130.342 597.739 130.342C600.316 130.342 602.409 132.44 602.409 135.029C602.409 137.619 600.319 139.717 597.739 139.717Z" fill="url(#paint36_radial_31_162)"/>
<path style="mix-blend-mode:color-dodge" d="M654.33 129.962C651.753 129.962 649.66 127.864 649.66 125.275C649.66 122.685 651.753 120.587 654.33 120.587C656.907 120.587 659 122.685 659 125.275C659 127.864 656.911 129.962 654.33 129.962Z" fill="url(#paint37_radial_31_162)"/>
<path style="mix-blend-mode:color-dodge" d="M281.578 30.8858C277.17 29.8442 274.441 25.4156 275.477 20.9944C276.516 16.5732 280.927 13.8326 285.331 14.8705C289.738 15.9121 292.467 20.3406 291.432 24.7618C290.396 29.183 285.985 31.9273 281.578 30.8858Z" fill="url(#paint38_radial_31_162)"/>
<path style="mix-blend-mode:color-dodge" d="M528.161 105.916C523.754 104.879 521.025 100.45 522.06 96.0252C523.099 91.604 527.511 88.8633 531.914 89.9012C536.322 90.9428 539.051 95.3714 538.012 99.7926C536.976 104.214 532.565 106.954 528.158 105.913L528.161 105.916Z" fill="url(#paint39_radial_31_162)"/>
</g>
</g>
<defs>
<radialGradient id="paint0_radial_31_162" cx="0" cy="0" r="1" gradientUnits="userSpaceOnUse" gradientTransform="translate(179.947 253.623) rotate(90) scale(23.8775 23.7824)">
<stop offset="0.02" stop-color="#00FFFF"/>
<stop offset="0.88"/>
</radialGradient>
<radialGradient id="paint1_radial_31_162" cx="0" cy="0" r="1" gradientUnits="userSpaceOnUse" gradientTransform="translate(211.243 180.678) rotate(90) scale(13.0102 12.9583)">
<stop offset="0.02" stop-color="#00FFFF"/>
<stop offset="0.88"/>
</radialGradient>
<radialGradient id="paint2_radial_31_162" cx="0" cy="0" r="1" gradientUnits="userSpaceOnUse" gradientTransform="translate(49.4703 66.823) rotate(90) scale(8.02477 7.99278)">
<stop offset="0.02" stop-color="#00FFFF"/>
<stop offset="0.88"/>
</radialGradient>
<radialGradient id="paint3_radial_31_162" cx="0" cy="0" r="1" gradientUnits="userSpaceOnUse" gradientTransform="translate(155.729 221.611) rotate(90) scale(13.0102 12.9583)">
<stop offset="0.02" stop-color="#00FFFF"/>
<stop offset="0.88"/>
</radialGradient>
<radialGradient id="paint4_radial_31_162" cx="0" cy="0" r="1" gradientUnits="userSpaceOnUse" gradientTransform="translate(175.656 67.3478) rotate(90) scale(4.67929 4.66065)">
<stop offset="0.02" stop-color="#00FFFF"/>
<stop offset="0.88"/>
</radialGradient>
<radialGradient id="paint5_radial_31_162" cx="0" cy="0" r="1" gradientUnits="userSpaceOnUse" gradientTransform="translate(118.639 74.5857) rotate(90) scale(4.6793 4.66064)">
<stop offset="0.02" stop-color="#00FFFF"/>
<stop offset="0.88"/>
</radialGradient>
<radialGradient id="paint6_radial_31_162" cx="0" cy="0" r="1" gradientUnits="userSpaceOnUse" gradientTransform="translate(429.117 87.3115) rotate(90) scale(4.6793 4.66065)">
<stop offset="0.02" stop-color="#00FFFF"/>
<stop offset="0.88"/>
</radialGradient>
<radialGradient id="paint7_radial_31_162" cx="0" cy="0" r="1" gradientUnits="userSpaceOnUse" gradientTransform="translate(324.426 69.8842) rotate(90) scale(4.6793 4.66065)">
<stop offset="0.02" stop-color="#00FFFF"/>
<stop offset="0.88"/>
</radialGradient>
<radialGradient id="paint8_radial_31_162" cx="0" cy="0" r="1" gradientUnits="userSpaceOnUse" gradientTransform="translate(451.135 210.854) rotate(90) scale(2.14284 2.13433)">
<stop offset="0.02" stop-color="#00FFFF"/>
<stop offset="0.88"/>
</radialGradient>
<radialGradient id="paint9_radial_31_162" cx="0" cy="0" r="1" gradientUnits="userSpaceOnUse" gradientTransform="translate(363.236 177.946) rotate(90) scale(2.14285 2.13431)">
<stop offset="0.02" stop-color="#00FFFF"/>
<stop offset="0.88"/>
</radialGradient>
<radialGradient id="paint10_radial_31_162" cx="0" cy="0" r="1" gradientUnits="userSpaceOnUse" gradientTransform="translate(443.708 43.3829) rotate(90) scale(2.14285 2.13429)">
<stop offset="0.02" stop-color="#00FFFF"/>
<stop offset="0.88"/>
</radialGradient>
<radialGradient id="paint11_radial_31_162" cx="0" cy="0" r="1" gradientUnits="userSpaceOnUse" gradientTransform="translate(563.753 41.5898) rotate(90) scale(2.14285 2.13433)">
<stop offset="0.02" stop-color="#00FFFF"/>
<stop offset="0.88"/>
</radialGradient>
<radialGradient id="paint12_radial_31_162" cx="0" cy="0" r="1" gradientUnits="userSpaceOnUse" gradientTransform="translate(393.813 113.419) rotate(90) scale(2.14286 2.13433)">
<stop offset="0.02" stop-color="#00FFFF"/>
<stop offset="0.88"/>
</radialGradient>
<radialGradient id="paint13_radial_31_162" cx="0" cy="0" r="1" gradientUnits="userSpaceOnUse" gradientTransform="translate(340.347 92.756) rotate(90) scale(2.14285 2.13431)">
<stop offset="0.02" stop-color="#00FFFF"/>
<stop offset="0.88"/>
</radialGradient>
<radialGradient id="paint14_radial_31_162" cx="0" cy="0" r="1" gradientUnits="userSpaceOnUse" gradientTransform="translate(314.844 187.654) rotate(90) scale(2.14285 2.13431)">
<stop offset="0.02" stop-color="#00FFFF"/>
<stop offset="0.88"/>
</radialGradient>
<radialGradient id="paint15_radial_31_162" cx="0" cy="0" r="1" gradientUnits="userSpaceOnUse" gradientTransform="translate(274.64 146.371) rotate(90) scale(2.14285 2.13431)">
<stop offset="0.02" stop-color="#00FFFF"/>
<stop offset="0.88"/>
</radialGradient>
<radialGradient id="paint16_radial_31_162" cx="0" cy="0" r="1" gradientUnits="userSpaceOnUse" gradientTransform="translate(237.421 153.609) rotate(90) scale(2.14285 2.13431)">
<stop offset="0.02" stop-color="#00FFFF"/>
<stop offset="0.88"/>
</radialGradient>
<radialGradient id="paint17_radial_31_162" cx="0" cy="0" r="1" gradientUnits="userSpaceOnUse" gradientTransform="translate(189.377 80.7079) rotate(90) scale(2.14285 2.13433)">
<stop offset="0.02" stop-color="#00FFFF"/>
<stop offset="0.88"/>
</radialGradient>
<radialGradient id="paint18_radial_31_162" cx="0" cy="0" r="1" gradientUnits="userSpaceOnUse" gradientTransform="translate(185.086 51.4295) rotate(90) scale(2.14285 2.13431)">
<stop offset="0.02" stop-color="#00FFFF"/>
<stop offset="0.88"/>
</radialGradient>
<radialGradient id="paint19_radial_31_162" cx="0" cy="0" r="1" gradientUnits="userSpaceOnUse" gradientTransform="translate(64.367 105.329) rotate(90) scale(2.14286 2.13431)">
<stop offset="0.02" stop-color="#00FFFF"/>
<stop offset="0.88"/>
</radialGradient>
<radialGradient id="paint20_radial_31_162" cx="0" cy="0" r="1" gradientUnits="userSpaceOnUse" gradientTransform="translate(72.9478 221.393) rotate(90) scale(2.14284 2.13431)">
<stop offset="0.02" stop-color="#00FFFF"/>
<stop offset="0.88"/>
</radialGradient>
<radialGradient id="paint21_radial_31_162" cx="0" cy="0" r="1" gradientUnits="userSpaceOnUse" gradientTransform="translate(140.636 5.40209) rotate(90) scale(2.14285 2.13431)">
<stop offset="0.02" stop-color="#00FFFF"/>
<stop offset="0.88"/>
</radialGradient>
<radialGradient id="paint22_radial_31_162" cx="0" cy="0" r="1" gradientUnits="userSpaceOnUse" gradientTransform="translate(348.056 172.851) rotate(90) scale(2.14286 2.13431)">
<stop offset="0.02" stop-color="#00FFFF"/>
<stop offset="0.88"/>
</radialGradient>
<radialGradient id="paint23_radial_31_162" cx="0" cy="0" r="1" gradientUnits="userSpaceOnUse" gradientTransform="translate(341.762 36.7794) rotate(90) scale(2.14286 2.13431)">
<stop offset="0.02" stop-color="#00FFFF"/>
<stop offset="0.88"/>
</radialGradient>
<radialGradient id="paint24_radial_31_162" cx="0" cy="0" r="1" gradientUnits="userSpaceOnUse" gradientTransform="translate(270.873 35.0517) rotate(90) scale(2.14285 2.13431)">
<stop offset="0.02" stop-color="#00FFFF"/>
<stop offset="0.88"/>
</radialGradient>
<radialGradient id="paint25_radial_31_162" cx="0" cy="0" r="1" gradientUnits="userSpaceOnUse" gradientTransform="translate(218.822 33.3465) rotate(90) scale(2.14285 2.13431)">
<stop offset="0.02" stop-color="#00FFFF"/>
<stop offset="0.88"/>
</radialGradient>
<radialGradient id="paint26_radial_31_162" cx="0" cy="0" r="1" gradientUnits="userSpaceOnUse" gradientTransform="translate(135.866 80.7079) rotate(90) scale(2.14285 2.13431)">
<stop offset="0.02" stop-color="#00FFFF"/>
<stop offset="0.88"/>
</radialGradient>
<radialGradient id="paint27_radial_31_162" cx="0" cy="0" r="1" gradientUnits="userSpaceOnUse" gradientTransform="translate(111.823 71.9398) rotate(90) scale(2.14286 2.13431)">
<stop offset="0.02" stop-color="#00FFFF"/>
<stop offset="0.88"/>
</radialGradient>
<radialGradient id="paint28_radial_31_162" cx="0" cy="0" r="1" gradientUnits="userSpaceOnUse" gradientTransform="translate(295.744 74.673) rotate(90) scale(2.14285 2.13431)">
<stop offset="0.02" stop-color="#00FFFF"/>
<stop offset="0.88"/>
</radialGradient>
<radialGradient id="paint29_radial_31_162" cx="0" cy="0" r="1" gradientUnits="userSpaceOnUse" gradientTransform="translate(424.456 113.419) rotate(90) scale(2.14286 2.13433)">
<stop offset="0.02" stop-color="#00FFFF"/>
<stop offset="0.88"/>
</radialGradient>
<radialGradient id="paint30_radial_31_162" cx="0" cy="0" r="1" gradientUnits="userSpaceOnUse" gradientTransform="translate(551.056 118.449) rotate(90) scale(2.14285 2.13429)">
<stop offset="0.02" stop-color="#00FFFF"/>
<stop offset="0.88"/>
</radialGradient>
<radialGradient id="paint31_radial_31_162" cx="0" cy="0" r="1" gradientUnits="userSpaceOnUse" gradientTransform="translate(622.817 144.578) rotate(90) scale(2.14285 2.13433)">
<stop offset="0.02" stop-color="#00FFFF"/>
<stop offset="0.88"/>
</radialGradient>
<radialGradient id="paint32_radial_31_162" cx="0" cy="0" r="1" gradientUnits="userSpaceOnUse" gradientTransform="translate(563.753 65.2049) rotate(90) scale(2.14286 2.13433)">
<stop offset="0.02" stop-color="#00FFFF"/>
<stop offset="0.88"/>
</radialGradient>
<radialGradient id="paint33_radial_31_162" cx="0" cy="0" r="1" gradientUnits="userSpaceOnUse" gradientTransform="translate(444.318 25.3874) rotate(90) scale(4.6793 4.66065)">
<stop offset="0.02" stop-color="#00FFFF"/>
<stop offset="0.88"/>
</radialGradient>
<radialGradient id="paint34_radial_31_162" cx="0" cy="0" r="1" gradientUnits="userSpaceOnUse" gradientTransform="translate(417.639 33.8274) rotate(90) scale(4.67928 4.66064)">
<stop offset="0.02" stop-color="#00FFFF"/>
<stop offset="0.88"/>
</radialGradient>
<radialGradient id="paint35_radial_31_162" cx="0" cy="0" r="1" gradientUnits="userSpaceOnUse" gradientTransform="translate(605.285 179.739) rotate(90) scale(4.6793 4.66064)">
<stop offset="0.02" stop-color="#00FFFF"/>
<stop offset="0.88"/>
</radialGradient>
<radialGradient id="paint36_radial_31_162" cx="0" cy="0" r="1" gradientUnits="userSpaceOnUse" gradientTransform="translate(597.205 134.236) rotate(90) scale(4.6793 4.66065)">
<stop offset="0.02" stop-color="#00FFFF"/>
<stop offset="0.88"/>
</radialGradient>
<radialGradient id="paint37_radial_31_162" cx="0" cy="0" r="1" gradientUnits="userSpaceOnUse" gradientTransform="translate(653.808 124.462) rotate(90) scale(4.6793 4.66065)">
<stop offset="0.02" stop-color="#00FFFF"/>
<stop offset="0.88"/>
</radialGradient>
<radialGradient id="paint38_radial_31_162" cx="0" cy="0" r="1" gradientUnits="userSpaceOnUse" gradientTransform="translate(282.885 25.2532) rotate(103.194) scale(8.22204 8.18834)">
<stop offset="0.02" stop-color="#00FFFF"/>
<stop offset="0.88"/>
</radialGradient>
<radialGradient id="paint39_radial_31_162" cx="0" cy="0" r="1" gradientUnits="userSpaceOnUse" gradientTransform="translate(529.604 99.7651) rotate(103.194) scale(8.22202 8.18831)">
<stop offset="0.02" stop-color="#00FFFF"/>
<stop offset="0.88"/>
</radialGradient>
<clipPath id="clip0_31_162">
<rect width="1218" height="292" fill="white"/>
</clipPath>
<clipPath id="clip1_31_162">
<rect width="1041" height="658" fill="white" transform="translate(-382 -190)"/>
</clipPath>
</defs>
</svg>
