<svg width="65" height="65" viewBox="0 0 65 65" fill="none" xmlns="http://www.w3.org/2000/svg">
<path d="M47.3958 37.9166C47.9998 37.9166 48.5794 37.8246 49.1563 37.7406C48.9694 38.3689 48.7771 39.0081 48.4683 39.5823C48.1596 40.4164 47.6775 41.1396 47.1981 41.8681C46.7973 42.6562 46.0904 43.1898 45.5704 43.8641C45.026 44.5196 44.284 44.9556 43.6963 45.5C43.1194 46.0687 42.3638 46.3531 41.7625 46.7539C41.1342 47.1141 40.5871 47.5123 40.0021 47.7018L38.5423 48.3031L37.2586 48.8366L38.5721 54.0854L40.189 53.6954C40.7063 53.5654 41.3373 53.4137 42.055 53.2323C42.789 53.0968 43.5717 52.7258 44.4438 52.3873C45.305 52.0027 46.3017 51.7427 47.2279 51.1252C48.1596 50.5348 49.2348 50.0418 50.1827 49.251C51.1008 48.4358 52.2085 47.7289 53.0265 46.6916C53.9202 45.7221 54.8031 44.7037 55.4883 43.5446C56.2819 42.4396 56.8208 41.2262 57.3896 40.0264C57.9042 38.8266 58.3185 37.5998 58.6571 36.4081C59.299 34.0193 59.586 31.7498 59.6971 29.8079C59.7892 27.8633 59.735 26.2464 59.6213 25.0764C59.5806 24.5239 59.5048 23.9877 59.4506 23.6166L59.3829 23.1616L59.3125 23.1779C58.8308 20.9277 57.7219 18.8599 56.1141 17.2137C54.5062 15.5674 52.4652 14.41 50.227 13.8752C47.9889 13.3405 45.645 13.4504 43.4667 14.1921C41.2884 14.9338 39.3645 16.2771 37.9177 18.0665C36.4709 19.8559 35.5603 22.0184 35.2912 24.3038C35.022 26.5891 35.4054 28.904 36.3969 30.9805C37.3885 33.0571 38.9476 34.8105 40.8941 36.038C42.8405 37.2655 45.0947 37.9168 47.3958 37.9166ZM17.6042 37.9166C18.2081 37.9166 18.7877 37.8246 19.3646 37.7406C19.1777 38.3689 18.9854 39.0081 18.6767 39.5823C18.3679 40.4164 17.8858 41.1396 17.4065 41.8681C17.0056 42.6562 16.2988 43.1898 15.7788 43.8641C15.2344 44.5196 14.4923 44.9556 13.9046 45.5C13.3277 46.0687 12.5721 46.3531 11.9708 46.7539C11.3425 47.1141 10.7954 47.5123 10.2104 47.7019L8.75064 48.3031L7.46689 48.8366L8.78043 54.0854L10.3973 53.6954C10.9146 53.5654 11.5456 53.4137 12.2633 53.2323C12.9973 53.0969 13.78 52.7258 14.6521 52.3873C15.5106 52 16.51 51.7427 17.4363 51.1225C18.3679 50.5321 19.4431 50.0391 20.3911 49.2483C21.3092 48.4331 22.4169 47.7262 23.2348 46.6916C24.1286 45.7221 25.0115 44.7037 25.6967 43.5446C26.4902 42.4396 27.0292 41.2262 27.5979 40.0264C28.1125 38.8266 28.5269 37.5998 28.8654 36.4081C29.5073 34.0193 29.7944 31.7498 29.9054 29.8079C29.9975 27.8633 29.9433 26.2464 29.8296 25.0764C29.789 24.5239 29.7131 23.9877 29.659 23.6166L29.5913 23.1616L29.5208 23.1779C29.0391 20.9277 27.9302 18.8599 26.3224 17.2137C24.7146 15.5674 22.6735 14.41 20.4354 13.8752C18.1972 13.3405 15.8534 13.4504 13.675 14.1921C11.4967 14.9338 9.57288 16.2771 8.12608 18.0665C6.67928 19.8559 5.76864 22.0184 5.49951 24.3038C5.23038 26.5891 5.61375 28.904 6.60528 30.9805C7.59681 33.0571 9.15597 34.8106 11.1024 36.038C13.0489 37.2655 15.303 37.9168 17.6042 37.9166Z" fill="#0F163D"/>
</svg>
