<svg width="51" height="32" viewBox="0 0 51 32" fill="none" xmlns="http://www.w3.org/2000/svg">
<g clip-path="url(#clip0_311_345)">
<path fill-rule="evenodd" clip-rule="evenodd" d="M4.43953 0C0.920044 0 0.920044 0 0.920044 0V32.064H43.8011C49.2639 32.064 50.84 30.4877 50.84 28.5437V0C0.920044 0 49.2644 0 47.3206 0H4.43953Z" fill="white"/>
<path fill-rule="evenodd" clip-rule="evenodd" d="M21.8578 10.3611C22.4233 10.3611 22.8976 10.4753 23.4749 10.7509V12.207C22.9281 11.7037 22.4538 11.4931 21.8265 11.4931C20.5936 11.4931 19.624 12.4541 19.624 13.6723C19.624 14.9571 20.5636 15.8609 21.8877 15.8609C22.4837 15.8609 22.9492 15.6612 23.4749 15.166V16.6228C22.8771 16.8878 22.3926 16.9925 21.8265 16.9925C19.8247 16.9925 18.2693 15.5464 18.2693 13.6813C18.2693 11.8365 19.8661 10.3611 21.8578 10.3611ZM15.6425 10.4013C16.3815 10.4013 17.0576 10.6394 17.6229 11.1049L16.935 11.9528C16.5926 11.5914 16.2688 11.439 15.8749 11.439C15.3083 11.439 14.8957 11.7426 14.8957 12.1423C14.8957 12.4849 15.1273 12.6663 15.9161 12.9411C17.4115 13.4559 17.8547 13.9124 17.8547 14.9204C17.8547 16.1487 16.8962 17.0038 15.5302 17.0038C14.5299 17.0038 13.8026 16.6329 13.1969 15.796L14.046 15.026C14.3488 15.5771 14.8539 15.8722 15.4809 15.8722C16.0674 15.8722 16.5015 15.4913 16.5015 14.9773C16.5015 14.7108 16.37 14.4823 16.1074 14.3208C15.9752 14.2443 15.7133 14.1302 15.1986 13.9594C13.964 13.5409 13.5404 13.0936 13.5404 12.2195C13.5404 11.1811 14.4501 10.4013 15.6425 10.4013ZM30.6648 10.5119H32.1008L33.8981 14.7738L35.7187 10.5119H37.1438L34.2322 17.0198H33.5248L30.6648 10.5119ZM5.23453 10.5216H7.16413C9.2961 10.5216 10.7823 11.826 10.7823 13.6986C10.7823 14.6324 10.3276 15.5352 9.55875 16.1343C8.91184 16.6399 8.17469 16.8667 7.15402 16.8667H5.23453V10.5216ZM11.3872 10.5216H12.7017V16.8667H11.3872V10.5216ZM37.7381 10.5216H41.4663V11.5968H39.0519V13.0051H41.3774V14.0797H39.0519V15.7925H41.4663V16.8667H37.7382V10.5216H37.7381ZM42.3371 10.5216H44.2862C45.8023 10.5216 46.6711 11.207 46.6711 12.395C46.6711 13.3665 46.1262 14.004 45.136 14.1937L47.2575 16.8667H45.6409L43.8214 14.3178H43.65V16.8667H42.3371V10.5216ZM43.65 11.521V13.4426H44.0341C44.8736 13.4426 45.3186 13.0994 45.3186 12.4616C45.3186 11.8442 44.8735 11.521 44.0549 11.521H43.65ZM6.54819 11.5967V15.7925H6.90096C7.75043 15.7925 8.28694 15.6393 8.7 15.2882C9.15459 14.9071 9.42806 14.2984 9.42806 13.6895C9.42806 13.0815 9.15459 12.4911 8.7 12.1099C8.26576 11.74 7.75043 11.5967 6.90096 11.5967H6.54819Z" fill="black"/>
<path fill-rule="evenodd" clip-rule="evenodd" d="M27.4884 10.3176C29.4686 10.3176 31.0738 11.8268 31.0738 13.691V13.6931C31.0738 15.5574 29.4686 17.0686 27.4884 17.0686C25.5083 17.0686 23.903 15.5574 23.903 13.6931V13.691C23.903 11.8267 25.5083 10.3176 27.4884 10.3176L27.4884 10.3176ZM50.839 18.455C49.1718 19.6282 36.69 28.0128 15.0787 32.0629H47.3194H50.8389V0L50.839 18.455Z" fill="#F47216"/>
</g>
<defs>
<clipPath id="clip0_311_345">
<rect width="49.92" height="32" fill="white" transform="translate(0.920044)"/>
</clipPath>
</defs>
</svg>
