<svg width="50" height="32" viewBox="0 0 50 32" fill="none" xmlns="http://www.w3.org/2000/svg">
<g clip-path="url(#clip0_311_342)">
<path d="M2.56 6.10352e-05H47.36C48.7739 6.10352e-05 49.92 1.14624 49.92 2.56006V29.4401C49.92 30.854 48.7739 32.0001 47.36 32.0001H2.56C1.14618 32.0001 0 30.854 0 29.4401V2.56006C0 1.14624 1.14618 6.10352e-05 2.56 6.10352e-05Z" fill="#2557D6"/>
<path d="M0.0161891 15.0842H2.41241L2.9527 13.8355H4.1623L4.70118 15.0842H9.41593V14.1296L9.8368 15.0883H12.2844L12.7052 14.1154V15.0842H24.4223L24.4169 13.0346H24.6436C24.8022 13.0399 24.8486 13.0539 24.8486 13.305V15.0842H30.9087V14.6071C31.3976 14.858 32.1579 15.0842 33.1582 15.0842H35.7077L36.2533 13.8356H37.4629L37.9965 15.0842H42.9094V13.8982L43.6535 15.0842H47.5905V7.24359H43.6941V8.16954L43.1487 7.24359H39.1506V8.16954L38.6496 7.24359H33.2493C32.3454 7.24359 31.5508 7.36449 30.9089 7.70138V7.24359H27.1822V7.70138C26.7737 7.35412 26.2172 7.24359 25.5982 7.24359H11.9828L11.0693 9.26862L10.1311 7.24359H5.84281V8.16954L5.37165 7.24359H1.71437L0.0158691 10.9713V15.084H0.0160611L0.0161891 15.0842ZM15.142 13.9533H13.7043L13.6989 9.55047L11.6653 13.9532H10.434L8.39507 9.54657V13.9532H5.54259L5.00371 12.6993H2.08358L1.53926 13.9532H0.0159971L2.52742 8.33166H4.6112L6.99641 13.6542V8.33166H9.28544L11.1208 12.1452L12.8068 8.33166H15.1419L15.142 13.9533ZM4.52435 11.5326L3.56448 9.29153L2.60992 11.5326H4.52435ZM20.8636 13.9532H16.1786V8.33159H20.8636V9.50222H17.5811V10.5155H20.7849V11.6678H17.581V12.7905H20.8635L20.8636 13.9532ZM27.4658 9.84564C27.4658 10.7419 26.8415 11.205 26.4777 11.344C26.7845 11.4559 27.0467 11.6536 27.1715 11.8174C27.3695 12.097 27.4037 12.3468 27.4037 12.8488V13.9532H25.989L25.9837 13.2442C25.9837 12.906 26.0175 12.4195 25.7624 12.1491C25.5574 11.9513 25.2451 11.9084 24.7401 11.9084H23.2346V13.9532H21.8321V8.33159H25.0578C25.7745 8.33159 26.3027 8.3497 26.756 8.60084C27.1997 8.85198 27.4658 9.21857 27.4658 9.84564ZM25.6931 10.6803C25.5002 10.7925 25.2724 10.7962 24.9992 10.7962H23.2956V9.54753H25.0224C25.2668 9.54753 25.5219 9.55802 25.6876 9.6489C25.8694 9.73082 25.982 9.9051 25.982 10.1459C25.982 10.3916 25.8749 10.5893 25.6931 10.6803ZM29.7151 13.9532H28.2842V8.33159H29.7151V13.9532ZM46.3269 13.9532H44.3395L41.6813 9.73383V13.9532H38.8251L38.2794 12.6993H35.366L34.8367 13.9532H33.1952C32.5137 13.9532 31.6504 13.8087 31.1617 13.3314C30.6689 12.8541 30.4124 12.2076 30.4124 11.1853C30.4124 10.3516 30.5657 9.58938 31.1684 8.98708C31.6218 8.53844 32.3319 8.33159 33.2983 8.33159H34.6561V9.53614H33.3267C32.8149 9.53614 32.5258 9.6091 32.2476 9.86913C32.0085 10.1059 31.8445 10.5533 31.8445 11.1425C31.8445 11.7448 31.9693 12.1791 32.23 12.4627C32.4458 12.6852 32.8383 12.7526 33.2074 12.7526H33.8372L35.8138 8.33178H37.9153L40.2898 13.649V8.33185H42.4252L44.8904 12.247V8.33185H46.3269V13.9532ZM37.8021 11.5327L36.8316 9.29159L35.8664 11.5327H37.8021ZM49.9007 22.9298C49.5601 23.407 48.8963 23.649 47.9976 23.649H45.2892V22.4433H47.9866C48.2542 22.4433 48.4414 22.4095 48.5541 22.3041C48.6607 22.2097 48.7208 22.0766 48.7199 21.9374C48.7199 21.7735 48.6518 21.6435 48.5486 21.5655C48.4469 21.4796 48.2988 21.4407 48.0544 21.4407C46.7377 21.3978 45.0948 21.4796 45.0948 19.7003C45.0948 18.8848 45.6351 18.0263 47.1069 18.0263H49.9004V16.9077H47.3048C46.5216 16.9077 45.9525 17.0875 45.5496 17.3668V16.9076H41.7105C41.0965 16.9076 40.3759 17.0534 40.0351 17.3668V16.9076H33.1794V17.3668C32.6339 16.9897 31.7133 16.9076 31.2883 16.9076H26.7663V17.3668C26.3346 16.9663 25.3748 16.9076 24.7896 16.9076H19.7286L18.5706 18.1085L17.4859 16.9076H9.92557V24.7534H17.3432L18.5365 23.5334L19.6607 24.7534L24.233 24.7573V22.9116H24.6823C25.289 22.9206 26.0045 22.897 26.6358 22.6357V24.7531H30.4072V22.7082H30.5891C30.8213 22.7082 30.8441 22.7174 30.8441 22.9395V24.7528H42.3007C43.028 24.7528 43.7884 24.5745 44.2095 24.2508V24.7528H47.8434C48.5996 24.7528 49.3381 24.6513 49.9 24.3913L49.9001 22.9295L49.9007 22.9298ZM27.1845 19.9119C27.1845 21.4739 25.9682 21.7964 24.7423 21.7964H22.9924V23.6824H20.2666L18.5396 21.8209L16.7449 23.6824H11.1896V18.0594H16.8302L18.5557 19.9025L20.3397 18.0594H24.8211C25.934 18.0594 27.1845 18.3546 27.1845 19.9119ZM16.0344 22.4997H12.5862V21.3809H15.6653V20.2337H12.5862V19.2113H16.1023L17.6364 20.85L16.0344 22.4997ZM21.5903 23.1435L19.4371 20.853L21.5903 18.6354V23.1435ZM24.7747 20.6433H22.9624V19.2113H24.791C25.2973 19.2113 25.6488 19.4091 25.6488 19.9007C25.6488 20.3871 25.3136 20.6433 24.7747 20.6433ZM34.2698 18.0594H38.9506V19.2223H35.6664V20.2446H38.8704V21.3918H35.6664V22.5105L38.9505 22.5157V23.6824H34.2696L34.2698 18.0594ZM32.4701 21.0693C32.7823 21.1797 33.0375 21.3775 33.1571 21.5413C33.3552 21.8159 33.3838 22.0721 33.3895 22.5676V23.6824H31.9814V22.9789C31.9814 22.6406 32.0154 22.1397 31.7547 21.8782C31.5498 21.6768 31.2374 21.6287 30.7258 21.6287H29.2269V23.6824H27.8177V18.0595H31.0557C31.7656 18.0595 32.2828 18.0895 32.7431 18.3248C33.1857 18.5811 33.4641 18.932 33.4641 19.5735C33.4641 20.4709 32.8392 20.9289 32.4701 21.0693ZM31.6775 20.3584C31.4899 20.4651 31.2579 20.4743 30.9852 20.4743H29.2813V19.2115H31.0082C31.2579 19.2115 31.5078 19.2166 31.6775 19.313C31.8593 19.4041 31.9679 19.5784 31.9679 19.8188C31.9679 20.0593 31.8592 20.2531 31.6775 20.3584ZM44.338 20.7166C44.6113 20.9873 44.7574 21.3292 44.7574 21.9078C44.7574 23.1174 43.9688 23.6821 42.5542 23.6821H39.8227V22.4764H42.5434C42.8094 22.4764 42.998 22.4428 43.1162 22.3372C43.2127 22.2502 43.2819 22.1238 43.2819 21.9705C43.2819 21.8066 43.207 21.6766 43.1107 21.5986C43.0035 21.5128 42.8556 21.4739 42.6113 21.4739C41.2997 21.431 39.6572 21.5128 39.6572 19.7336C39.6572 18.918 40.1919 18.0595 41.6623 18.0595H44.474V19.2563H41.9013C41.6463 19.2563 41.4805 19.2655 41.3395 19.3578C41.1859 19.4488 41.1289 19.584 41.1289 19.7622C41.1289 19.9743 41.2593 20.1187 41.4358 20.1812C41.5837 20.2305 41.7427 20.2449 41.9814 20.2449L42.7365 20.2645C43.4977 20.2821 44.0204 20.4083 44.338 20.7166ZM49.9031 19.2113H47.3471C47.092 19.2113 46.9222 19.2206 46.7796 19.3129C46.6316 19.404 46.5747 19.5391 46.5747 19.7175C46.5747 19.9296 46.6995 20.0739 46.8813 20.1363C47.0293 20.1857 47.1882 20.2001 47.4217 20.2001L48.1819 20.2195C48.9488 20.2377 49.4607 20.364 49.7729 20.6721C49.83 20.715 49.8639 20.7631 49.903 20.8113V19.2113H49.9031Z" fill="white"/>
</g>
<defs>
<clipPath id="clip0_311_342">
<rect width="49.92" height="32" fill="white"/>
</clipPath>
</defs>
</svg>
