<svg width="51" height="32" viewBox="0 0 51 32" fill="none" xmlns="http://www.w3.org/2000/svg">
<rect width="49.92" height="32" transform="translate(0.760132)" fill="white"/>
<path d="M19.5249 22.3187L21.6599 9.79009H25.0748L22.9382 22.3187H19.5249ZM35.276 10.0602C34.5996 9.80635 33.5393 9.53397 32.2154 9.53397C28.841 9.53397 26.4642 11.2332 26.4438 13.6686C26.4248 15.4689 28.1408 16.4732 29.4361 17.0725C30.7654 17.6867 31.2122 18.0783 31.2058 18.6266C31.1973 19.4664 30.1443 19.8499 29.1627 19.8499C27.796 19.8499 27.0698 19.66 25.9483 19.1925L25.5081 18.9934L25.0289 21.798C25.8266 22.1479 27.3014 22.4507 28.833 22.4664C32.4227 22.4664 34.7531 20.7866 34.7796 18.1858C34.7923 16.7605 33.8826 15.676 31.9123 14.7818C30.7187 14.2022 29.9877 13.8154 29.9955 13.2286C29.9955 12.7078 30.6142 12.1509 31.9513 12.1509C33.0678 12.1336 33.8769 12.3771 34.5072 12.6309L34.8132 12.7755L35.276 10.0602ZM44.0638 9.7899H41.4251C40.6077 9.7899 39.9958 10.013 39.6369 10.8289L34.5652 22.3105H38.1512C38.1512 22.3105 38.7374 20.7667 38.87 20.4277C39.2619 20.4277 42.7455 20.4331 43.2435 20.4331C43.3457 20.8718 43.659 22.3105 43.659 22.3105H46.8278L44.0638 9.78952V9.7899ZM39.8771 17.8801C40.1596 17.1583 41.2378 14.3778 41.2378 14.3778C41.2177 14.4111 41.5181 13.6524 41.6905 13.182L41.9213 14.2622C41.9213 14.2622 42.5752 17.2529 42.7119 17.8799H39.8771V17.8801ZM16.6259 9.7899L13.2826 18.3339L12.9265 16.5976C12.304 14.5961 10.3649 12.4276 8.19699 11.342L11.2541 22.2988L14.8672 22.2947L20.2435 9.78977L16.6259 9.78971" fill="#0E4595"/>
<path d="M10.163 9.78943H4.65638L4.61273 10.0501C8.89683 11.0872 11.7315 13.5933 12.9084 16.605L11.711 10.8475C11.5044 10.0542 10.9048 9.8174 10.1631 9.78975" fill="#F2AE14"/>
</svg>
