<svg width="51" height="32" viewBox="0 0 51 32" fill="none" xmlns="http://www.w3.org/2000/svg">
<rect width="49.92" height="32" transform="translate(0.840088)" fill="white"/>
<path d="M29.5767 16C29.5767 22.3451 24.433 27.488 18.0881 27.488C11.7432 27.488 6.6001 22.3449 6.6001 16C6.6001 9.65548 11.7433 4.51199 18.0881 4.51199C24.4329 4.51199 29.5767 9.65574 29.5767 16Z" fill="#D9222A"/>
<path d="M33.5114 4.51175C30.5432 4.51175 27.8383 5.63789 25.7994 7.48564C25.3841 7.86253 24.9964 8.2688 24.6394 8.70138H26.9605C27.2783 9.08775 27.5708 9.49415 27.8364 9.91815H23.7637C23.5188 10.31 23.2977 10.7162 23.1018 11.1347H28.4979C28.6831 11.5305 28.8455 11.9366 28.9843 12.3509H22.6155C22.4817 12.7499 22.3703 13.156 22.2816 13.5674H29.3178C29.4899 14.3668 29.5767 15.1822 29.5765 15.9999C29.5765 17.2758 29.3682 18.5031 28.9842 19.6493H22.6154C22.7539 20.0638 22.9162 20.47 23.1015 20.8658H28.4977C28.3017 21.2844 28.0805 21.6907 27.8355 22.0826H23.7635C24.0289 22.5063 24.3216 22.9125 24.6394 23.2984H26.96C26.6035 23.7318 26.2156 24.1385 25.7996 24.5152C27.8385 26.3626 30.5431 27.4883 33.5116 27.4883C39.8565 27.4883 45.0003 22.3452 45.0003 16.0003C45.0003 9.656 39.8565 4.51226 33.5116 4.51226" fill="#EE9F2D"/>
<path d="M43.4686 22.4038C43.4686 22.1991 43.6345 22.0326 43.8395 22.0326C44.0446 22.0326 44.2104 22.1991 44.2104 22.4038C44.2104 22.6086 44.0446 22.7751 43.8395 22.7751C43.6345 22.7751 43.4686 22.6086 43.4686 22.4038ZM43.8395 22.6859C43.9953 22.6859 44.1216 22.5596 44.1216 22.4038C44.1216 22.2482 43.9955 22.1221 43.8399 22.122H43.8395C43.6841 22.1218 43.5579 22.2476 43.5576 22.403V22.4039C43.5575 22.5596 43.6836 22.6859 43.8392 22.686C43.8393 22.6859 43.8394 22.6859 43.8395 22.6859ZM43.7894 22.5669H43.7134V22.2408H43.851C43.8798 22.2408 43.9091 22.2408 43.9345 22.257C43.9609 22.2749 43.9758 22.3064 43.9758 22.3389C43.9758 22.3754 43.9542 22.4095 43.9193 22.4228L43.9793 22.5668H43.8951L43.8453 22.4377H43.7895L43.7894 22.5669ZM43.7894 22.3819H43.8315C43.8473 22.3819 43.8638 22.3833 43.878 22.3755C43.8904 22.3675 43.8969 22.3526 43.8969 22.3382C43.8966 22.3248 43.8897 22.3124 43.8785 22.305C43.8652 22.2968 43.8442 22.2985 43.83 22.2985H43.7894V22.3819ZM15.4054 17.2579C15.2745 17.2427 15.2169 17.2386 15.127 17.2386C14.4201 17.2386 14.0622 17.481 14.0622 17.9598C14.0622 18.2549 14.2368 18.4427 14.5093 18.4427C15.0174 18.4427 15.3835 17.9589 15.4054 17.2579ZM16.3123 19.3697H15.279L15.3027 18.8784C14.9875 19.2665 14.567 19.4511 13.9955 19.4511C13.3194 19.4511 12.856 18.9231 12.856 18.1565C12.856 17.0029 13.6622 16.3298 15.0459 16.3298C15.1872 16.3298 15.3686 16.3426 15.5541 16.3663C15.5928 16.2101 15.603 16.1431 15.603 16.0591C15.603 15.7449 15.3856 15.6279 14.803 15.6279C14.1929 15.621 13.6896 15.7732 13.483 15.8412C13.496 15.7625 13.6558 14.775 13.6558 14.775C14.2773 14.5929 14.6872 14.5243 15.1486 14.5243C16.2194 14.5243 16.7867 15.0052 16.7856 15.9139C16.7877 16.1574 16.7474 16.4579 16.6846 16.8529C16.5763 17.5398 16.3441 19.011 16.3123 19.3697ZM12.3342 19.3697H11.0871L11.8014 14.8898L10.2062 19.3697H9.35637L9.25129 14.9154L8.50037 19.3697H7.33289L8.30805 13.5421H10.1014L10.2102 16.804L11.3041 13.5421H13.2988L12.3342 19.3697ZM35.0523 17.2579C34.9219 17.2427 34.8641 17.2386 34.7744 17.2386C34.0678 17.2386 33.7098 17.481 33.7098 17.9598C33.7098 18.2549 33.8843 18.4427 34.1568 18.4427C34.6649 18.4427 35.0312 17.9589 35.0523 17.2579ZM35.9601 19.3697H34.9267L34.9502 18.8784C34.6349 19.2665 34.2142 19.4511 33.6432 19.4511C32.967 19.4511 32.504 18.9231 32.504 18.1565C32.504 17.0029 33.3096 16.3298 34.6936 16.3298C34.8349 16.3298 35.016 16.3426 35.2014 16.3663C35.24 16.2101 35.2502 16.1431 35.2502 16.0591C35.2502 15.7449 35.0331 15.6279 34.4505 15.6279C33.8403 15.621 33.3377 15.7732 33.1302 15.8412C33.1433 15.7625 33.3036 14.775 33.3036 14.775C33.9251 14.5929 34.3347 14.5243 34.7956 14.5243C35.867 14.5243 36.4343 15.0052 36.4332 15.9139C36.4352 16.1574 36.395 16.4579 36.3321 16.8529C36.2243 17.5398 35.9916 19.011 35.9601 19.3697ZM21.8551 19.2977C21.5138 19.4051 21.2477 19.4511 20.9591 19.4511C20.3216 19.4511 19.9736 19.0847 19.9736 18.41C19.9645 18.2007 20.0653 17.6497 20.1445 17.1469C20.2165 16.7042 20.6853 13.913 20.6853 13.913H21.925L21.7802 14.6303H22.5289L22.3598 15.7693H21.6083C21.4643 16.6706 21.2593 17.7933 21.2569 17.9421C21.2569 18.1863 21.3873 18.293 21.6839 18.293C21.826 18.293 21.936 18.2785 22.0201 18.2482L21.8551 19.2977ZM25.6562 19.2593C25.2304 19.3894 24.8194 19.4523 24.384 19.4513C22.9962 19.4499 22.2728 18.7251 22.2728 17.3372C22.2728 15.7172 23.1931 14.5246 24.4423 14.5246C25.4645 14.5246 26.1173 15.1923 26.1173 16.2395C26.1173 16.587 26.0725 16.9262 25.9644 17.4051H23.4957C23.4122 18.0925 23.8522 18.379 24.5733 18.379C25.0171 18.379 25.4173 18.2875 25.8624 18.0806L25.6562 19.2593ZM24.9594 16.4497C24.9662 16.3509 25.0909 15.6038 24.3825 15.6038C23.9876 15.6038 23.7052 15.9048 23.5902 16.4497H24.9594ZM17.0605 16.1286C17.0605 16.7281 17.3512 17.1414 18.0104 17.4518C18.5155 17.6892 18.5936 17.7597 18.5936 17.9747C18.5936 18.2702 18.3709 18.4036 17.8773 18.4036C17.5053 18.4036 17.1592 18.3455 16.76 18.2166C16.76 18.2166 16.596 19.2611 16.5885 19.3111C16.872 19.373 17.1248 19.4302 17.8864 19.4513C19.2024 19.4513 19.8101 18.9502 19.8101 17.8673C19.8101 17.2161 19.5557 16.8339 18.931 16.5467C18.408 16.3067 18.3481 16.2531 18.3481 16.0318C18.3481 15.7755 18.5552 15.6449 18.9584 15.6449C19.2032 15.6449 19.5376 15.671 19.8544 15.716L20.032 14.6168C19.7091 14.5656 19.2195 14.5245 18.9344 14.5245C17.5392 14.5246 17.0562 15.2534 17.0605 16.1286ZM31.7223 14.6491C32.0686 14.6491 32.3916 14.7401 32.8366 14.9641L33.0407 13.6993C32.858 13.6275 32.2148 13.2065 31.67 13.2065C30.8354 13.2065 30.1298 13.6206 29.6335 14.3041C28.9097 14.0643 28.6122 14.5489 28.2474 15.0315L27.9234 15.107C27.9479 14.9481 27.9701 14.7902 27.9626 14.6305H26.8172C26.6608 16.0971 26.3834 17.5826 26.1663 19.0513L26.1097 19.3697H27.3575C27.5657 18.0166 27.6798 17.1502 27.7492 16.5638L28.219 16.3025C28.2892 16.0415 28.5089 15.9531 28.9497 15.9638C28.8905 16.2843 28.8608 16.6097 28.8612 16.9356C28.8612 18.486 29.6977 19.4513 31.0404 19.4513C31.3863 19.4513 31.683 19.4057 32.1425 19.2812L32.3621 17.9526C31.9488 18.1562 31.6095 18.252 31.3023 18.252C30.5772 18.252 30.1385 17.7167 30.1385 16.8321C30.1385 15.5489 30.7911 14.6491 31.7223 14.6491Z" fill="black"/>
<path d="M12.6935 19.0234H11.4461L12.1611 14.5441L10.5658 19.0234H9.71568L9.6106 14.5697L8.85968 19.0234H7.69226L8.66743 13.1967H10.4608L10.5112 16.8039L11.7211 13.1967H13.6581L12.6935 19.0234Z" fill="white"/>
<path d="M42.2814 13.5424L42.0048 15.2262C41.6638 14.7773 41.2974 14.4525 40.8136 14.4525C40.1843 14.4525 39.6115 14.9297 39.2366 15.6317C38.7145 15.5234 38.1744 15.3397 38.1744 15.3397L38.1741 15.344C38.2162 14.9514 38.233 14.712 38.2293 14.6306H37.0837C36.9276 16.0973 36.6503 17.5828 36.4336 19.0514L36.3765 19.3699H37.624C37.7925 18.2758 37.9214 17.3673 38.0165 16.6466C38.4426 16.2616 38.656 15.9256 39.0866 15.948C38.896 16.4091 38.7842 16.9402 38.7842 17.4851C38.7842 18.6699 39.3836 19.4515 40.2903 19.4515C40.7474 19.4515 41.0981 19.2939 41.4402 18.9286L41.3818 19.3691H42.5616L43.5115 13.5425L42.2814 13.5424ZM40.7216 18.2746C40.297 18.2746 40.0827 17.9605 40.0827 17.3405C40.0827 16.4089 40.4841 15.7485 41.0499 15.7485C41.4784 15.7485 41.7104 16.0751 41.7104 16.677C41.7104 17.6165 41.3027 18.2746 40.7216 18.2746Z" fill="black"/>
<path d="M15.7643 16.9126C15.6336 16.8975 15.5757 16.8935 15.4861 16.8935C14.7792 16.8935 14.4215 17.1359 14.4215 17.6145C14.4215 17.9092 14.5962 18.0975 14.8682 18.0975C15.3768 18.0975 15.7429 17.6137 15.7643 16.9126ZM16.6717 19.0236H15.6383L15.6618 18.5332C15.3469 18.9206 14.9258 19.106 14.3549 19.106C13.6786 19.106 13.2153 18.578 13.2153 17.8113C13.2153 16.6573 14.0212 15.9846 15.4052 15.9846C15.5465 15.9846 15.7279 15.9974 15.9133 16.0212C15.9519 15.8649 15.9621 15.798 15.9621 15.7135C15.9621 15.3993 15.745 15.2828 15.1623 15.2828C14.552 15.2759 14.049 15.4281 13.8421 15.4953C13.8551 15.4169 14.0149 14.4306 14.0149 14.4306C14.6362 14.2477 15.0466 14.1791 15.5074 14.1791C16.5785 14.1791 17.146 14.6602 17.145 15.5682C17.1469 15.8127 17.1063 16.113 17.0436 16.5074C16.9357 17.1937 16.7032 18.6657 16.6717 19.0236ZM33.4 13.3537L33.1957 14.6188C32.7509 14.3951 32.4277 14.3039 32.0817 14.3039C31.1504 14.3039 30.4977 15.2036 30.4977 16.4867C30.4977 17.3713 30.9365 17.9063 31.6615 17.9063C31.9687 17.9063 32.3076 17.8108 32.7209 17.6071L32.502 18.9351C32.0422 19.0603 31.7458 19.106 31.3996 19.106C30.0571 19.106 29.2203 18.1406 29.2203 16.5902C29.2203 14.507 30.3761 13.051 32.0292 13.051C32.5736 13.0511 33.2171 13.282 33.4 13.3537ZM35.4123 16.9126C35.2817 16.8975 35.2241 16.8935 35.1341 16.8935C34.4275 16.8935 34.0696 17.1359 34.0696 17.6145C34.0696 17.9092 34.2443 18.0975 34.5165 18.0975C35.0245 18.0975 35.3909 17.6137 35.4123 16.9126ZM36.3197 19.0236H35.2861L35.3099 18.5332C34.9947 18.9206 34.5739 19.106 34.0029 19.106C33.3269 19.106 32.8635 18.578 32.8635 17.8113C32.8635 16.6573 33.6696 15.9846 35.053 15.9846C35.1947 15.9846 35.3757 15.9974 35.5613 16.0212C35.5997 15.8649 35.6101 15.798 35.6101 15.7135C35.6101 15.3993 35.3929 15.2828 34.8104 15.2828C34.2003 15.2759 33.6971 15.4281 33.4901 15.4953C33.5031 15.4169 33.6631 14.4306 33.6631 14.4306C34.2845 14.2477 34.6946 14.1791 35.1554 14.1791C36.2268 14.1791 36.794 14.6602 36.7927 15.5682C36.7948 15.8127 36.7545 16.113 36.6916 16.5074C36.584 17.1937 36.3509 18.6657 36.3197 19.0236ZM22.2148 18.9519C21.8731 19.0593 21.607 19.106 21.3188 19.106C20.6812 19.106 20.3332 18.7395 20.3332 18.0648C20.3244 17.855 20.4253 17.3045 20.5044 16.8017C20.5761 16.3585 21.0449 13.5675 21.0449 13.5675H22.2845L22.1398 14.2851H22.776L22.6067 15.4235H21.9683C21.8243 16.3254 21.6187 17.4472 21.6165 17.5963C21.6165 17.8415 21.7472 17.9472 22.0435 17.9472C22.1856 17.9472 22.2955 17.9334 22.3797 17.903L22.2148 18.9519ZM26.0158 18.914C25.5902 19.0441 25.1787 19.1067 24.7435 19.106C23.3557 19.1046 22.6324 18.3798 22.6324 16.9919C22.6324 15.3713 23.5526 14.1791 24.8019 14.1791C25.824 14.1791 26.4768 14.8465 26.4768 15.8943C26.4768 16.242 26.432 16.5812 26.3243 17.0598H23.8555C23.7719 17.7473 24.2119 18.034 24.9331 18.034C25.3766 18.034 25.7771 17.9422 26.2219 17.7347L26.0158 18.914ZM25.3188 16.1036C25.3262 16.0052 25.4506 15.2577 24.7419 15.2577C24.3472 15.2577 24.0649 15.5596 23.9499 16.1036H25.3188ZM17.4199 15.7833C17.4199 16.3828 17.7106 16.7956 18.3698 17.1065C18.8749 17.3439 18.9529 17.4145 18.9529 17.6295C18.9529 17.9249 18.73 18.0582 18.2369 18.0582C17.8647 18.0582 17.5185 18.0001 17.119 17.8713C17.119 17.8713 16.9556 18.9158 16.9481 18.9657C17.231 19.0276 17.4841 19.0841 18.2457 19.106C19.5619 19.106 20.1694 18.6049 20.1694 17.5222C20.1694 16.8707 19.9153 16.4886 19.2903 16.2015C18.7676 15.9609 18.707 15.9081 18.707 15.6865C18.707 15.4305 18.9148 15.2987 19.3177 15.2987C19.5623 15.2987 19.8967 15.3257 20.214 15.3707L20.3913 14.2713C20.0686 14.2201 19.579 14.1791 19.294 14.1791C17.8985 14.1791 17.4158 14.9073 17.4199 15.7833ZM42.9207 19.0236H41.7406L41.7993 18.5825C41.4571 18.9483 41.1065 19.106 40.6494 19.106C39.7428 19.106 39.1436 18.3243 39.1436 17.1395C39.1436 15.5632 40.0729 14.2344 41.1729 14.2344C41.6567 14.2344 42.0228 14.432 42.3636 14.8806L42.6404 13.1969H43.8705L42.9207 19.0236ZM41.0809 17.9286C41.6617 17.9286 42.0697 17.2705 42.0697 16.3316C42.0697 15.7297 41.8375 15.4031 41.4089 15.4031C40.8434 15.4031 40.4416 16.0632 40.4416 16.9951C40.4415 17.615 40.6564 17.9286 41.0809 17.9286ZM37.443 14.2852C37.2868 15.7519 37.0096 17.2375 36.7927 18.7052L36.7356 19.0237H37.983C38.4292 16.1261 38.5371 15.5602 39.2366 15.6311C39.3481 15.038 39.5555 14.5186 39.7102 14.2564C39.1877 14.1476 38.896 14.4429 38.5141 15.0036C38.5443 14.7612 38.5995 14.5257 38.5885 14.2852L37.443 14.2852ZM27.1762 14.2852C27.0196 15.7519 26.7423 17.2375 26.5255 18.7052L26.4686 19.0237H27.7166C28.1623 16.1261 28.27 15.5602 28.9691 15.6311C29.0811 15.038 29.2885 14.5186 29.4427 14.2564C28.9208 14.1476 28.6288 14.4429 28.2472 15.0036C28.2773 14.7612 28.3319 14.5257 28.3216 14.2852L27.1762 14.2852ZM43.4686 18.6526C43.4684 18.4479 43.6341 18.2817 43.8388 18.2815H43.8396C44.0442 18.2812 44.2103 18.447 44.2105 18.6516V18.6526C44.2105 18.8575 44.0444 19.0235 43.8396 19.0236C43.6347 19.0235 43.4687 18.8575 43.4686 18.6526ZM43.8396 18.9345C43.9952 18.9346 44.1213 18.8085 44.1214 18.653V18.6527C44.1216 18.497 43.9954 18.3707 43.8398 18.3706H43.8396C43.6837 18.3707 43.5575 18.4969 43.5575 18.6527C43.5576 18.8084 43.6839 18.9345 43.8396 18.9345ZM43.7894 18.8148H43.7134V18.4895H43.8512C43.8797 18.4895 43.9093 18.4901 43.9341 18.5058C43.9608 18.5239 43.976 18.5549 43.976 18.5873C43.976 18.6241 43.9544 18.6585 43.9191 18.6716L43.9794 18.8147H43.8949L43.845 18.6861H43.7893L43.7894 18.8148ZM43.7894 18.6305H43.8312C43.8469 18.6305 43.864 18.6317 43.8779 18.6241C43.8904 18.6161 43.8968 18.601 43.8968 18.5865C43.8962 18.573 43.8895 18.5606 43.8784 18.553C43.8654 18.5455 43.8437 18.5476 43.8296 18.5476H43.7893L43.7894 18.6305Z" fill="white"/>
</svg>
