<svg width="51" height="32" viewBox="0 0 51 32" fill="none" xmlns="http://www.w3.org/2000/svg">
<g clip-path="url(#clip0_311_360)">
<path d="M0.680176 0H50.6002V32H0.680176V0Z" fill="white"/>
<path d="M11.4565 10.8704C10.919 10.5009 10.2175 10.3156 9.35217 10.3156H6.00202C5.73674 10.3156 5.59018 10.4483 5.56234 10.7133L4.20138 19.2561C4.18724 19.34 4.20823 19.4167 4.26417 19.4865C4.31978 19.5564 4.38974 19.5912 4.47351 19.5912H6.06481C6.34391 19.5912 6.49732 19.4588 6.52548 19.1933L6.90231 16.8903C6.91607 16.7787 6.96516 16.6879 7.04894 16.618C7.13265 16.5483 7.23735 16.5026 7.36298 16.4817C7.48862 16.461 7.60708 16.4506 7.71895 16.4506C7.8305 16.4506 7.96305 16.4576 8.11684 16.4715C8.27025 16.4854 8.36804 16.4922 8.40996 16.4922C9.61034 16.4922 10.5526 16.154 11.2366 15.4768C11.9204 14.7999 12.2627 13.8612 12.2627 12.6605C12.2627 11.837 11.9938 11.2403 11.4565 10.8701V10.8704ZM9.72913 13.4355C9.65911 13.9242 9.47786 14.2451 9.18474 14.3987C8.89156 14.5524 8.47281 14.6289 7.92849 14.6289L7.23748 14.6499L7.59351 12.4094C7.62129 12.256 7.71198 12.1792 7.86564 12.1792H8.26359C8.82167 12.1792 9.22673 12.2596 9.47799 12.4199C9.72913 12.5805 9.8129 12.9192 9.72913 13.4355Z" fill="#003087"/>
<path d="M46.8107 10.3155H45.2614C45.1075 10.3155 45.0169 10.3923 44.9892 10.5459L43.6281 19.2563L43.6071 19.2981C43.6071 19.3683 43.6351 19.4342 43.691 19.4971C43.7466 19.5597 43.8167 19.5912 43.9004 19.5912H45.2825C45.5473 19.5912 45.6939 19.4589 45.7222 19.1935L47.0832 10.6296V10.6088C47.0831 10.4134 46.992 10.3157 46.8107 10.3157V10.3155Z" fill="#009CDE"/>
<path d="M28.092 13.687C28.092 13.6174 28.064 13.551 28.0084 13.4883C27.9524 13.4255 27.8896 13.3939 27.8199 13.3939H26.2077C26.0539 13.3939 25.9283 13.4641 25.8308 13.6033L23.6113 16.8698L22.6901 13.729C22.6199 13.5058 22.4665 13.3939 22.2294 13.3939H20.6589C20.5889 13.3939 20.5261 13.4254 20.4706 13.4883C20.4146 13.551 20.3868 13.6175 20.3868 13.687C20.3868 13.7152 20.5229 14.1268 20.7951 14.9224C21.0672 15.7182 21.3604 16.5767 21.6745 17.498C21.9886 18.4193 22.1524 18.908 22.1665 18.9635C21.0218 20.527 20.4496 21.3647 20.4496 21.4762C20.4496 21.6578 20.5403 21.7484 20.7218 21.7484H22.3341C22.4876 21.7484 22.6132 21.6788 22.711 21.5391L28.0503 13.8335C28.0781 13.8058 28.092 13.7571 28.092 13.687V13.687Z" fill="#003087"/>
<path d="M43.1051 13.3939H41.5138C41.3182 13.3939 41.1999 13.6242 41.158 14.0849C40.7947 13.5268 40.132 13.2473 39.1687 13.2473C38.1636 13.2473 37.3085 13.6242 36.6038 14.378C35.8987 15.1319 35.5464 16.0184 35.5464 17.0373C35.5464 17.861 35.7871 18.517 36.2687 19.0054C36.7502 19.4943 37.3958 19.7383 38.2057 19.7383C38.6104 19.7383 39.0221 19.6544 39.4409 19.487C39.8597 19.3195 40.1874 19.0963 40.4251 18.817C40.4251 18.831 40.4109 18.8937 40.3833 19.0053C40.3551 19.1172 40.3414 19.2011 40.3414 19.2566C40.3414 19.4802 40.4319 19.5915 40.6136 19.5915H42.0585C42.3233 19.5915 42.4771 19.4592 42.5188 19.1937L43.3774 13.7288C43.3912 13.645 43.3703 13.5684 43.3146 13.4985C43.2585 13.4289 43.1889 13.3939 43.1051 13.3939ZM40.3727 17.5188C40.0168 17.8678 39.5875 18.0423 39.085 18.0423C38.6801 18.0423 38.3523 17.9308 38.1009 17.7073C37.8495 17.4844 37.7239 17.1773 37.7239 16.786C37.7239 16.2699 37.8984 15.8334 38.2475 15.4774C38.596 15.1215 39.0292 14.9435 39.5457 14.9435C39.9362 14.9435 40.2608 15.0587 40.5192 15.2889C40.7773 15.5192 40.9067 15.8369 40.9067 16.2417C40.9067 16.7442 40.7286 17.17 40.3727 17.5188Z" fill="#009CDE"/>
<path d="M19.3189 13.3939H17.7276C17.5319 13.3939 17.4135 13.6242 17.3716 14.0849C16.9947 13.5268 16.3316 13.2473 15.3824 13.2473C14.3773 13.2473 13.5222 13.6242 12.8174 14.378C12.1124 15.1319 11.76 16.0184 11.76 17.0373C11.76 17.861 12.0009 18.517 12.4825 19.0054C12.9641 19.4943 13.6095 19.7383 14.4192 19.7383C14.8099 19.7383 15.215 19.6544 15.6336 19.487C16.0524 19.3195 16.3874 19.0963 16.6387 18.817C16.5827 18.9844 16.5549 19.1311 16.5549 19.2566C16.5549 19.4802 16.6456 19.5915 16.8271 19.5915H18.2718C18.5369 19.5915 18.6906 19.4592 18.7325 19.1937L19.591 13.7288C19.6047 13.645 19.5838 13.5684 19.5282 13.4985C19.4723 13.4289 19.4026 13.3939 19.3189 13.3939ZM16.5864 17.5292C16.2304 17.8717 15.794 18.0423 15.2778 18.0423C14.8727 18.0423 14.5482 17.9308 14.3041 17.7073C14.0597 17.4844 13.9376 17.1773 13.9376 16.786C13.9376 16.2699 14.112 15.8334 14.4612 15.4774C14.8099 15.1215 15.2427 14.9435 15.7593 14.9435C16.15 14.9435 16.4745 15.0587 16.733 15.2889C16.9911 15.5193 17.1204 15.837 17.1204 16.2418C17.1204 16.7582 16.9424 17.1876 16.5864 17.5292Z" fill="#003087"/>
<path d="M35.2427 10.8704C34.7053 10.5009 34.004 10.3156 33.1385 10.3156H29.8092C29.5299 10.3156 29.3762 10.4483 29.3486 10.7133L27.9876 19.2561C27.9734 19.34 27.9944 19.4168 28.0504 19.4865C28.1057 19.5564 28.1759 19.5912 28.2597 19.5912H29.9766C30.144 19.5912 30.2557 19.5005 30.3116 19.319L30.6886 16.8903C30.7024 16.7787 30.7513 16.6879 30.8351 16.618C30.9189 16.5483 31.0235 16.5027 31.1492 16.4817C31.2748 16.461 31.3932 16.4506 31.5052 16.4506C31.6168 16.4506 31.7493 16.4576 31.9029 16.4715C32.0564 16.4854 32.1545 16.4922 32.196 16.4922C33.3967 16.4922 34.3387 16.154 35.0228 15.4768C35.7068 14.7999 36.0488 13.8612 36.0488 12.6605C36.0489 11.8371 35.78 11.2403 35.2427 10.8702V10.8704ZM33.0966 14.3149C32.7894 14.5242 32.3288 14.6289 31.7147 14.6289L31.0446 14.6499L31.4006 12.4094C31.4282 12.256 31.5189 12.1792 31.6727 12.1792H32.0495C32.3565 12.1792 32.6008 12.1931 32.7825 12.221C32.9637 12.2491 33.1385 12.3361 33.306 12.4827C33.4735 12.6293 33.5572 12.8422 33.5572 13.1214C33.5572 13.7076 33.4035 14.1054 33.0966 14.3149Z" fill="#009CDE"/>
</g>
<defs>
<clipPath id="clip0_311_360">
<rect width="49.92" height="32" fill="white" transform="translate(0.680176)"/>
</clipPath>
</defs>
</svg>
