<svg width="156" height="24" viewBox="0 0 156 24" fill="none" xmlns="http://www.w3.org/2000/svg">
<g clip-path="url(#clip0_266_298)">
<path d="M39.9678 14.0894C39.6571 16.0315 38.88 18.0678 37.8896 19.5366C37.0151 20.8334 35.5159 22.3792 33.3408 22.3792C31.5393 22.3792 30.3543 21.6119 29.6118 19.964C28.9488 18.493 28.64 16.2894 28.64 13.0292C28.64 7.21034 29.2374 1.26199 33.667 1.26199C37.5634 1.26199 39.1303 6.55301 39.8833 9.09572L40.1723 10.0707V1.28249L39.9725 1.41935C39.4001 1.81082 38.8738 1.9933 38.3159 1.9933C37.8002 1.9933 37.2509 1.77568 36.6151 1.52353C35.7412 1.17722 34.7506 0.784668 33.4714 0.784668C31.6115 0.784668 29.2785 2.001 27.5279 3.88315C25.9993 5.52686 24.177 8.4088 24.177 12.8034C24.177 18.4833 28.8753 22.8888 32.9169 22.8888C34.5446 22.8888 35.5059 22.4564 36.3541 22.0751C37.0179 21.7766 37.5912 21.5189 38.3649 21.5189C38.8752 21.5189 39.3379 21.7236 40.0154 22.2493L40.2215 22.4091V14.109L39.9678 14.0894Z" fill="#A9A9A9"/>
<path d="M54.8867 11.0599C56.9021 10.493 59.2892 9.35927 59.2892 6.38948C59.2892 4.77752 58.4877 3.41816 56.9714 2.45813C55.5784 1.5764 53.6395 1.09076 51.5118 1.09076H41.6464V1.51968H45.0718V22.1371H41.6464V22.5657H51.9847C56.8514 22.5657 60.1212 20.0413 60.1212 16.284C60.1212 13.7448 58.3607 11.9888 54.8867 11.0599ZM52.2784 10.8245H49.4534V1.51984H50.3211C53.8433 1.51984 55.3156 2.14048 55.3156 5.98692C55.3154 10.0764 54.2927 10.8245 52.2784 10.8245ZM49.4534 11.302H51.789C53.9035 11.302 55.968 11.7016 55.968 16.4776C55.968 18.8457 55.6263 20.3291 54.8928 21.1461C54.2712 21.8386 53.3436 22.1211 51.6912 22.1211H49.4534V11.302V11.302Z" fill="#A9A9A9"/>
<path d="M69.1726 9.50599C66.5562 8.64399 64.0848 7.82991 64.0848 4.98774C64.0848 3.85787 64.4254 1.22977 67.5786 1.22977C71.5748 1.22977 73.1927 7.6163 73.1927 8.67805L73.2267 8.92141L73.4802 8.90307L73.4462 0.652893L73.2261 0.889933C72.8932 1.24873 72.0658 1.68705 71.5748 1.68705C71.2493 1.68705 70.8137 1.53463 70.3094 1.35816C69.5585 1.09553 68.6241 0.768485 67.5624 0.768485C65.8356 0.768485 64.2698 1.59073 63.1536 3.08371C62.1882 4.3751 61.6117 6.117 61.6117 7.74314C61.6117 11.8311 64.8806 12.9933 67.7644 14.0189C70.3044 14.922 72.7037 15.7751 72.7037 18.4275C72.7037 21.1347 70.6212 22.3466 68.5573 22.3466C66.5045 22.3466 64.7701 21.1011 63.4025 18.6447C62.3144 16.6904 61.8746 14.681 61.8319 14.3588L61.6851 13.6016L61.4325 13.6252V22.2991L61.6395 22.1352C62.201 21.6914 62.6406 21.5021 63.1095 21.5021C63.6399 21.5021 64.3101 21.7439 65.0862 22.0238C66.1337 22.4017 67.4372 22.8721 68.8511 22.8721C70.3031 22.8721 71.9272 22.1018 73.1957 20.8115C74.5889 19.3943 75.3563 17.5803 75.3563 15.7037C75.356 11.5433 72.0709 10.4609 69.1726 9.50599Z" fill="#A9A9A9"/>
<path d="M149.817 9.34493C147.2 8.48293 144.729 7.6687 144.729 4.82637C144.729 3.69665 145.069 1.06871 148.223 1.06871C151.955 1.06871 153.821 7.09459 153.821 8.51668L153.855 8.76019L154.108 8.74262L154.125 0.5L153.905 0.726715C153.554 1.0889 152.731 1.52615 152.235 1.52615C151.909 1.52615 151.469 1.37295 150.96 1.19555C150.209 0.933701 149.273 0.607732 148.223 0.607732C146.496 0.607732 144.93 1.42998 143.814 2.92281C142.848 4.2142 142.272 5.95609 142.272 7.58223C142.272 11.6705 145.541 12.8327 148.425 13.8583C150.965 14.7613 153.364 15.6143 153.364 18.2666C153.364 20.9591 151.206 22.1856 149.201 22.1856C147.148 22.1856 145.414 20.9402 144.046 18.4839C142.959 16.5307 142.518 14.5202 142.475 14.1979L142.329 13.4407L142.076 13.4643V22.1379L142.283 21.9743C142.845 21.5308 143.285 21.3415 143.753 21.3415C144.284 21.3415 144.954 21.5833 145.73 21.8632C146.777 22.241 148.081 22.7111 149.495 22.7111C150.947 22.7111 152.571 21.9409 153.84 20.6504C155.233 19.2334 156 17.4196 156 15.5433C156 11.3824 152.715 10.3 149.817 9.34493Z" fill="#A9A9A9"/>
<path d="M21.7759 11.7722C21.7759 17.7992 16.9967 22.6984 10.8961 22.6984C4.82836 22.6984 0 17.7993 0 11.7722C0 5.79335 4.8282 0.894409 10.8961 0.894409C17.013 0.894409 21.7759 5.79335 21.7759 11.7722ZM0.783121 11.7722C2.31644 14.963 5.92129 18.0894 10.9125 18.0894C15.8713 18.0894 19.5087 14.963 21.0421 11.7722C19.5087 8.62951 15.8713 5.50314 10.9125 5.50314C5.92114 5.50329 2.31629 8.62966 0.783121 11.7722ZM16.7519 11.7722C16.7519 14.9949 14.1584 17.5574 10.9124 17.5574C7.66646 17.5574 5.0402 14.9949 5.0402 11.7722C5.0402 8.5973 7.66631 6.0028 10.9124 6.0028C14.1422 6.00296 16.7519 8.59745 16.7519 11.7722Z" fill="#A9A9A9"/>
<path d="M99.8266 0.962036H94.3622C94.2338 0.962036 94.137 1.05436 94.137 1.17657C94.137 1.29895 94.2338 1.39111 94.3622 1.39111H96.8286L96.8442 14.8138L87.716 1.01907L87.6784 0.962191H80.8072C80.6451 0.962191 80.5575 1.0727 80.5575 1.17673C80.5575 1.28076 80.6451 1.39127 80.8072 1.39127H83.3063V21.96H80.8072C80.6451 21.96 80.5575 22.0706 80.5575 22.1747C80.5575 22.2789 80.6451 22.3894 80.8072 22.3894H86.2391C86.4012 22.3894 86.4889 22.2789 86.4889 22.1747C86.4889 22.0706 86.4012 21.96 86.2391 21.96H83.7729V2.9291L97.3276 23.4436V1.39096H99.8267C99.955 1.39096 100.052 1.2988 100.052 1.17642C100.052 1.0542 99.9548 0.962036 99.8266 0.962036Z" fill="#A9A9A9"/>
<path d="M116.179 14.3493C116.123 14.3493 115.994 14.3793 115.994 14.6566C115.994 15.7161 115.448 17.5681 114.25 19.1311C113.255 20.429 111.471 21.9759 108.618 21.9759H106.38V11.93H106.498C108.075 11.93 109.044 12.6854 109.579 13.3191C110.304 14.1781 110.562 15.1809 110.562 15.8329C110.562 15.9301 110.562 16.1886 110.739 16.1886C110.915 16.1886 110.915 15.9301 110.915 15.8329V7.50163C110.915 7.41656 110.915 7.1581 110.739 7.1581C110.562 7.1581 110.562 7.41671 110.562 7.50163C110.562 8.16004 110.304 9.17232 109.578 10.038C109.043 10.6762 108.075 11.4368 106.498 11.4368H106.38V1.40686H107.77C112.295 1.40686 115.064 6.12486 115.064 8.69393C115.064 8.96333 115.218 8.9769 115.249 8.9769C115.28 8.9769 115.433 8.96333 115.433 8.69393V0.961914H98.7335C98.5713 0.961914 98.4836 1.07242 98.4836 1.17645C98.4836 1.28048 98.5713 1.39099 98.7335 1.39099H102.031V21.944H98.7335C98.6073 21.944 98.5101 22.0238 98.4973 22.1382C98.4855 22.2439 98.5532 22.3684 98.7056 22.4022L116.363 22.4053V14.6568C116.363 14.3794 116.234 14.3493 116.179 14.3493Z" fill="#A9A9A9"/>
<path d="M143.949 0.962036H138.534C138.372 0.962036 138.284 1.07254 138.284 1.17657C138.284 1.28061 138.372 1.39111 138.534 1.39111H141.07L137.014 14.8056L132.786 1.39111H134.929C135.057 1.39111 135.154 1.29895 135.154 1.17657C135.154 1.05436 135.057 0.962036 134.929 0.962036H125.745C125.583 0.962036 125.496 1.07254 125.496 1.17657C125.496 1.28061 125.583 1.39111 125.745 1.39111H127.886L129.592 6.79341L127.147 14.8061L122.95 1.39111H124.767C124.929 1.39111 125.017 1.28061 125.017 1.17657C125.017 1.07254 124.929 0.962036 124.767 0.962036H115.616C115.454 0.962036 115.366 1.07254 115.366 1.17657C115.366 1.28061 115.454 1.39111 115.616 1.39111H118.067L125.03 23.4995L129.859 7.62444L134.9 23.5001L141.549 1.39111H143.949C144.111 1.39111 144.199 1.28061 144.199 1.17657C144.199 1.07254 144.111 0.962036 143.949 0.962036Z" fill="#A9A9A9"/>
</g>
<defs>
<clipPath id="clip0_266_298">
<rect width="156" height="23" fill="white" transform="translate(0 0.5)"/>
</clipPath>
</defs>
</svg>
