<svg width="188" height="58" viewBox="0 0 188 58" fill="none" xmlns="http://www.w3.org/2000/svg">
<g clip-path="url(#clip0_233_282)">
<path d="M7.26718 0H180.733C184.744 0 188 3.30356 188 7.37233V50.6277C188 54.6964 184.744 58 180.733 58H7.26718C3.25644 58 0 54.6964 0 50.6277V7.37233C0 3.30356 3.25644 0 7.26718 0Z" fill="white"/>
<path d="M11.6714 23.6986C8.6215 29.067 10.5602 37.2149 13.9328 42.1548C15.6159 44.6251 17.3209 46.8417 19.6547 46.8417C19.6984 46.8417 19.7428 46.8409 19.788 46.8386C20.8852 46.7943 21.6776 46.452 22.4436 46.1208C23.3039 45.7485 24.1946 45.3643 25.5902 45.3643C26.9858 45.3643 27.7651 45.7366 28.584 46.0955C29.3921 46.4504 30.2236 46.8172 31.4532 46.7935C34.0824 46.7437 35.6969 44.3516 37.1214 42.2409C38.6082 40.0378 39.3539 37.8987 39.6048 37.0805L39.615 37.0481C39.6633 36.9026 39.5947 36.7445 39.4575 36.6805C39.4575 36.6805 39.4404 36.6726 39.4365 36.671C38.9736 36.4789 34.9115 34.6504 34.8686 29.6686C34.8289 25.6204 37.9154 23.4773 38.5349 23.0884L38.5638 23.0694C38.6308 23.0259 38.6775 22.9564 38.6939 22.8773C38.7095 22.7975 38.6939 22.7152 38.6479 22.6481C36.5175 19.4852 33.2517 19.0085 31.9371 18.9516C31.747 18.9319 31.5498 18.9224 31.3519 18.9224C29.8074 18.9224 28.3285 19.5137 27.1393 19.9896C26.3188 20.3176 25.6105 20.6014 25.1219 20.6014C24.5725 20.6014 23.8595 20.3145 23.0351 19.9824C21.9309 19.5382 20.6802 19.0346 19.3563 19.0346C19.3243 19.0346 19.294 19.0346 19.2636 19.0362C16.1848 19.082 13.2751 20.8686 11.6714 23.6986Z" fill="black"/>
<path d="M31.9394 10.2459C30.0755 10.3225 27.8383 11.487 26.5019 13.0759C25.365 14.4103 24.2561 16.6372 24.5484 18.8806C24.5671 19.0213 24.6801 19.1289 24.8188 19.1407C24.945 19.1502 25.0728 19.1557 25.2006 19.1557C27.0232 19.1557 28.99 18.132 30.3334 16.4846C31.747 14.7455 32.4615 12.513 32.2457 10.513C32.2285 10.3557 32.0922 10.2395 31.9394 10.2459Z" fill="black"/>
<path d="M53.3911 10.0918H56.9265C57.8538 10.0918 58.6775 10.2863 59.3959 10.6744C60.1152 11.0625 60.6747 11.6001 61.0744 12.2863C61.4742 12.9724 61.6744 13.7519 61.6744 14.623C61.6744 15.4942 61.4742 16.2736 61.0744 16.9598C60.6747 17.6459 60.1152 18.1835 59.3959 18.5716C58.6767 18.9598 57.8538 19.1542 56.9265 19.1542H53.3911V10.0918ZM56.8759 18.5598C57.7011 18.5598 58.4289 18.3938 59.0585 18.061C59.6881 17.729 60.1728 17.2649 60.5134 16.6689C60.8539 16.0736 61.0238 15.3914 61.0238 14.623C61.0238 13.8546 60.8531 13.1732 60.5134 12.5772C60.1728 11.9819 59.6881 11.5179 59.0585 11.1851C58.4289 10.8531 57.7011 10.6863 56.8759 10.6863H54.0426V18.559H56.8759V18.5598Z" fill="black"/>
<path d="M64.6293 18.7667C64.1228 18.4734 63.7254 18.0655 63.4363 17.543C63.1472 17.0204 63.0022 16.4315 63.0022 15.7754C63.0022 15.1192 63.1472 14.5303 63.4363 14.0078C63.7254 13.4853 64.1236 13.0781 64.6293 12.7841C65.1358 12.4908 65.7031 12.3438 66.3335 12.3438C66.9639 12.3438 67.5312 12.4908 68.0377 12.7841C68.5442 13.0773 68.9416 13.4853 69.2307 14.0078C69.5198 14.5303 69.6647 15.1192 69.6647 15.7754C69.6647 16.4315 69.5198 17.0204 69.2307 17.543C68.9416 18.0655 68.5434 18.4734 68.0377 18.7667C67.5312 19.06 66.9631 19.207 66.3335 19.207C65.7039 19.207 65.1358 19.06 64.6293 18.7667ZM67.7049 18.2615C68.1094 18.0196 68.4281 17.6837 68.6619 17.2513C68.8956 16.8196 69.0125 16.3279 69.0125 15.7754C69.0125 15.2228 68.8956 14.7311 68.6619 14.2995C68.4281 13.8679 68.1086 13.5311 67.7049 13.2892C67.3005 13.0473 66.8431 12.9264 66.3327 12.9264C65.8223 12.9264 65.3649 13.0473 64.9605 13.2892C64.556 13.5311 64.2373 13.8679 64.0036 14.2995C63.7698 14.7311 63.6529 15.2236 63.6529 15.7754C63.6529 16.3271 63.7698 16.8196 64.0036 17.2513C64.2373 17.6829 64.5568 18.0196 64.9605 18.2615C65.3649 18.5034 65.8223 18.6244 66.3327 18.6244C66.8431 18.6244 67.3005 18.5034 67.7049 18.2615Z" fill="black"/>
<path d="M80.9723 12.397L78.4452 19.1559H77.8452L75.5986 13.2903L73.3396 19.1559H72.7529L70.2258 12.397H70.8383L73.0591 18.431L75.3306 12.397H75.8792L78.1382 18.4175L80.3847 12.397H80.9715H80.9723Z" fill="black"/>
<path d="M87.6862 13.0831C88.1709 13.5748 88.414 14.2831 88.414 15.2064V19.1558H87.7758V15.2586C87.7758 14.4989 87.5865 13.921 87.2078 13.5234C86.829 13.1265 86.2992 12.9281 85.6189 12.9281C84.8357 12.9281 84.2194 13.1653 83.7682 13.6404C83.317 14.1155 83.0918 14.7542 83.0918 15.5566V19.1558H82.4536V12.3969H83.0661V13.8601C83.296 13.3858 83.6381 13.0143 84.0939 12.7463C84.549 12.4791 85.0874 12.3447 85.7085 12.3447C86.5423 12.3447 87.2015 12.5906 87.687 13.0831H87.6862Z" fill="black"/>
<path d="M91.0424 9.54785H91.6806V19.155H91.0424V9.54785Z" fill="black"/>
<path d="M95.2737 18.7667C94.7672 18.4734 94.3697 18.0655 94.0806 17.543C93.7915 17.0204 93.6466 16.4315 93.6466 15.7754C93.6466 15.1192 93.7915 14.5303 94.0806 14.0078C94.3697 13.4853 94.7679 13.0781 95.2737 12.7841C95.7802 12.4908 96.3474 12.3438 96.9779 12.3438C97.6083 12.3438 98.1755 12.4908 98.682 12.7841C99.1886 13.0773 99.586 13.4853 99.8758 14.0078C100.165 14.5303 100.31 15.1192 100.31 15.7754C100.31 16.4315 100.165 17.0204 99.8758 17.543C99.5867 18.0655 99.1886 18.4734 98.682 18.7667C98.1755 19.06 97.6075 19.207 96.9779 19.207C96.3482 19.207 95.7802 19.06 95.2737 18.7667ZM98.3493 18.2615C98.753 18.0196 99.0724 17.6837 99.3062 17.2513C99.54 16.8196 99.6569 16.3279 99.6569 15.7754C99.6569 15.2228 99.54 14.7311 99.3062 14.2995C99.0724 13.8679 98.753 13.5311 98.3493 13.2892C97.9449 13.0473 97.4875 12.9264 96.9771 12.9264C96.4667 12.9264 96.0093 13.0473 95.6048 13.2892C95.2004 13.5311 94.8817 13.8679 94.6479 14.2995C94.4142 14.7311 94.2973 15.2236 94.2973 15.7754C94.2973 16.3271 94.4142 16.8196 94.6479 17.2513C94.8817 17.6829 95.2012 18.0196 95.6048 18.2615C96.0093 18.5034 96.4667 18.6244 96.9771 18.6244C97.4875 18.6244 97.9449 18.5034 98.3493 18.2615Z" fill="black"/>
<path d="M106.41 12.9858C106.852 13.4135 107.074 14.0412 107.074 14.8696V19.155H106.461V17.9511C106.248 18.3479 105.938 18.657 105.529 18.8767C105.121 19.0965 104.632 19.2072 104.061 19.2072C103.321 19.2072 102.736 19.0301 102.306 18.676C101.876 18.3218 101.662 17.8562 101.662 17.2775C101.662 16.6989 101.86 16.2609 102.256 15.9115C102.651 15.5621 103.283 15.3874 104.151 15.3874H106.435V14.8435C106.435 14.2135 106.267 13.7344 105.931 13.4064C105.595 13.0783 105.104 12.9147 104.457 12.9147C104.014 12.9147 103.591 12.9922 103.187 13.1479C102.782 13.3036 102.44 13.5107 102.159 13.7692L101.84 13.3028C102.172 13.0009 102.572 12.7653 103.04 12.5969C103.508 12.4285 103.997 12.3447 104.508 12.3447C105.334 12.3447 105.968 12.5582 106.411 12.9858H106.41ZM105.561 18.2878C105.948 18.0285 106.24 17.653 106.435 17.1613V15.8926H104.164C103.509 15.8926 103.034 16.0135 102.741 16.2554C102.447 16.4973 102.301 16.8293 102.301 17.2522C102.301 17.6752 102.462 18.0404 102.786 18.2941C103.109 18.5487 103.564 18.676 104.152 18.676C104.705 18.676 105.175 18.5463 105.562 18.2878H105.561Z" fill="black"/>
<path d="M115.637 9.54785V19.155H115.011V17.5621C114.747 18.0886 114.377 18.4941 113.901 18.7795C113.424 19.0641 112.884 19.2071 112.28 19.2071C111.676 19.2071 111.097 19.0601 110.595 18.7668C110.093 18.4735 109.7 18.068 109.414 17.5494C109.129 17.0316 108.987 16.4403 108.987 15.7755C108.987 15.1107 109.129 14.5178 109.414 13.9953C109.7 13.4728 110.093 13.0672 110.595 12.7779C111.097 12.4886 111.659 12.3439 112.28 12.3439C112.901 12.3439 113.41 12.4862 113.882 12.7716C114.354 13.0562 114.727 13.4538 114.999 13.9629V9.54785H115.637ZM113.69 18.2617C114.094 18.0198 114.413 17.6838 114.647 17.2514C114.881 16.8198 114.998 16.3281 114.998 15.7755C114.998 15.223 114.881 14.7313 114.647 14.2996C114.413 13.868 114.094 13.5313 113.69 13.2894C113.286 13.0475 112.828 12.9265 112.318 12.9265C111.808 12.9265 111.35 13.0475 110.946 13.2894C110.541 13.5313 110.223 13.868 109.989 14.2996C109.755 14.7313 109.638 15.2237 109.638 15.7755C109.638 16.3273 109.755 16.8198 109.989 17.2514C110.223 17.683 110.542 18.0198 110.946 18.2617C111.35 18.5036 111.808 18.6245 112.318 18.6245C112.828 18.6245 113.286 18.5036 113.69 18.2617Z" fill="black"/>
<path d="M122.51 18.7667C122.003 18.4734 121.606 18.0655 121.317 17.543C121.028 17.0204 120.883 16.4315 120.883 15.7754C120.883 15.1192 121.028 14.5303 121.317 14.0078C121.606 13.4853 122.004 13.0781 122.51 12.7841C123.016 12.4908 123.583 12.3438 124.214 12.3438C124.844 12.3438 125.412 12.4908 125.918 12.7841C126.425 13.0773 126.822 13.4853 127.112 14.0078C127.401 14.5303 127.546 15.1192 127.546 15.7754C127.546 16.4315 127.401 17.0204 127.112 17.543C126.823 18.0655 126.425 18.4734 125.918 18.7667C125.412 19.06 124.843 19.207 124.214 19.207C123.584 19.207 123.016 19.06 122.51 18.7667ZM125.585 18.2615C125.989 18.0196 126.308 17.6837 126.542 17.2513C126.776 16.8196 126.893 16.3279 126.893 15.7754C126.893 15.2228 126.776 14.7311 126.542 14.2995C126.308 13.8679 125.989 13.5311 125.585 13.2892C125.181 13.0473 124.723 12.9264 124.213 12.9264C123.703 12.9264 123.245 13.0473 122.841 13.2892C122.436 13.5311 122.118 13.8679 121.884 14.2995C121.65 14.7311 121.533 15.2236 121.533 15.7754C121.533 16.3271 121.65 16.8196 121.884 17.2513C122.118 17.6829 122.437 18.0196 122.841 18.2615C123.245 18.5034 123.703 18.6244 124.213 18.6244C124.723 18.6244 125.181 18.5034 125.585 18.2615Z" fill="black"/>
<path d="M134.756 13.0831C135.241 13.5748 135.484 14.2831 135.484 15.2064V19.1558H134.846V15.2586C134.846 14.4989 134.656 13.921 134.278 13.5234C133.899 13.1265 133.369 12.9281 132.689 12.9281C131.906 12.9281 131.289 13.1653 130.838 13.6404C130.387 14.1155 130.162 14.7542 130.162 15.5566V19.1558H129.524V12.3969H130.136V13.8601C130.366 13.3858 130.708 13.0143 131.164 12.7463C131.619 12.4791 132.157 12.3447 132.778 12.3447C133.612 12.3447 134.271 12.5906 134.757 13.0831H134.756Z" fill="black"/>
<path d="M144.698 18.728C144.536 18.8837 144.335 19.0023 144.092 19.0837C143.85 19.166 143.597 19.2071 143.332 19.2071C142.753 19.2071 142.307 19.045 141.992 18.7217C141.677 18.3984 141.52 17.947 141.52 17.3683V12.9533H140.295V12.3968H141.52V10.9209H142.158V12.3968H144.277V12.9533H142.158V17.3043C142.158 17.7446 142.263 18.079 142.471 18.3075C142.679 18.5359 142.987 18.6505 143.396 18.6505C143.805 18.6505 144.158 18.5256 144.43 18.275L144.698 18.728Z" fill="black"/>
<path d="M151.705 13.083C152.19 13.5747 152.433 14.283 152.433 15.2063V19.1558H151.795V15.2585C151.795 14.4988 151.606 13.921 151.227 13.5233C150.848 13.1265 150.318 12.9281 149.638 12.9281C148.855 12.9281 148.239 13.1652 147.787 13.6403C147.336 14.1154 147.111 14.7542 147.111 15.5565V19.1558H146.473V9.54785H147.111V13.8079C147.341 13.3415 147.681 12.9818 148.132 12.7265C148.583 12.472 149.114 12.3447 149.727 12.3447C150.561 12.3447 151.22 12.5905 151.705 13.083Z" fill="black"/>
<path d="M160.703 15.9314H154.973C154.99 16.4579 155.122 16.9267 155.369 17.3361C155.616 17.7464 155.949 18.0634 156.371 18.2879C156.792 18.5124 157.266 18.6247 157.794 18.6247C158.228 18.6247 158.63 18.5448 159 18.3852C159.37 18.2255 159.679 17.9899 159.926 17.6792L160.296 18.1061C160.007 18.4603 159.643 18.7322 159.205 18.9219C158.767 19.1116 158.292 19.2065 157.782 19.2065C157.118 19.2065 156.527 19.0595 156.008 18.7662C155.489 18.4729 155.082 18.0674 154.789 17.5488C154.495 17.031 154.349 16.4397 154.349 15.7749C154.349 15.1101 154.486 14.5298 154.763 14.0073C155.04 13.4848 155.421 13.0776 155.905 12.7836C156.39 12.4903 156.935 12.3433 157.539 12.3433C158.143 12.3433 158.685 12.4879 159.166 12.7773C159.647 13.0666 160.025 13.4697 160.302 13.9875C160.579 14.5053 160.716 15.0927 160.716 15.7488L160.704 15.9298L160.703 15.9314ZM156.274 13.2318C155.899 13.4437 155.599 13.7409 155.374 14.1251C155.149 14.5093 155.019 14.9433 154.984 15.4263H160.09C160.064 14.9433 159.936 14.5116 159.707 14.1314C159.477 13.752 159.175 13.4539 158.801 13.2381C158.426 13.0223 158.006 12.9148 157.537 12.9148C157.069 12.9148 156.648 13.0207 156.274 13.2318Z" fill="black"/>
<path d="M62.8402 39.1919H55.206L53.7013 42.7761H50.7783L57.6489 27.2876H60.4409L67.3333 42.7761H64.3667L62.8402 39.1919ZM61.902 36.935L59.0227 30.1643L56.1652 36.935H61.902Z" fill="black"/>
<path d="M78.5114 31.5804C79.406 32.0824 80.1073 32.7899 80.6162 33.7045C81.125 34.6191 81.3798 35.6737 81.3798 36.8689C81.3798 38.0642 81.125 39.1227 80.6162 40.0444C80.1073 40.9662 79.4052 41.6784 78.5114 42.1796C77.6169 42.6816 76.6031 42.9322 75.4685 42.9322C73.8984 42.9322 72.6547 42.4009 71.7391 41.3393V47.0705H69.0125V30.9622H71.6082V32.5108C72.0586 31.9504 72.6149 31.5298 73.2765 31.2492C73.9381 30.9693 74.669 30.8286 75.4685 30.8286C76.6031 30.8286 77.6169 31.08 78.5114 31.5812V31.5804ZM77.6387 39.5464C78.2855 38.8681 78.6096 37.9756 78.6096 36.8689C78.6096 35.7622 78.2863 34.8705 77.6387 34.1915C76.9912 33.5132 76.1667 33.1733 75.1631 33.1733C74.5085 33.1733 73.9202 33.3251 73.3965 33.627C72.8729 33.9298 72.4583 34.3614 72.1536 34.9219C71.8482 35.4824 71.6954 36.1314 71.6954 36.8689C71.6954 37.6065 71.8482 38.2555 72.1536 38.816C72.4591 39.3764 72.8737 39.8081 73.3965 40.1108C73.9202 40.4136 74.5085 40.5646 75.1631 40.5646C76.1667 40.5646 76.9912 40.2255 77.6387 39.5464Z" fill="black"/>
<path d="M93.4744 31.5804C94.369 32.0824 95.0703 32.7899 95.5791 33.7045C96.088 34.6191 96.3428 35.6737 96.3428 36.8689C96.3428 38.0642 96.088 39.1227 95.5791 40.0444C95.0703 40.9662 94.3682 41.6784 93.4744 42.1796C92.5798 42.6816 91.566 42.9322 90.4315 42.9322C88.8613 42.9322 87.6176 42.4009 86.702 41.3393V47.0705H83.9755V30.9622H86.5711V32.5108C87.0215 31.9504 87.5779 31.5298 88.2395 31.2492C88.901 30.9693 89.632 30.8286 90.4315 30.8286C91.566 30.8286 92.5798 31.08 93.4744 31.5812V31.5804ZM92.6017 39.5464C93.2484 38.8681 93.5726 37.9756 93.5726 36.8689C93.5726 35.7622 93.2492 34.8705 92.6017 34.1915C91.9541 33.5132 91.1297 33.1733 90.126 33.1733C89.4714 33.1733 88.8831 33.3251 88.3595 33.627C87.8358 33.9298 87.4213 34.3614 87.1166 34.9219C86.8111 35.4824 86.6584 36.1314 86.6584 36.8689C86.6584 37.6065 86.8111 38.2555 87.1166 38.816C87.422 39.3764 87.8366 39.8081 88.3595 40.1108C88.8831 40.4136 89.4714 40.5646 90.126 40.5646C91.1297 40.5646 91.9541 40.2255 92.6017 39.5464Z" fill="black"/>
<path d="M106.538 42.4893C105.44 42.1502 104.572 41.7004 103.932 41.1399L104.914 38.9051C105.539 39.4071 106.306 39.8158 107.215 40.1328C108.123 40.4506 109.036 40.6087 109.952 40.6087C111.086 40.6087 111.933 40.4245 112.493 40.0553C113.053 39.687 113.333 39.2 113.333 38.5953C113.333 38.1526 113.177 37.7874 112.864 37.4996C112.552 37.2119 112.155 36.9874 111.676 36.8245C111.196 36.6625 110.542 36.4783 109.713 36.2711C108.55 35.9913 107.608 35.7107 106.888 35.43C106.168 35.1502 105.55 34.7107 105.034 34.1138C104.518 33.5162 104.26 32.7091 104.26 31.6909C104.26 30.8356 104.489 30.0569 104.947 29.3565C105.405 28.6561 106.096 28.0988 107.019 27.6862C107.943 27.2735 109.072 27.0664 110.411 27.0664C111.342 27.0664 112.258 27.185 113.16 27.4206C114.061 27.6569 114.839 27.996 115.493 28.4387L114.599 30.6735C113.929 30.2751 113.232 29.9731 112.505 29.766C111.778 29.5597 111.073 29.4561 110.389 29.4561C109.27 29.4561 108.437 29.6482 107.892 30.0316C107.346 30.415 107.074 30.9241 107.074 31.5581C107.074 32.0008 107.23 32.3621 107.543 32.6419C107.855 32.9225 108.252 33.1439 108.731 33.3059C109.211 33.4688 109.865 33.653 110.694 33.8593C111.829 34.1249 112.759 34.4016 113.486 34.6893C114.213 34.9771 114.835 35.4158 115.351 36.0055C115.867 36.596 116.125 37.3921 116.125 38.3953C116.125 39.2506 115.896 40.0253 115.438 40.7186C114.98 41.4119 114.286 41.9652 113.355 42.3779C112.425 42.7905 111.29 42.9976 109.953 42.9976C108.775 42.9976 107.637 42.8277 106.539 42.4885L106.538 42.4893Z" fill="black"/>
<path d="M125.678 42.1354C125.358 42.401 124.969 42.6002 124.511 42.733C124.053 42.8658 123.57 42.9322 123.061 42.9322C121.782 42.9322 120.793 42.5931 120.095 41.914C119.397 41.2358 119.047 40.2476 119.047 38.9488V33.2619H117.128V31.0492H119.047V28.3496H121.774V31.0492H124.893V33.2619H121.774V38.8824C121.774 39.4579 121.912 39.8966 122.189 40.1986C122.464 40.5014 122.865 40.6524 123.388 40.6524C123.999 40.6524 124.508 40.4903 124.914 40.1654L125.678 42.1346V42.1354Z" fill="black"/>
<path d="M129.582 42.1573C128.637 41.6411 127.899 40.9217 127.368 40C126.838 39.0782 126.572 38.0348 126.572 36.8687C126.572 35.7027 126.837 34.664 127.368 33.7486C127.899 32.834 128.637 32.1185 129.582 31.6023C130.527 31.0861 131.589 30.8276 132.767 30.8276C133.945 30.8276 135.027 31.0861 135.973 31.6023C136.919 32.1185 137.656 32.834 138.187 33.7486C138.718 34.6632 138.984 35.7035 138.984 36.8687C138.984 38.034 138.718 39.0782 138.187 40C137.656 40.9217 136.919 41.6411 135.973 42.1573C135.028 42.6735 133.959 42.932 132.767 42.932C131.575 42.932 130.527 42.6743 129.582 42.1573ZM135.253 39.5462C135.908 38.868 136.235 37.9755 136.235 36.8687C136.235 35.762 135.908 34.8703 135.253 34.1913C134.599 33.513 133.77 33.1731 132.767 33.1731C131.763 33.1731 130.938 33.5122 130.291 34.1913C129.644 34.8695 129.32 35.762 129.32 36.8687C129.32 37.9755 129.644 38.868 130.291 39.5462C130.938 40.2245 131.763 40.5644 132.767 40.5644C133.77 40.5644 134.599 40.2253 135.253 39.5462Z" fill="black"/>
<path d="M148.34 30.8286V33.4618C148.107 33.4175 147.896 33.3954 147.707 33.3954C146.646 33.3954 145.817 33.7092 145.221 34.3361C144.624 34.963 144.326 35.8666 144.326 37.0468V42.778H141.599V30.9622H144.195V32.6879C144.981 31.4492 146.361 30.8294 148.339 30.8294L148.34 30.8286Z" fill="black"/>
<path d="M161.448 37.7541H152.309C152.469 38.6245 152.887 39.3138 153.563 39.8229C154.239 40.332 155.079 40.5865 156.082 40.5865C157.362 40.5865 158.416 40.1589 159.245 39.3035L160.706 41.0071C160.183 41.6419 159.521 42.1209 158.722 42.445C157.922 42.7699 157.021 42.932 156.017 42.932C154.737 42.932 153.61 42.6743 152.636 42.1573C151.662 41.6411 150.909 40.9217 150.378 40C149.848 39.0782 149.582 38.0348 149.582 36.8687C149.582 35.7027 149.84 34.6822 150.357 33.7597C150.872 32.8379 151.588 32.1185 152.505 31.6023C153.421 31.0861 154.453 30.8276 155.602 30.8276C156.752 30.8276 157.751 31.0822 158.645 31.5913C159.54 32.1004 160.237 32.8158 160.739 33.7375C161.241 34.6593 161.492 35.7257 161.492 36.9351C161.492 37.1272 161.477 37.4 161.448 37.7541ZM153.389 33.8268C152.785 34.351 152.418 35.0474 152.287 35.9178H158.896C158.779 35.0624 158.423 34.3691 157.827 33.8379C157.231 33.3067 156.489 33.0411 155.602 33.0411C154.716 33.0411 153.992 33.3027 153.389 33.8268Z" fill="black"/>
</g>
<defs>
<clipPath id="clip0_233_282">
<rect width="188" height="58" fill="white"/>
</clipPath>
</defs>
</svg>
