<svg width="188" height="57" viewBox="0 0 188 57" fill="none" xmlns="http://www.w3.org/2000/svg">
<g clip-path="url(#clip0_233_311)">
<path d="M7.26718 0H180.734C184.744 0 188.001 3.2466 188.001 7.24522V49.7548C188.001 53.7534 184.744 57 180.734 57H7.26718C3.25644 57 0 53.7534 0 49.7548V7.24522C0 3.2466 3.25644 0 7.26718 0Z" fill="white"/>
<path d="M58.4647 16.3184H53.2828L52.1467 18.8254H51.4446L55.5543 9.91846H56.205L60.3147 18.8254H59.6126L58.464 16.3184H58.4647ZM58.2224 15.7715L55.8738 10.6309L53.5384 15.7715H58.2224Z" fill="black"/>
<path d="M66.7488 12.1831L63.7363 18.8255H63.0856L60.0863 12.1831H60.7627L63.4176 18.1255L66.0982 12.1831H66.7488Z" fill="black"/>
<path d="M72.0835 12.7621C72.5261 13.1824 72.7474 13.7992 72.7474 14.6134V18.8257H72.1349V17.6425C71.9222 18.0325 71.6113 18.3362 71.203 18.5522C70.7946 18.7682 70.3053 18.8769 69.7349 18.8769C68.9946 18.8769 68.4094 18.7029 67.98 18.3549C67.5499 18.0068 67.3356 17.5493 67.3356 16.9806C67.3356 16.4119 67.5335 15.9815 67.9294 15.6381C68.3252 15.2947 68.9572 15.123 69.8245 15.123H72.1092V14.5885C72.1092 13.9694 71.9409 13.4986 71.6051 13.1762C71.2692 12.8538 70.7775 12.6929 70.1307 12.6929C69.6881 12.6929 69.265 12.7691 68.8606 12.9221C68.4561 13.0752 68.1141 13.2787 67.8328 13.5328L67.514 13.0744C67.846 12.7776 68.2458 12.5461 68.7141 12.3806C69.1816 12.2152 69.671 12.1328 70.1822 12.1328C71.0074 12.1328 71.6417 12.3426 72.0843 12.7629L72.0835 12.7621ZM71.2349 17.9727C71.6222 17.7178 71.9136 17.3488 72.1092 16.8656V15.6187H69.837C69.1816 15.6187 68.7071 15.7376 68.4141 15.9753C68.1203 16.213 67.9738 16.5393 67.9738 16.9549C67.9738 17.3706 68.1351 17.7295 68.4585 17.9796C68.7819 18.2298 69.2369 18.3549 69.8245 18.3549C70.3778 18.3549 70.8476 18.2275 71.2349 17.9734V17.9727Z" fill="black"/>
<path d="M75.3259 10.4205C75.2238 10.3234 75.1724 10.2022 75.1724 10.0577C75.1724 9.91321 75.2238 9.79046 75.3259 9.68869C75.428 9.58692 75.5511 9.53564 75.6961 9.53564C75.841 9.53564 75.9641 9.58459 76.0662 9.6817C76.1683 9.77959 76.2197 9.9 76.2197 10.0445C76.2197 10.189 76.1683 10.3118 76.0662 10.4135C75.9641 10.5153 75.841 10.5666 75.6961 10.5666C75.5511 10.5666 75.428 10.5176 75.3259 10.4205ZM75.3766 12.1833H76.0148V18.8256H75.3766V12.1833Z" fill="black"/>
<path d="M78.7078 9.3833H79.346V18.8248H78.7078V9.3833Z" fill="black"/>
<path d="M86.187 12.7621C86.6296 13.1824 86.8509 13.7992 86.8509 14.6134V18.8257H86.2384V17.6425C86.0257 18.0325 85.7147 18.3362 85.3064 18.5522C84.8981 18.7682 84.4087 18.8769 83.8383 18.8769C83.0981 18.8769 82.5128 18.7029 82.0835 18.3549C81.6533 18.0068 81.4391 17.5493 81.4391 16.9806C81.4391 16.4119 81.637 15.9815 82.0328 15.6381C82.4287 15.2947 83.0607 15.123 83.928 15.123H86.2127V14.5885C86.2127 13.9694 86.0444 13.4986 85.7085 13.1762C85.3719 12.8538 84.881 12.6929 84.2342 12.6929C83.7916 12.6929 83.3685 12.7691 82.964 12.9221C82.5596 13.0752 82.2175 13.2787 81.937 13.5328L81.6183 13.0744C81.9502 12.7776 82.35 12.5461 82.8183 12.3806C83.2859 12.2152 83.7752 12.1328 84.2864 12.1328C85.1116 12.1328 85.7459 12.3426 86.1885 12.7629L86.187 12.7621ZM85.3384 17.9727C85.7257 17.7178 86.0171 17.3488 86.2127 16.8656V15.6187H83.9404C83.2851 15.6187 82.8105 15.7376 82.5175 15.9753C82.2237 16.213 82.0773 16.5393 82.0773 16.9549C82.0773 17.3706 82.2386 17.7295 82.5619 17.9796C82.8853 18.2298 83.3404 18.3549 83.928 18.3549C84.4812 18.3549 84.9511 18.2275 85.3384 17.9734V17.9727Z" fill="black"/>
<path d="M94.5084 12.5584C95.0103 12.8428 95.4038 13.2413 95.689 13.7548C95.9742 14.2683 96.1168 14.851 96.1168 15.5044C96.1168 16.1577 95.9742 16.7388 95.689 17.2477C95.4038 17.7566 95.0103 18.1559 94.5084 18.4441C94.0066 18.7323 93.4448 18.8768 92.8237 18.8768C92.2027 18.8768 91.6899 18.7347 91.2092 18.4503C90.7284 18.166 90.3559 17.7698 90.0925 17.2609V18.8263H89.48V9.3833H90.1182V13.6973C90.3816 13.2056 90.7517 12.8218 91.2286 12.546C91.7047 12.2702 92.237 12.1327 92.8237 12.1327C93.4448 12.1327 94.0066 12.2749 94.5084 12.5592V12.5584ZM94.164 17.9477C94.5724 17.7099 94.8934 17.3798 95.1279 16.9548C95.3617 16.5306 95.4786 16.0474 95.4786 15.5044C95.4786 14.9613 95.3617 14.4781 95.1279 14.0539C94.8942 13.6297 94.5731 13.2988 94.164 13.0611C93.7557 12.8233 93.296 12.7045 92.7856 12.7045C92.2752 12.7045 91.8177 12.8233 91.4133 13.0611C91.0089 13.2988 90.6902 13.6297 90.4564 14.0539C90.2226 14.4781 90.1057 14.9621 90.1057 15.5044C90.1057 16.0466 90.2226 16.5306 90.4564 16.9548C90.6902 17.379 91.0097 17.7099 91.4133 17.9477C91.8177 18.1854 92.2752 18.3043 92.7856 18.3043C93.296 18.3043 93.7557 18.1854 94.164 17.9477Z" fill="black"/>
<path d="M98.0945 9.3833H98.7327V18.8248H98.0945V9.3833Z" fill="black"/>
<path d="M107.054 15.6568H101.324C101.341 16.1743 101.472 16.6349 101.72 17.0374C101.967 17.4406 102.3 17.7521 102.722 17.9727C103.143 18.1934 103.617 18.3037 104.145 18.3037C104.579 18.3037 104.981 18.2252 105.351 18.0683C105.721 17.9114 106.029 17.6799 106.277 17.3745L106.647 17.7948C106.358 18.1429 105.994 18.4101 105.556 18.5966C105.118 18.783 104.643 18.8763 104.133 18.8763C103.469 18.8763 102.877 18.7318 102.358 18.4435C101.84 18.1553 101.433 17.756 101.14 17.2471C100.846 16.7383 100.699 16.1572 100.699 15.5038C100.699 14.8504 100.837 14.2802 101.114 13.7667C101.391 13.2532 101.772 12.8523 102.256 12.5641C102.741 12.2758 103.286 12.1313 103.89 12.1313C104.494 12.1313 105.036 12.2735 105.517 12.5579C105.998 12.8422 106.376 13.2384 106.653 13.7473C106.93 14.2561 107.067 14.8334 107.067 15.4782L107.055 15.6561L107.054 15.6568ZM102.625 13.0038C102.25 13.212 101.95 13.5041 101.725 13.8817C101.5 14.2592 101.37 14.6857 101.335 15.1604H106.441C106.415 14.6857 106.287 14.2616 106.058 13.8879C105.828 13.515 105.526 13.2221 105.152 13.01C104.777 12.7979 104.356 12.6923 103.888 12.6923C103.42 12.6923 102.999 12.7964 102.625 13.0038Z" fill="black"/>
<path d="M113.225 18.4435C112.718 18.1553 112.321 17.7544 112.032 17.2409C111.743 16.7274 111.598 16.1486 111.598 15.5038C111.598 14.859 111.743 14.2802 112.032 13.7667C112.321 13.2532 112.719 12.8523 113.225 12.5641C113.732 12.2758 114.299 12.1313 114.929 12.1313C115.56 12.1313 116.127 12.2758 116.633 12.5641C117.14 12.8523 117.537 13.2532 117.827 13.7667C118.116 14.2802 118.261 14.859 118.261 15.5038C118.261 16.1486 118.116 16.7274 117.827 17.2409C117.538 17.7544 117.14 18.1553 116.633 18.4435C116.127 18.7318 115.559 18.8763 114.929 18.8763C114.3 18.8763 113.732 18.7318 113.225 18.4435ZM116.301 17.9471C116.704 17.7094 117.024 17.3792 117.258 16.9542C117.491 16.5301 117.608 16.0468 117.608 15.5038C117.608 14.9608 117.491 14.4775 117.258 14.0534C117.024 13.6292 116.704 13.2982 116.301 13.0605C115.896 12.8228 115.439 12.7039 114.928 12.7039C114.418 12.7039 113.961 12.8228 113.556 13.0605C113.152 13.2982 112.833 13.6292 112.599 14.0534C112.365 14.4775 112.249 14.9615 112.249 15.5038C112.249 16.0461 112.365 16.5301 112.599 16.9542C112.833 17.3784 113.153 17.7094 113.556 17.9471C113.961 18.1848 114.418 18.3037 114.928 18.3037C115.439 18.3037 115.896 18.1848 116.301 17.9471Z" fill="black"/>
<path d="M125.472 12.8574C125.956 13.3407 126.199 14.0368 126.199 14.9442V18.8255H125.561V14.9954C125.561 14.2488 125.372 13.6809 124.993 13.2902C124.614 12.9002 124.084 12.7052 123.404 12.7052C122.621 12.7052 122.005 12.9382 121.553 13.4051C121.102 13.8721 120.877 14.4998 120.877 15.2883V18.8255H120.239V12.1831H120.851V13.6211C121.081 13.155 121.423 12.7899 121.879 12.5265C122.334 12.2639 122.873 12.1318 123.494 12.1318C124.328 12.1318 124.987 12.3734 125.472 12.8574H125.472Z" fill="black"/>
<path d="M135.414 18.4054C135.252 18.5585 135.05 18.675 134.808 18.755C134.565 18.8358 134.312 18.8762 134.048 18.8762C133.469 18.8762 133.022 18.717 132.708 18.3992C132.393 18.0807 132.235 17.6379 132.235 17.0692V12.7303H131.01V12.1834H132.235V10.7329H132.874V12.1834H134.992V12.7303H132.874V17.0055C132.874 17.4382 132.978 17.7668 133.186 17.9913C133.394 18.2159 133.703 18.3285 134.112 18.3285C134.521 18.3285 134.873 18.2058 135.146 17.9595L135.414 18.4046V18.4054Z" fill="black"/>
<path d="M142.421 12.8575C142.905 13.3407 143.149 14.0368 143.149 14.9442V18.8256H142.51V14.9955C142.51 14.2489 142.321 13.681 141.942 13.2903C141.564 12.9003 141.034 12.7053 140.353 12.7053C139.57 12.7053 138.954 12.9383 138.503 13.4052C138.052 13.8721 137.826 14.4999 137.826 15.2884V18.8256H137.188V9.3833H137.826V13.5699C138.056 13.1116 138.396 12.7581 138.847 12.5072C139.298 12.257 139.83 12.1319 140.442 12.1319C141.276 12.1319 141.935 12.3735 142.421 12.8575Z" fill="black"/>
<path d="M151.419 15.6568H145.688C145.705 16.1743 145.837 16.6349 146.084 17.0374C146.331 17.4406 146.664 17.7521 147.086 17.9727C147.508 18.1934 147.981 18.3037 148.509 18.3037C148.943 18.3037 149.345 18.2252 149.715 18.0683C150.085 17.9114 150.394 17.6799 150.641 17.3745L151.011 17.7948C150.722 18.1429 150.358 18.4101 149.92 18.5966C149.482 18.783 149.008 18.8763 148.497 18.8763C147.833 18.8763 147.242 18.7318 146.723 18.4435C146.204 18.1553 145.797 17.756 145.504 17.2471C145.21 16.7383 145.064 16.1572 145.064 15.5038C145.064 14.8504 145.202 14.2802 145.478 13.7667C145.755 13.2532 146.136 12.8523 146.621 12.5641C147.106 12.2758 147.65 12.1313 148.254 12.1313C148.858 12.1313 149.4 12.2735 149.881 12.5579C150.362 12.8422 150.741 13.2384 151.017 13.7473C151.294 14.2561 151.432 14.8334 151.432 15.4782L151.419 15.6561L151.419 15.6568ZM146.989 13.0038C146.615 13.212 146.315 13.5041 146.089 13.8817C145.864 14.2592 145.734 14.6857 145.7 15.1604H150.805C150.78 14.6857 150.652 14.2616 150.423 13.8879C150.193 13.515 149.891 13.2221 149.516 13.01C149.142 12.7979 148.721 12.6923 148.253 12.6923C147.784 12.6923 147.363 12.7964 146.989 13.0038Z" fill="black"/>
<path d="M61.6121 34.4316H64.2342V40.3608C63.4667 40.9699 62.5713 41.4375 61.5482 41.763C60.5251 42.0886 59.4731 42.2517 58.3931 42.2517C56.872 42.2517 55.5013 41.9223 54.2795 41.2635C53.0568 40.6047 52.0976 39.6942 51.4017 38.5328C50.7051 37.3713 50.3575 36.0607 50.3575 34.601C50.3575 33.1412 50.7059 31.8314 51.4017 30.6691C52.0976 29.5077 53.0607 28.5972 54.2904 27.9384C55.5192 27.2796 56.9016 26.9502 58.4367 26.9502C59.6874 26.9502 60.8243 27.1561 61.8474 27.5663C62.8706 27.9772 63.7301 28.5793 64.4267 29.3725L62.6789 31.0723C61.542 29.9389 60.1705 29.3725 58.5653 29.3725C57.5133 29.3725 56.579 29.5924 55.7623 30.0313C54.9449 30.4703 54.3052 31.0871 53.8439 31.8803C53.3818 32.6743 53.1511 33.5801 53.1511 34.6002C53.1511 35.6202 53.3818 36.4849 53.8439 37.2781C54.3052 38.0721 54.9449 38.6951 55.7623 39.1481C56.579 39.6018 57.5063 39.8278 58.5442 39.8278C59.7092 39.8278 60.7323 39.573 61.6137 39.0626V34.43L61.6121 34.4316Z" fill="black"/>
<path d="M69.6266 41.4447C68.7024 40.9491 67.9816 40.2584 67.4626 39.3728C66.9436 38.4879 66.6849 37.4849 66.6849 36.3654C66.6849 35.246 66.9444 34.2477 67.4626 33.369C67.9808 32.4903 68.7024 31.8036 69.6266 31.3079C70.55 30.8123 71.5879 30.5645 72.7388 30.5645C73.8898 30.5645 74.948 30.8123 75.8722 31.3079C76.7956 31.8044 77.5171 32.4911 78.0361 33.369C78.5543 34.2477 78.8138 35.2467 78.8138 36.3654C78.8138 37.4842 78.5543 38.4871 78.0361 39.3728C77.5171 40.2584 76.7963 40.9491 75.8722 41.4447C74.948 41.9411 73.9038 42.1882 72.7388 42.1882C71.5739 42.1882 70.55 41.9404 69.6266 41.4447ZM75.1685 38.9369C75.8083 38.2851 76.1278 37.4282 76.1278 36.3654C76.1278 35.3027 75.8083 34.4458 75.1685 33.794C74.5288 33.1422 73.7191 32.8166 72.7388 32.8166C71.7586 32.8166 70.9513 33.1429 70.3193 33.794C69.6866 34.4458 69.371 35.3027 69.371 36.3654C69.371 37.4282 69.6873 38.2851 70.3193 38.9369C70.9513 39.5887 71.7578 39.9143 72.7388 39.9143C73.7199 39.9143 74.5295 39.5887 75.1685 38.9369Z" fill="black"/>
<path d="M83.3755 41.4447C82.4513 40.9491 81.7305 40.2584 81.2115 39.3728C80.6925 38.4879 80.4338 37.4849 80.4338 36.3654C80.4338 35.246 80.6933 34.2477 81.2115 33.369C81.7297 32.4903 82.4513 31.8036 83.3755 31.3079C84.2989 30.8123 85.3368 30.5645 86.4878 30.5645C87.6387 30.5645 88.6969 30.8123 89.6211 31.3079C90.5445 31.8044 91.266 32.4911 91.785 33.369C92.3032 34.2477 92.5627 35.2467 92.5627 36.3654C92.5627 37.4842 92.3032 38.4871 91.785 39.3728C91.266 40.2584 90.5452 40.9491 89.6211 41.4447C88.6969 41.9411 87.6527 42.1882 86.4878 42.1882C85.3228 42.1882 84.2989 41.9404 83.3755 41.4447ZM88.9174 38.9369C89.5572 38.2851 89.8767 37.4282 89.8767 36.3654C89.8767 35.3027 89.5572 34.4458 88.9174 33.794C88.2777 33.1422 87.468 32.8166 86.4878 32.8166C85.5075 32.8166 84.7002 33.1429 84.0682 33.794C83.4355 34.4458 83.1199 35.3027 83.1199 36.3654C83.1199 37.4282 83.4362 38.2851 84.0682 38.9369C84.7002 39.5887 85.5067 39.9143 86.4878 39.9143C87.4688 39.9143 88.2784 39.5887 88.9174 38.9369Z" fill="black"/>
<path d="M106.418 30.6911V40.3182C106.418 44.3137 104.371 46.3111 100.279 46.3111C99.1847 46.3111 98.1467 46.1728 97.1664 45.897C96.1861 45.6205 95.3757 45.2204 94.736 44.696L95.9298 42.6986C96.4269 43.1096 97.0558 43.439 97.8163 43.6868C98.5761 43.9346 99.3475 44.0589 100.129 44.0589C101.379 44.0589 102.296 43.7754 102.879 43.209C103.462 42.6419 103.753 41.778 103.753 40.6166V40.0215C103.297 40.5179 102.743 40.8931 102.09 41.1479C101.436 41.4028 100.718 41.5302 99.9366 41.5302C98.8566 41.5302 97.8794 41.3002 97.0059 40.8395C96.1324 40.3796 95.4428 39.7309 94.9386 38.895C94.4344 38.0591 94.1819 37.1027 94.1819 36.0259C94.1819 34.9492 94.4344 33.9967 94.9386 33.1678C95.4428 32.3389 96.1324 31.6979 97.0059 31.2442C97.8802 30.7913 98.8566 30.5645 99.9366 30.5645C100.76 30.5645 101.511 30.6996 102.186 30.9684C102.86 31.238 103.425 31.6482 103.88 32.2013V30.6926H106.417L106.418 30.6911ZM102.826 38.3737C103.473 37.7716 103.796 36.9893 103.796 36.0252C103.796 35.0611 103.473 34.3036 102.826 33.7085C102.179 33.1134 101.352 32.8159 100.343 32.8159C99.3335 32.8159 98.4841 33.1134 97.8381 33.7085C97.1914 34.3036 96.868 35.0758 96.868 36.0252C96.868 36.9745 97.1914 37.7716 97.8381 38.3737C98.4841 38.9758 99.3195 39.2772 100.343 39.2772C101.366 39.2772 102.179 38.9766 102.826 38.3737Z" fill="black"/>
<path d="M109.913 26.2705H112.577V42.0389H109.913V26.2705Z" fill="black"/>
<path d="M126.732 37.2154H117.8C117.956 38.0513 118.365 38.714 119.026 39.2026C119.686 39.6913 120.507 39.936 121.487 39.936C122.738 39.936 123.768 39.525 124.578 38.7031L126.006 40.3392C125.495 40.9483 124.847 41.409 124.067 41.7205C123.285 42.032 122.404 42.1882 121.423 42.1882C120.173 42.1882 119.072 41.9404 118.119 41.4447C117.167 40.9491 116.432 40.2584 115.913 39.3728C115.394 38.4879 115.136 37.4849 115.136 36.3654C115.136 35.246 115.388 34.2655 115.892 33.3799C116.396 32.4942 117.097 31.8036 117.992 31.3079C118.888 30.8123 119.897 30.5645 121.019 30.5645C122.141 30.5645 123.118 30.8092 123.993 31.2978C124.866 31.7865 125.549 32.474 126.039 33.3589C126.529 34.2446 126.774 35.2685 126.774 36.4299C126.774 36.6141 126.76 36.8759 126.732 37.2161V37.2154ZM118.855 33.4436C118.265 33.947 117.907 34.6159 117.779 35.4518H124.238C124.124 34.6307 123.776 33.9641 123.194 33.4545C122.611 32.9448 121.886 32.6892 121.02 32.6892C120.153 32.6892 119.446 32.9409 118.856 33.4436H118.855Z" fill="black"/>
<path d="M144.988 27.8011C145.948 28.2261 146.683 28.8351 147.194 29.6283C147.706 30.4223 147.962 31.3639 147.962 32.4546C147.962 33.5454 147.706 34.4699 147.194 35.2709C146.683 36.071 145.948 36.684 144.988 37.109C144.029 37.5339 142.902 37.7468 141.61 37.7468H138.242V42.0398H135.471V27.1641H141.61C142.902 27.1641 144.029 27.3769 144.988 27.8019V27.8011ZM144.232 34.6439C144.857 34.1335 145.17 33.404 145.17 32.4546C145.17 31.5053 144.857 30.7758 144.232 30.2654C143.606 29.755 142.69 29.5002 141.482 29.5002H138.242V35.4084H141.482C142.69 35.4084 143.606 35.1535 144.232 34.6431V34.6439Z" fill="black"/>
<path d="M150.69 26.2705H153.354V42.0389H150.69V26.2705Z" fill="black"/>
<path d="M165.046 31.7647C165.934 32.5657 166.378 33.773 166.378 35.3881V42.0398H163.863V40.6585C163.536 41.1549 163.071 41.5333 162.467 41.7951C161.863 42.0569 161.134 42.1882 160.282 42.1882C159.429 42.1882 158.683 42.0429 158.044 41.7524C157.404 41.4618 156.911 41.0586 156.562 40.5412C156.214 40.0246 156.04 39.4396 156.04 38.7878C156.04 37.7677 156.421 36.9497 157.18 36.3336C157.94 35.7175 159.138 35.4091 160.772 35.4091H163.713V35.239C163.713 34.4458 163.475 33.8367 163 33.4117C162.524 32.9868 161.817 32.7739 160.879 32.7739C160.239 32.7739 159.61 32.8734 158.992 33.0715C158.374 33.2703 157.852 33.5461 157.425 33.9004L156.381 31.9667C156.978 31.5138 157.695 31.1665 158.534 30.9257C159.372 30.6849 160.261 30.5645 161.198 30.5645C162.875 30.5645 164.158 30.9645 165.046 31.7655V31.7647ZM162.616 39.7977C163.135 39.4932 163.501 39.0574 163.714 38.491V37.1734H160.964C159.429 37.1734 158.662 37.6768 158.662 38.6821C158.662 39.1638 158.854 39.5468 159.238 39.8296C159.622 40.1131 160.155 40.2545 160.837 40.2545C161.52 40.2545 162.098 40.1023 162.617 39.7977H162.616Z" fill="black"/>
<path d="M180.233 30.6909L174.904 42.9533C174.406 44.1862 173.803 45.0532 173.092 45.5566C172.382 46.0592 171.522 46.311 170.513 46.311C169.944 46.311 169.383 46.2185 168.829 46.0344C168.275 45.8503 167.82 45.5954 167.465 45.2692L168.531 43.3137C168.786 43.5546 169.088 43.7457 169.437 43.8879C169.785 44.0292 170.137 44.1007 170.492 44.1007C170.961 44.1007 171.348 43.9803 171.654 43.7395C171.959 43.4986 172.24 43.0947 172.496 42.5283L172.688 42.0824L167.721 30.6917H170.492L174.073 39.0859L177.676 30.6917H180.234L180.233 30.6909Z" fill="black"/>
<path d="M45.2372 27.772L38.0744 23.6514L32.1833 29.3288L37.5671 34.5176L45.2372 30.1042C45.6595 29.8618 45.912 29.4252 45.912 28.9388C45.912 28.4525 45.6595 28.0159 45.2372 27.7727V27.772Z" fill="black"/>
<path d="M36.8588 22.9515L28.976 18.4152L11.7018 9.58984L31.2124 28.3928L36.8588 22.9515Z" fill="black"/>
<path d="M11.9886 48.7907L29.0056 39.4448L36.3515 35.2178L31.2124 30.2651L11.9886 48.7907Z" fill="black"/>
<path d="M10.5493 10.3506L10.5306 48.3247L30.2415 29.3283L10.5493 10.3506Z" fill="black"/>
</g>
<defs>
<clipPath id="clip0_233_311">
<rect width="188" height="57" fill="white"/>
</clipPath>
</defs>
</svg>
