<svg width="118" height="32" viewBox="0 0 118 32" fill="none" xmlns="http://www.w3.org/2000/svg">
<g clip-path="url(#clip0_266_295)">
<path d="M11.3601 3.38848H13.945C15.5193 3.15586 17.1269 3.36038 18.5934 3.97982C20.4332 5.09008 21.7676 6.87749 22.3121 8.96075C22.6975 10.0525 22.6975 10.0525 23.6272 9.66581H24.3528V1.02311H0.0226768V2.54696H1.02037C1.45393 2.54394 1.88265 2.6384 2.27503 2.82338C2.66742 3.00837 3.0135 3.27918 3.28786 3.61592C4.21753 5.11702 4.37625 6.80007 4.37625 15.5565C4.37625 24.8588 4.17218 27.1332 3.28786 28.2931C3.06954 28.5913 2.78689 28.8362 2.46101 29.0095C2.13513 29.1828 1.77443 29.28 1.40584 29.2938C0.0226769 29.544 0.0226768 29.5213 0.0226768 30.1354C-0.0538134 30.3407 -0.0538134 30.5668 0.0226768 30.7722H15.3736C15.4751 30.5713 15.5281 30.3492 15.5281 30.124C15.5281 29.8987 15.4751 29.6767 15.3736 29.4758C15.0018 29.372 14.6228 29.296 14.2398 29.2483C13.8255 29.1989 13.416 29.1152 13.0154 28.9982C12.4417 28.5781 11.9873 28.0152 11.697 27.365C11.4067 26.7148 11.2906 25.9999 11.3601 25.2909C11.1334 23.7898 11.02 21.0378 11.02 18.7634V16.9666H11.927C13.057 16.9319 14.1863 17.0544 15.2829 17.3305C15.8082 17.6561 16.2553 18.094 16.5924 18.613C16.9295 19.132 17.1482 19.7192 17.2329 20.3327L17.437 21.0378H18.8201V10.9622H17.5503L17.3463 11.9402C17.2604 12.5676 17.029 13.1661 16.6706 13.6875C16.3123 14.2089 15.8369 14.6387 15.2829 14.9424C14.7463 15.1026 14.1809 15.1414 13.6276 15.0561H11.02V12.5998C11.02 10.0525 11.156 4.68489 11.2467 3.84336L11.3601 3.38848ZM117.478 21.4244C116.407 19.6941 114.735 18.4223 112.785 17.8536C111.29 17.3849 109.908 16.6105 108.726 15.5792C108.46 15.3212 108.261 15.0019 108.146 14.6491C108.032 14.2962 108.005 13.9206 108.068 13.555C108.07 12.8379 108.356 12.1508 108.862 11.6445C109.205 11.2839 109.64 11.0237 110.119 10.8915C110.598 10.7593 111.104 10.7601 111.583 10.894C112.574 11.1774 113.471 11.7244 114.177 12.4771C114.884 13.2299 115.374 14.1603 115.596 15.1698C115.959 16.1933 116.005 16.1933 116.662 15.9204L117.07 15.7612V10.0979L116.776 9.96148C114.543 9.17506 112.175 8.85012 109.814 9.00624C107.781 9.05791 105.841 9.86898 104.372 11.2806C103.707 11.9058 103.185 12.6695 102.844 13.5181C102.503 14.3667 102.352 15.2797 102.4 16.1933C102.412 17.5901 102.965 18.9273 103.942 19.9233C105.021 20.9877 106.345 21.7689 107.796 22.1977C111.311 23.5851 112.331 24.4721 112.331 26.0869C112.346 26.7679 112.13 27.4338 111.718 27.9752C111.306 28.5167 110.723 28.9014 110.064 29.0664C109.272 29.2409 108.452 29.2409 107.66 29.0664C106.624 28.6628 105.698 28.0168 104.961 27.1821C104.223 26.3474 103.695 25.3482 103.42 24.2674L103.125 23.5396H102.717C102.522 23.5542 102.331 23.6002 102.15 23.6761H101.924V30.1354H102.309C103.841 30.6465 105.421 30.9971 107.025 31.1816H109.293C110.276 31.254 111.265 31.1617 112.218 30.9087C113.428 30.6847 114.559 30.147 115.497 29.349C116.436 28.551 117.15 27.5205 117.569 26.3599C117.84 25.7116 117.979 25.0157 117.977 24.3129C118.067 23.3229 117.895 22.3267 117.478 21.4244V21.4244ZM96.1188 9.66581C94.76 9.0936 93.296 8.81602 91.8227 8.8513C90.3495 8.88658 88.9003 9.23391 87.5703 9.87051C86.3202 10.4839 85.2122 11.3534 84.3178 12.4229C83.4234 13.4923 82.7625 14.7381 82.3778 16.0796C81.8873 17.5431 81.6795 19.0869 81.7656 20.6284C81.7493 21.4671 81.8177 22.3053 81.9696 23.1302C82.3358 25.1585 83.312 27.0259 84.7672 28.4814C86.2224 29.9369 88.0867 30.9109 90.1099 31.2726C91.4274 31.4391 92.7605 31.4391 94.078 31.2726C95.4452 31.0309 96.7536 30.5291 97.9327 29.7942C98.9081 29.2457 99.7336 28.4646 100.336 27.5198C100.298 27.3716 100.229 27.2327 100.136 27.1115C100.042 26.9904 99.9255 26.8894 99.7921 26.8147C99.5333 26.9087 99.289 27.0389 99.0665 27.2014C97.9387 27.9469 96.6069 28.3207 95.2571 28.2704C94.3612 28.3311 93.463 28.1912 92.6277 27.8608C91.7924 27.5303 91.0408 27.0176 90.4274 26.3599C89.9529 25.9178 89.5612 25.394 89.2709 24.8133C88.5663 23.3994 88.1867 21.845 88.1599 20.2645V19.3775H100.722V18.9226C100.749 18.4681 100.749 18.0124 100.722 17.558C100.717 15.952 100.289 14.3759 99.4805 12.9897C98.6721 11.6035 97.5122 10.4567 96.1188 9.66581V9.66581ZM89.7925 17.5352H88.2052V16.1933C88.7267 12.759 90.0192 10.712 91.6065 10.712C93.1937 10.712 93.8739 12.7362 94.1687 16.4435V17.4897H92.8082L89.7925 17.5352ZM57.186 8.91526C56.4025 8.88478 55.6236 9.04885 54.9185 9.39288C53.386 10.1394 52.1482 11.381 51.4039 12.9182L51.1092 13.4641V8.91526H50.9958C50.7237 8.91526 42.334 10.5983 42.0619 10.712C41.7898 10.8258 41.8805 10.8485 41.8805 11.2579C41.8805 11.6673 41.8805 11.7355 42.0619 11.7583L42.9462 11.9402C43.1939 11.9463 43.4369 12.0089 43.6569 12.1231C43.8769 12.2374 44.0681 12.4004 44.216 12.5998C44.7829 13.3503 44.8962 14.6695 44.8962 20.2872C45.0082 22.8163 44.902 25.3503 44.5788 27.861C44.5027 28.2395 44.3113 28.5851 44.0311 28.8499C43.7508 29.1147 43.3955 29.2857 43.0142 29.3393L42.2433 29.4985H41.9485V30.1354C41.8663 30.3475 41.8663 30.5828 41.9485 30.7949H54.6238V30.1354C54.6677 29.9177 54.6677 29.6934 54.6238 29.4758C53.8606 29.446 53.1017 29.347 52.3563 29.1801C51.9504 28.9671 51.6183 28.6358 51.4037 28.2299C51.1892 27.8239 51.1023 27.3622 51.1545 26.9057C50.9731 25.5866 50.8824 21.7201 50.9278 18.7634C50.9731 15.8067 50.9278 15.6247 51.1772 15.42C51.9359 14.8365 52.8748 14.5387 53.8301 14.5785C54.7306 14.5982 55.6147 14.8238 56.4151 15.2381C56.6925 15.3926 56.9902 15.5075 57.2994 15.5792C57.2994 15.5792 59.5669 10.0752 59.5669 9.82502C59.2767 9.48681 58.907 9.2265 58.4913 9.06765C58.0756 8.9088 57.627 8.85642 57.186 8.91526V8.91526ZM41.9032 18.4677C41.824 16.8424 41.3588 15.2597 40.5463 13.8513C39.7338 12.4429 38.5975 11.2496 37.2321 10.3709C35.6095 9.49284 33.8042 9.00871 31.9613 8.95736C30.1183 8.90601 28.289 9.28887 26.6203 10.0752C24.261 11.3231 22.4796 13.4444 21.6545 15.9886C20.8023 18.8371 20.8023 21.8738 21.6545 24.7223C22.1013 26.2791 22.9363 27.6959 24.0807 28.839C25.506 30.234 27.3439 31.1278 29.3186 31.3863C30.5862 31.4926 31.8604 31.4926 33.128 31.3863C33.5944 31.3151 34.0563 31.2164 34.5111 31.0906C36.3568 30.5727 38.0172 29.5384 39.2982 28.1085C40.5792 26.6786 41.4277 24.9124 41.7444 23.0165C41.9708 21.5113 42.0241 19.9851 41.9032 18.4677V18.4677ZM32.4704 29.8397C30.2029 30.522 28.5023 28.3158 27.9354 23.6761C27.7273 21.247 27.7273 18.8044 27.9354 16.3753C28.3889 12.6453 29.5454 10.7575 31.3367 10.7575C31.6981 10.7351 32.0596 10.7997 32.391 10.9461C32.7223 11.0925 33.0139 11.3164 33.2414 11.599C34.7606 13.1229 35.5088 16.1478 35.5088 20.6966C35.6975 23.271 35.2941 25.8544 34.3297 28.2476C33.9039 28.9456 33.2451 29.4694 32.4704 29.726V29.8397V29.8397ZM73.2852 9.37014C72.6454 9.28756 71.9976 9.28756 71.3578 9.37014C70.1296 9.36909 68.9156 9.63281 67.7979 10.1434L67.0949 10.4391V5.50367C67.2178 3.83805 67.2178 2.16561 67.0949 0.5C66.8228 0.5 58.161 2.16031 58.025 2.22854C57.9581 2.39646 57.9581 2.58373 58.025 2.75165C58.025 3.22927 58.025 3.20653 59.0454 3.43397C59.3318 3.49841 59.607 3.60575 59.8616 3.75238C60.3043 4.16987 60.5988 4.72091 60.7006 5.32172C60.9588 7.05258 61.0424 8.80515 60.95 10.5528V30.522L61.5623 30.6585C62.4693 30.8632 65.0315 31.2953 65.8705 31.3863C67.5458 31.5199 69.229 31.5199 70.9043 31.3863C72.7638 31.1958 74.5362 30.4999 76.0306 29.3737C77.525 28.2475 78.6847 26.7336 79.3847 24.9952C79.802 23.8795 80.0911 22.7196 80.2464 21.5382C80.3813 19.9378 80.328 18.3271 80.0876 16.7392C79.8444 14.9593 79.0612 13.2975 77.8443 11.9793C76.6274 10.661 75.0357 9.75013 73.2852 9.37014V9.37014ZM67.3444 29.453C67.3444 29.1574 67.1176 19.1955 67.163 15.2153V12.0994L67.8205 11.9402C68.2642 11.8764 68.7147 11.8764 69.1583 11.9402C69.649 11.8902 70.1426 12.002 70.5642 12.2586C71.411 12.8448 72.1142 13.6161 72.6208 14.5143C73.1275 15.4125 73.4244 16.4143 73.4892 17.4442C73.6544 19.1004 73.6544 20.769 73.4892 22.4252C73.3535 24.8323 72.4289 27.127 70.859 28.9527C70.4134 29.3772 69.8538 29.6618 69.249 29.7715C68.7914 29.8513 68.3235 29.8513 67.8659 29.7715C67.4351 29.7715 67.4351 29.635 67.4351 29.453H67.3444Z" fill="#A9A9A9"/>
</g>
<defs>
<clipPath id="clip0_266_295">
<rect width="118" height="31" fill="white" transform="translate(0 0.5)"/>
</clipPath>
</defs>
</svg>
