<svg width="53" height="63" viewBox="0 0 53 63" fill="none" xmlns="http://www.w3.org/2000/svg">
<g clip-path="url(#clip0_358_944)">
<g filter="url(#filter0_d_358_944)">
<path d="M2.18266 27.6555C2.18266 27.6555 2.26786 48.3267 26.402 61.5687V45.3295C26.402 45.3295 12.5403 40.7712 2.18266 27.6555Z" fill="#0073C7"/>
<path d="M42.3949 48.3817C42.3949 48.3817 33.7553 48.7328 26.402 45.3284V61.5676C26.402 61.5676 32.5928 59.5195 42.3949 48.3805V48.3817Z" fill="#005DA0"/>
<path d="M51.3893 7.29922C51.3543 6.6696 50.7707 6.2202 50.1532 6.33606C49.8171 6.39926 49.4774 6.45894 49.1413 6.51278C47.1033 6.84046 45.0409 7.01601 42.9773 6.99143C42.4661 6.98558 41.9548 6.96685 41.4436 6.93643C41.9688 7.3355 42.4906 7.73926 43.0053 8.15355C45.8544 10.4473 48.4281 12.9003 50.6551 15.4411C50.9621 15.7898 51.2632 16.1409 51.5562 16.4932C51.6367 12.3573 51.4897 8.99383 51.3904 7.29688L51.3893 7.29922Z" fill="white"/>
<path d="M45.4401 14.1999C44.2472 13.046 42.9575 11.9014 41.607 10.799C40.2391 9.71061 38.8221 8.67489 37.3958 7.71757C37.2768 7.63769 37.1152 7.50668 36.9363 7.35161C35.9623 6.50741 34.8476 5.80637 33.6362 5.36587C32.5321 4.96211 31.4571 4.48112 30.4264 3.91937C29.6456 3.49221 28.8869 3.01823 28.1668 2.49159C27.903 2.29849 27.6415 2.0972 27.3906 1.88771C27.1431 1.68759 26.9109 1.43246 26.5735 1.41374C26.5245 1.4114 26.4778 1.42193 26.43 1.42895V40.1146C28.6115 41.127 30.8221 41.9743 33.0363 42.6378C36.5414 43.6829 39.8679 44.2119 42.9236 44.2119C43.1711 44.2119 43.4208 44.2084 43.6613 44.2014C44.3779 44.178 45.0771 44.1194 45.7564 44.0293C49.6245 37.7939 51.0064 29.2185 51.4231 21.2487C50.6481 20.1111 49.7949 18.983 48.8588 17.8723C47.7231 16.5265 46.6061 15.3246 45.4412 14.1999H45.4401Z" fill="#0B6EB6"/>
<path d="M25.7472 1.77654C25.3351 2.1089 24.9208 2.43425 24.4878 2.7397C23.7162 3.2757 22.9085 3.7567 22.0728 4.18386C20.992 4.73858 19.8703 5.20554 18.7195 5.59057C17.3142 6.05986 15.8692 6.4051 14.4079 6.63331C12.6594 6.90951 10.8888 7.02069 9.12163 6.98909C7.01485 6.95632 4.91623 6.72226 2.84446 6.33488C2.22818 6.21902 1.64691 6.66491 1.60606 7.29571C1.50218 8.99148 1.34811 12.3596 1.42281 16.499C1.57572 16.8595 1.73796 17.2211 1.9107 17.5862C3.20395 20.3002 4.98509 22.9989 7.20276 25.6075C8.34195 26.9463 9.46245 28.1412 10.6285 29.2589C11.8249 30.4069 13.1181 31.5445 14.4662 32.6364C15.8458 33.74 17.2558 34.7792 18.6553 35.726C20.0384 36.6622 21.5126 37.5575 23.163 38.4645C24.2415 39.0579 25.3328 39.6056 26.43 40.1146V1.42896C26.1732 1.4664 25.9421 1.61737 25.7472 1.77771V1.77654Z" fill="#0D85DC"/>
</g>
</g>
<defs>
<filter id="filter0_d_358_944" x="-6.59692" y="-6.58659" width="66.1763" height="76.1553" filterUnits="userSpaceOnUse" color-interpolation-filters="sRGB">
<feFlood flood-opacity="0" result="BackgroundImageFix"/>
<feColorMatrix in="SourceAlpha" type="matrix" values="0 0 0 0 0 0 0 0 0 0 0 0 0 0 0 0 0 0 127 0" result="hardAlpha"/>
<feOffset/>
<feGaussianBlur stdDeviation="4"/>
<feColorMatrix type="matrix" values="0 0 0 0 0.34902 0 0 0 0 0.192157 0 0 0 0 1 0 0 0 0.3 0"/>
<feBlend mode="normal" in2="BackgroundImageFix" result="effect1_dropShadow_358_944"/>
<feBlend mode="normal" in="SourceGraphic" in2="effect1_dropShadow_358_944" result="shape"/>
</filter>
<clipPath id="clip0_358_944">
<rect width="53" height="63" fill="white"/>
</clipPath>
</defs>
</svg>
