<svg width="188" height="58" viewBox="0 0 188 58" fill="none" xmlns="http://www.w3.org/2000/svg">
<g clip-path="url(#clip0_358_1013)">
<path d="M7.26718 0H180.733C184.744 0 188 3.30356 188 7.37233V50.6277C188 54.6964 184.744 58 180.733 58H7.26718C3.25644 58 0 54.6964 0 50.6277V7.37233C0 3.30356 3.25644 0 7.26718 0Z" fill="white"/>
<path d="M11.6714 23.6988C8.62148 29.0672 10.5602 37.215 13.9328 42.1549C15.6159 44.6253 17.3209 46.8419 19.6547 46.8419C19.6984 46.8419 19.7428 46.8411 19.788 46.8387C20.8851 46.7945 21.6776 46.4522 22.4436 46.1209C23.3039 45.7486 24.1946 45.3644 25.5902 45.3644C26.9858 45.3644 27.765 45.7367 28.584 46.0956C29.3921 46.4506 30.2235 46.8174 31.4532 46.7937C34.0823 46.7439 35.6969 44.3518 37.1214 42.2411C38.6082 40.0379 39.3539 37.8988 39.6048 37.0806L39.6149 37.0482C39.6632 36.9028 39.5947 36.7447 39.4575 36.6806C39.4575 36.6806 39.4404 36.6727 39.4365 36.6711C38.9736 36.479 34.9114 34.6506 34.8686 29.6688C34.8288 25.6205 37.9154 23.4775 38.5349 23.0885L38.5637 23.0696C38.6308 23.0261 38.6775 22.9565 38.6939 22.8775C38.7095 22.7976 38.6939 22.7154 38.6479 22.6482C36.5175 19.4854 33.2517 19.0087 31.9371 18.9518C31.747 18.932 31.5498 18.9225 31.3519 18.9225C29.8074 18.9225 28.3284 19.5138 27.1393 19.9897C26.3188 20.3178 25.6105 20.6016 25.1219 20.6016C24.5725 20.6016 23.8595 20.3146 23.0351 19.9826C21.9309 19.5383 20.6802 19.0348 19.3563 19.0348C19.3243 19.0348 19.2939 19.0348 19.2635 19.0364C16.1848 19.0822 13.2751 20.8688 11.6714 23.6988Z" fill="black"/>
<path d="M31.9395 10.2459C30.0755 10.3225 27.8383 11.487 26.5019 13.0759C25.365 14.4103 24.2562 16.6372 24.5484 18.8806C24.5671 19.0213 24.6801 19.1289 24.8188 19.1407C24.945 19.1502 25.0728 19.1557 25.2006 19.1557C27.0232 19.1557 28.99 18.132 30.3334 16.4846C31.747 14.7455 32.4615 12.513 32.2457 10.513C32.2286 10.3557 32.0922 10.2395 31.9395 10.2459Z" fill="black"/>
<path d="M53.3911 10.0917H56.9265C57.8538 10.0917 58.6775 10.2862 59.3959 10.6743C60.1152 11.0625 60.6747 11.6 61.0744 12.2862C61.4742 12.9723 61.6744 13.7518 61.6744 14.6229C61.6744 15.4941 61.4742 16.2735 61.0744 16.9597C60.6747 17.6459 60.1152 18.1834 59.3959 18.5715C58.6767 18.9597 57.8538 19.1542 56.9265 19.1542H53.3911V10.0917ZM56.8759 18.5597C57.7011 18.5597 58.4289 18.3937 59.0585 18.0609C59.6881 17.7289 60.1728 17.2648 60.5134 16.6688C60.8539 16.0735 61.0238 15.3913 61.0238 14.6229C61.0238 13.8546 60.8531 13.1731 60.5134 12.5771C60.1728 11.9818 59.6881 11.5178 59.0585 11.185C58.4289 10.853 57.7011 10.6862 56.8759 10.6862H54.0426V18.5589H56.8759V18.5597Z" fill="black"/>
<path d="M64.6293 18.7668C64.1228 18.4735 63.7254 18.0656 63.4363 17.5431C63.1472 17.0206 63.0023 16.4316 63.0023 15.7755C63.0023 15.1194 63.1472 14.5304 63.4363 14.0079C63.7254 13.4854 64.1236 13.0783 64.6293 12.7842C65.1358 12.4909 65.7031 12.3439 66.3335 12.3439C66.9639 12.3439 67.5312 12.4909 68.0377 12.7842C68.5442 13.0775 68.9416 13.4854 69.2307 14.0079C69.5198 14.5304 69.6648 15.1194 69.6648 15.7755C69.6648 16.4316 69.5198 17.0206 69.2307 17.5431C68.9416 18.0656 68.5434 18.4735 68.0377 18.7668C67.5312 19.0601 66.9631 19.2071 66.3335 19.2071C65.7039 19.2071 65.1358 19.0601 64.6293 18.7668ZM67.705 18.2617C68.1094 18.0198 68.4281 17.6838 68.6619 17.2514C68.8956 16.8198 69.0125 16.3281 69.0125 15.7755C69.0125 15.2229 68.8956 14.7312 68.6619 14.2996C68.4281 13.868 68.1086 13.5312 67.705 13.2893C67.3005 13.0474 66.8431 12.9265 66.3327 12.9265C65.8223 12.9265 65.3649 13.0474 64.9605 13.2893C64.5561 13.5312 64.2374 13.868 64.0036 14.2996C63.7698 14.7312 63.6529 15.2237 63.6529 15.7755C63.6529 16.3273 63.7698 16.8198 64.0036 17.2514C64.2374 17.683 64.5568 18.0198 64.9605 18.2617C65.3649 18.5036 65.8223 18.6245 66.3327 18.6245C66.8431 18.6245 67.3005 18.5036 67.705 18.2617Z" fill="black"/>
<path d="M80.9723 12.3968L78.4452 19.1557H77.8452L75.5986 13.2901L73.3396 19.1557H72.7528L70.2258 12.3968H70.8382L73.0591 18.4308L75.3306 12.3968H75.8791L78.1382 18.4174L80.3847 12.3968H80.9715H80.9723Z" fill="black"/>
<path d="M87.6862 13.083C88.1709 13.5747 88.414 14.283 88.414 15.2063V19.1557H87.7758V15.2585C87.7758 14.4988 87.5865 13.921 87.2078 13.5233C86.829 13.1265 86.2992 12.9281 85.6189 12.9281C84.8357 12.9281 84.2194 13.1652 83.7682 13.6403C83.317 14.1154 83.0918 14.7542 83.0918 15.5565V19.1557H82.4536V12.3968H83.0661V13.8601C83.296 13.3858 83.6381 13.0142 84.0939 12.7462C84.549 12.4791 85.0874 12.3447 85.7085 12.3447C86.5423 12.3447 87.2015 12.5905 87.687 13.083H87.6862Z" fill="black"/>
<path d="M91.0424 9.54782H91.6806V19.1549H91.0424V9.54782Z" fill="black"/>
<path d="M95.2737 18.7668C94.7672 18.4735 94.3697 18.0656 94.0806 17.5431C93.7915 17.0206 93.6466 16.4316 93.6466 15.7755C93.6466 15.1194 93.7915 14.5304 94.0806 14.0079C94.3697 13.4854 94.7679 13.0783 95.2737 12.7842C95.7802 12.4909 96.3474 12.3439 96.9779 12.3439C97.6083 12.3439 98.1755 12.4909 98.682 12.7842C99.1886 13.0775 99.586 13.4854 99.8758 14.0079C100.165 14.5304 100.31 15.1194 100.31 15.7755C100.31 16.4316 100.165 17.0206 99.8758 17.5431C99.5867 18.0656 99.1886 18.4735 98.682 18.7668C98.1755 19.0601 97.6075 19.2071 96.9779 19.2071C96.3482 19.2071 95.7802 19.0601 95.2737 18.7668ZM98.3493 18.2617C98.753 18.0198 99.0724 17.6838 99.3062 17.2514C99.54 16.8198 99.6569 16.3281 99.6569 15.7755C99.6569 15.2229 99.54 14.7312 99.3062 14.2996C99.0724 13.868 98.753 13.5312 98.3493 13.2893C97.9449 13.0474 97.4875 12.9265 96.9771 12.9265C96.4667 12.9265 96.0093 13.0474 95.6048 13.2893C95.2004 13.5312 94.8817 13.868 94.6479 14.2996C94.4142 14.7312 94.2973 15.2237 94.2973 15.7755C94.2973 16.3273 94.4142 16.8198 94.6479 17.2514C94.8817 17.683 95.2012 18.0198 95.6048 18.2617C96.0093 18.5036 96.4667 18.6245 96.9771 18.6245C97.4875 18.6245 97.9449 18.5036 98.3493 18.2617Z" fill="black"/>
<path d="M106.41 12.9858C106.852 13.4134 107.074 14.0411 107.074 14.8696V19.1549H106.461V17.951C106.248 18.3478 105.938 18.6569 105.529 18.8767C105.121 19.0964 104.632 19.2071 104.061 19.2071C103.321 19.2071 102.736 19.03 102.306 18.6759C101.876 18.3217 101.662 17.8561 101.662 17.2775C101.662 16.6988 101.86 16.2609 102.256 15.9115C102.651 15.5621 103.283 15.3874 104.151 15.3874H106.435V14.8435C106.435 14.2134 106.267 13.7344 105.931 13.4063C105.595 13.0783 105.104 12.9146 104.457 12.9146C104.014 12.9146 103.591 12.9921 103.187 13.1478C102.782 13.3036 102.44 13.5107 102.159 13.7692L101.84 13.3028C102.172 13.0008 102.572 12.7652 103.04 12.5968C103.508 12.4285 103.997 12.3447 104.508 12.3447C105.334 12.3447 105.968 12.5581 106.411 12.9858H106.41ZM105.561 18.2877C105.948 18.0285 106.24 17.653 106.435 17.1613V15.8925H104.164C103.509 15.8925 103.034 16.0134 102.741 16.2553C102.447 16.4972 102.301 16.8293 102.301 17.2522C102.301 17.6751 102.462 18.0403 102.786 18.2941C103.109 18.5486 103.564 18.6759 104.152 18.6759C104.705 18.6759 105.175 18.5462 105.562 18.2877H105.561Z" fill="black"/>
<path d="M115.637 9.54782V19.1549H115.011V17.5621C114.747 18.0885 114.377 18.4941 113.901 18.7794C113.424 19.064 112.884 19.2071 112.28 19.2071C111.676 19.2071 111.097 19.0601 110.595 18.7668C110.093 18.4735 109.7 18.068 109.414 17.5494C109.129 17.0316 108.987 16.4403 108.987 15.7755C108.987 15.1107 109.129 14.5178 109.414 13.9953C109.7 13.4727 110.093 13.0672 110.595 12.7779C111.097 12.4885 111.659 12.3439 112.28 12.3439C112.901 12.3439 113.41 12.4862 113.882 12.7715C114.354 13.0561 114.727 13.4538 114.999 13.9628V9.54782H115.637ZM113.69 18.2617C114.094 18.0198 114.413 17.6838 114.647 17.2514C114.881 16.8198 114.998 16.3281 114.998 15.7755C114.998 15.2229 114.881 14.7312 114.647 14.2996C114.413 13.868 114.094 13.5312 113.69 13.2893C113.286 13.0474 112.828 12.9265 112.318 12.9265C111.808 12.9265 111.35 13.0474 110.946 13.2893C110.541 13.5312 110.223 13.868 109.989 14.2996C109.755 14.7312 109.638 15.2237 109.638 15.7755C109.638 16.3273 109.755 16.8198 109.989 17.2514C110.223 17.683 110.542 18.0198 110.946 18.2617C111.35 18.5036 111.808 18.6245 112.318 18.6245C112.828 18.6245 113.286 18.5036 113.69 18.2617Z" fill="black"/>
<path d="M122.51 18.7668C122.003 18.4735 121.606 18.0656 121.317 17.5431C121.028 17.0206 120.883 16.4316 120.883 15.7755C120.883 15.1194 121.028 14.5304 121.317 14.0079C121.606 13.4854 122.004 13.0783 122.51 12.7842C123.016 12.4909 123.583 12.3439 124.214 12.3439C124.844 12.3439 125.412 12.4909 125.918 12.7842C126.425 13.0775 126.822 13.4854 127.112 14.0079C127.401 14.5304 127.546 15.1194 127.546 15.7755C127.546 16.4316 127.401 17.0206 127.112 17.5431C126.823 18.0656 126.425 18.4735 125.918 18.7668C125.412 19.0601 124.843 19.2071 124.214 19.2071C123.584 19.2071 123.016 19.0601 122.51 18.7668ZM125.585 18.2617C125.989 18.0198 126.308 17.6838 126.542 17.2514C126.776 16.8198 126.893 16.3281 126.893 15.7755C126.893 15.2229 126.776 14.7312 126.542 14.2996C126.308 13.868 125.989 13.5312 125.585 13.2893C125.181 13.0474 124.723 12.9265 124.213 12.9265C123.703 12.9265 123.245 13.0474 122.841 13.2893C122.436 13.5312 122.118 13.868 121.884 14.2996C121.65 14.7312 121.533 15.2237 121.533 15.7755C121.533 16.3273 121.65 16.8198 121.884 17.2514C122.118 17.683 122.437 18.0198 122.841 18.2617C123.245 18.5036 123.703 18.6245 124.213 18.6245C124.723 18.6245 125.181 18.5036 125.585 18.2617Z" fill="black"/>
<path d="M134.756 13.083C135.241 13.5747 135.484 14.283 135.484 15.2063V19.1557H134.846V15.2585C134.846 14.4988 134.656 13.921 134.278 13.5233C133.899 13.1265 133.369 12.9281 132.689 12.9281C131.906 12.9281 131.289 13.1652 130.838 13.6403C130.387 14.1154 130.162 14.7542 130.162 15.5565V19.1557H129.524V12.3968H130.136V13.8601C130.366 13.3858 130.708 13.0142 131.164 12.7462C131.619 12.4791 132.157 12.3447 132.778 12.3447C133.612 12.3447 134.271 12.5905 134.757 13.083H134.756Z" fill="black"/>
<path d="M144.698 18.728C144.536 18.8838 144.335 19.0024 144.092 19.0838C143.85 19.166 143.597 19.2071 143.332 19.2071C142.753 19.2071 142.307 19.045 141.992 18.7217C141.677 18.3984 141.52 17.947 141.52 17.3684V12.9533H140.295V12.3968H141.52V10.9209H142.158V12.3968H144.277V12.9533H142.158V17.3043C142.158 17.7446 142.263 18.079 142.471 18.3075C142.679 18.5359 142.987 18.6506 143.396 18.6506C143.805 18.6506 144.158 18.5257 144.43 18.2751L144.698 18.728Z" fill="black"/>
<path d="M151.705 13.083C152.19 13.5747 152.433 14.283 152.433 15.2063V19.1557H151.795V15.2585C151.795 14.4988 151.606 13.9209 151.227 13.5233C150.848 13.1265 150.318 12.9281 149.638 12.9281C148.855 12.9281 148.239 13.1652 147.787 13.6403C147.336 14.1154 147.111 14.7541 147.111 15.5565V19.1557H146.473V9.54782H147.111V13.8079C147.341 13.3415 147.681 12.9818 148.132 12.7265C148.583 12.4719 149.114 12.3447 149.727 12.3447C150.561 12.3447 151.22 12.5905 151.705 13.083Z" fill="black"/>
<path d="M160.703 15.9312H154.973C154.99 16.4577 155.122 16.9265 155.369 17.336C155.616 17.7462 155.949 18.0632 156.371 18.2877C156.792 18.5122 157.266 18.6245 157.794 18.6245C158.228 18.6245 158.63 18.5447 159 18.385C159.37 18.2253 159.679 17.9897 159.926 17.679L160.296 18.1059C160.007 18.4601 159.643 18.732 159.205 18.9217C158.767 19.1115 158.292 19.2063 157.782 19.2063C157.118 19.2063 156.527 19.0593 156.008 18.766C155.489 18.4727 155.082 18.0672 154.789 17.5486C154.495 17.0308 154.349 16.4395 154.349 15.7747C154.349 15.1099 154.486 14.5296 154.763 14.0071C155.04 13.4846 155.421 13.0775 155.905 12.7834C156.39 12.4901 156.935 12.3431 157.539 12.3431C158.143 12.3431 158.685 12.4877 159.166 12.7771C159.647 13.0664 160.025 13.4696 160.302 13.9873C160.579 14.5051 160.717 15.0925 160.717 15.7486L160.704 15.9296L160.703 15.9312ZM156.274 13.2316C155.899 13.4435 155.599 13.7407 155.374 14.1249C155.149 14.5091 155.019 14.9431 154.984 15.4261H160.09C160.064 14.9431 159.936 14.5115 159.707 14.1312C159.478 13.7518 159.175 13.4538 158.801 13.2379C158.426 13.0221 158.006 12.9146 157.537 12.9146C157.069 12.9146 156.648 13.0205 156.274 13.2316Z" fill="black"/>
<path d="M62.8402 39.1921H55.206L53.7012 42.7763H50.7783L57.6489 27.2878H60.4409L67.3333 42.7763H64.3667L62.8402 39.1921ZM61.902 36.9352L59.0227 30.1644L56.1652 36.9352H61.902Z" fill="black"/>
<path d="M78.5114 31.5802C79.406 32.0822 80.1073 32.7897 80.6162 33.7043C81.125 34.619 81.3798 35.6735 81.3798 36.8688C81.3798 38.064 81.125 39.1225 80.6162 40.0443C80.1073 40.966 79.4052 41.6783 78.5114 42.1794C77.6169 42.6814 76.6031 42.932 75.4685 42.932C73.8983 42.932 72.6547 42.4008 71.7391 41.3391V47.0704H69.0125V30.9621H71.6082V32.5107C72.0586 31.9502 72.6149 31.5296 73.2765 31.249C73.9381 30.9692 74.669 30.8285 75.4685 30.8285C76.6031 30.8285 77.6169 31.0798 78.5114 31.581V31.5802ZM77.6387 39.5462C78.2855 38.868 78.6096 37.9755 78.6096 36.8688C78.6096 35.7621 78.2862 34.8704 77.6387 34.1913C76.9911 33.513 76.1667 33.1731 75.163 33.1731C74.5085 33.1731 73.9202 33.3249 73.3965 33.6269C72.8729 33.9296 72.4583 34.3613 72.1536 34.9217C71.8482 35.4822 71.6954 36.1312 71.6954 36.8688C71.6954 37.6063 71.8482 38.2553 72.1536 38.8158C72.4591 39.3763 72.8736 39.8079 73.3965 40.1107C73.9202 40.4134 74.5085 40.5644 75.163 40.5644C76.1667 40.5644 76.9911 40.2253 77.6387 39.5462Z" fill="black"/>
<path d="M93.4744 31.5802C94.369 32.0822 95.0703 32.7897 95.5791 33.7043C96.0879 34.619 96.3428 35.6735 96.3428 36.8688C96.3428 38.064 96.0879 39.1225 95.5791 40.0443C95.0703 40.966 94.3682 41.6783 93.4744 42.1794C92.5798 42.6814 91.566 42.932 90.4315 42.932C88.8613 42.932 87.6176 42.4008 86.702 41.3391V47.0704H83.9755V30.9621H86.5711V32.5107C87.0215 31.9502 87.5779 31.5296 88.2395 31.249C88.901 30.9692 89.632 30.8285 90.4315 30.8285C91.566 30.8285 92.5798 31.0798 93.4744 31.581V31.5802ZM92.6016 39.5462C93.2484 38.868 93.5726 37.9755 93.5726 36.8688C93.5726 35.7621 93.2492 34.8704 92.6016 34.1913C91.9541 33.513 91.1297 33.1731 90.126 33.1731C89.4714 33.1731 88.8831 33.3249 88.3595 33.6269C87.8358 33.9296 87.4213 34.3613 87.1166 34.9217C86.8111 35.4822 86.6584 36.1312 86.6584 36.8688C86.6584 37.6063 86.8111 38.2553 87.1166 38.8158C87.422 39.3763 87.8366 39.8079 88.3595 40.1107C88.8831 40.4134 89.4714 40.5644 90.126 40.5644C91.1297 40.5644 91.9541 40.2253 92.6016 39.5462Z" fill="black"/>
<path d="M106.538 42.4893C105.44 42.1502 104.572 41.7004 103.932 41.1399L104.914 38.9051C105.539 39.4071 106.306 39.8158 107.215 40.1328C108.123 40.4506 109.036 40.6087 109.952 40.6087C111.086 40.6087 111.933 40.4245 112.493 40.0553C113.053 39.687 113.333 39.2 113.333 38.5953C113.333 38.1526 113.177 37.7874 112.864 37.4996C112.552 37.2119 112.155 36.9874 111.676 36.8245C111.196 36.6625 110.542 36.4783 109.713 36.2711C108.55 35.9913 107.608 35.7107 106.888 35.43C106.168 35.1502 105.55 34.7107 105.034 34.1138C104.518 33.5162 104.26 32.7091 104.26 31.6909C104.26 30.8356 104.489 30.0569 104.947 29.3565C105.405 28.6561 106.096 28.0988 107.019 27.6862C107.943 27.2735 109.072 27.0664 110.411 27.0664C111.342 27.0664 112.258 27.185 113.16 27.4206C114.061 27.6569 114.839 27.996 115.493 28.4387L114.599 30.6735C113.929 30.2751 113.232 29.9731 112.505 29.766C111.778 29.5597 111.073 29.4561 110.389 29.4561C109.27 29.4561 108.437 29.6482 107.892 30.0316C107.346 30.415 107.074 30.9241 107.074 31.5581C107.074 32.0008 107.229 32.3621 107.543 32.6419C107.855 32.9225 108.252 33.1439 108.731 33.3059C109.211 33.4688 109.865 33.653 110.694 33.8593C111.829 34.1249 112.759 34.4016 113.486 34.6893C114.213 34.9771 114.835 35.4158 115.351 36.0055C115.867 36.596 116.125 37.3921 116.125 38.3953C116.125 39.2506 115.896 40.0253 115.438 40.7186C114.98 41.4119 114.286 41.9652 113.355 42.3779C112.425 42.7905 111.29 42.9976 109.953 42.9976C108.775 42.9976 107.637 42.8277 106.539 42.4885L106.538 42.4893Z" fill="black"/>
<path d="M125.678 42.1352C125.358 42.4008 124.969 42.6 124.511 42.7328C124.053 42.8656 123.57 42.932 123.061 42.932C121.782 42.932 120.793 42.5929 120.095 41.9138C119.397 41.2356 119.047 40.2474 119.047 38.9486V33.2617H117.128V31.049H119.047V28.3494H121.774V31.049H124.893V33.2617H121.774V38.8822C121.774 39.4577 121.912 39.8964 122.189 40.1984C122.464 40.5012 122.865 40.6522 123.388 40.6522C123.999 40.6522 124.508 40.4901 124.914 40.1652L125.678 42.1344V42.1352Z" fill="black"/>
<path d="M129.582 42.1573C128.637 41.6411 127.899 40.9217 127.368 40C126.837 39.0783 126.572 38.0348 126.572 36.8688C126.572 35.7028 126.837 34.664 127.368 33.7486C127.899 32.834 128.637 32.1186 129.582 31.6024C130.527 31.0862 131.589 30.8277 132.767 30.8277C133.945 30.8277 135.027 31.0862 135.973 31.6024C136.919 32.1186 137.656 32.834 138.187 33.7486C138.718 34.6632 138.983 35.7036 138.983 36.8688C138.983 38.034 138.718 39.0783 138.187 40C137.656 40.9217 136.919 41.6411 135.973 42.1573C135.028 42.6735 133.959 42.932 132.767 42.932C131.574 42.932 130.527 42.6743 129.582 42.1573ZM135.253 39.5462C135.908 38.868 136.235 37.9755 136.235 36.8688C136.235 35.7621 135.908 34.8704 135.253 34.1913C134.599 33.513 133.77 33.1731 132.767 33.1731C131.763 33.1731 130.938 33.5123 130.291 34.1913C129.644 34.8696 129.32 35.7621 129.32 36.8688C129.32 37.9755 129.644 38.868 130.291 39.5462C130.938 40.2245 131.763 40.5644 132.767 40.5644C133.77 40.5644 134.599 40.2253 135.253 39.5462Z" fill="black"/>
<path d="M148.34 30.8285V33.4617C148.107 33.4174 147.896 33.3953 147.707 33.3953C146.646 33.3953 145.817 33.7091 145.221 34.336C144.624 34.9628 144.326 35.8664 144.326 37.0466V42.7779H141.599V30.9621H144.195V32.6877C144.981 31.449 146.361 30.8292 148.339 30.8292L148.34 30.8285Z" fill="black"/>
<path d="M161.448 37.7541H152.309C152.469 38.6245 152.887 39.3138 153.563 39.8229C154.239 40.332 155.079 40.5866 156.082 40.5866C157.362 40.5866 158.416 40.1589 159.245 39.3036L160.706 41.0071C160.183 41.6419 159.521 42.1209 158.722 42.4451C157.922 42.77 157.021 42.932 156.017 42.932C154.737 42.932 153.61 42.6743 152.636 42.1573C151.662 41.6411 150.909 40.9217 150.378 40C149.848 39.0783 149.582 38.0348 149.582 36.8688C149.582 35.7028 149.84 34.6822 150.356 33.7597C150.872 32.8379 151.588 32.1186 152.505 31.6024C153.421 31.0862 154.453 30.8277 155.602 30.8277C156.752 30.8277 157.751 31.0822 158.645 31.5913C159.54 32.1004 160.237 32.8158 160.739 33.7375C161.241 34.6593 161.492 35.7257 161.492 36.9352C161.492 37.1273 161.477 37.4 161.448 37.7541ZM153.388 33.8269C152.785 34.351 152.418 35.0474 152.287 35.9178H158.896C158.779 35.0624 158.423 34.3692 157.827 33.8379C157.231 33.3067 156.489 33.0411 155.602 33.0411C154.716 33.0411 153.992 33.3028 153.388 33.8269Z" fill="black"/>
</g>
<defs>
<clipPath id="clip0_358_1013">
<rect width="188" height="58" fill="white"/>
</clipPath>
</defs>
</svg>
