<svg width="188" height="57" viewBox="0 0 188 57" fill="none" xmlns="http://www.w3.org/2000/svg">
<g clip-path="url(#clip0_358_1042)">
<rect width="188" height="57" fill="black" fill-opacity="0.2"/>
<rect width="188" height="57" fill="black" fill-opacity="0.2"/>
<path d="M7.26718 0H180.734C184.744 0 188.001 3.2466 188.001 7.24522V49.7548C188.001 53.7534 184.744 57 180.734 57H7.26718C3.25644 57 0 53.7534 0 49.7548V7.24522C0 3.2466 3.25644 0 7.26718 0Z" fill="white"/>
<path d="M58.4647 16.3185H53.2828L52.1467 18.8255H51.4446L55.5543 9.91849H56.205L60.3147 18.8255H59.6126L58.464 16.3185H58.4647ZM58.2224 15.7715L55.8738 10.6309L53.5384 15.7715H58.2224Z" fill="black"/>
<path d="M66.7489 12.1831L63.7363 18.8255H63.0857L60.0864 12.1831H60.7627L63.4176 18.1255L66.0982 12.1831H66.7489Z" fill="black"/>
<path d="M72.0835 12.7619C72.5261 13.1822 72.7474 13.799 72.7474 14.6132V18.8255H72.1349V17.6423C71.9222 18.0323 71.6113 18.336 71.2029 18.552C70.7946 18.768 70.3052 18.8767 69.7348 18.8767C68.9946 18.8767 68.4094 18.7027 67.98 18.3547C67.5499 18.0066 67.3356 17.549 67.3356 16.9804C67.3356 16.4117 67.5335 15.9813 67.9294 15.6379C68.3252 15.2945 68.9572 15.1228 69.8245 15.1228H72.1092V14.5883C72.1092 13.9692 71.9409 13.4984 71.605 13.176C71.2692 12.8535 70.7775 12.6927 70.1307 12.6927C69.6881 12.6927 69.265 12.7689 68.8605 12.9219C68.4561 13.075 68.114 13.2785 67.8327 13.5325L67.514 13.0742C67.846 12.7774 68.2457 12.5459 68.714 12.3804C69.1816 12.2149 69.671 12.1326 70.1821 12.1326C71.0073 12.1326 71.6416 12.3424 72.0843 12.7627L72.0835 12.7619ZM71.2349 17.9724C71.6222 17.7176 71.9136 17.3486 72.1092 16.8654V15.6185H69.8369C69.1816 15.6185 68.707 15.7373 68.414 15.9751C68.1203 16.2128 67.9738 16.5391 67.9738 16.9547C67.9738 17.3704 68.1351 17.7293 68.4585 17.9794C68.7818 18.2296 69.2369 18.3547 69.8245 18.3547C70.3777 18.3547 70.8476 18.2273 71.2349 17.9732V17.9724Z" fill="black"/>
<path d="M75.3259 10.4204C75.2239 10.3233 75.1724 10.2021 75.1724 10.0576C75.1724 9.91306 75.2239 9.79031 75.3259 9.68854C75.428 9.58677 75.5511 9.53549 75.6961 9.53549C75.841 9.53549 75.9641 9.58444 76.0662 9.68155C76.1683 9.77943 76.2197 9.89985 76.2197 10.0444C76.2197 10.1889 76.1683 10.3116 76.0662 10.4134C75.9641 10.5151 75.841 10.5664 75.6961 10.5664C75.5511 10.5664 75.428 10.5175 75.3259 10.4204ZM75.3766 12.1831H76.0148V18.8255H75.3766V12.1831Z" fill="black"/>
<path d="M78.7078 9.38321H79.346V18.8247H78.7078V9.38321Z" fill="black"/>
<path d="M86.1869 12.7619C86.6295 13.1822 86.8508 13.799 86.8508 14.6132V18.8255H86.2384V17.6423C86.0256 18.0323 85.7147 18.336 85.3064 18.552C84.8981 18.768 84.4087 18.8767 83.8383 18.8767C83.098 18.8767 82.5128 18.7027 82.0835 18.3547C81.6533 18.0066 81.439 17.549 81.439 16.9804C81.439 16.4117 81.637 15.9813 82.0328 15.6379C82.4287 15.2945 83.0606 15.1228 83.9279 15.1228H86.2126V14.5883C86.2126 13.9692 86.0443 13.4984 85.7085 13.176C85.3718 12.8535 84.8809 12.6927 84.2342 12.6927C83.7915 12.6927 83.3684 12.7689 82.964 12.9219C82.5596 13.075 82.2175 13.2785 81.937 13.5325L81.6183 13.0742C81.9502 12.7774 82.35 12.5459 82.8183 12.3804C83.2858 12.2149 83.7752 12.1326 84.2864 12.1326C85.1116 12.1326 85.7459 12.3424 86.1885 12.7627L86.1869 12.7619ZM85.3383 17.9724C85.7256 17.7176 86.0171 17.3486 86.2126 16.8654V15.6185H83.9404C83.285 15.6185 82.8105 15.7373 82.5175 15.9751C82.2237 16.2128 82.0772 16.5391 82.0772 16.9547C82.0772 17.3704 82.2385 17.7293 82.5619 17.9794C82.8853 18.2296 83.3404 18.3547 83.9279 18.3547C84.4812 18.3547 84.9511 18.2273 85.3383 17.9732V17.9724Z" fill="black"/>
<path d="M94.5085 12.5583C95.0103 12.8427 95.4038 13.2412 95.689 13.7547C95.9742 14.2683 96.1168 14.8509 96.1168 15.5043C96.1168 16.1576 95.9742 16.7387 95.689 17.2476C95.4038 17.7565 95.0103 18.1558 94.5085 18.444C94.0066 18.7322 93.4448 18.8767 92.8237 18.8767C92.2027 18.8767 91.69 18.7346 91.2092 18.4502C90.7284 18.1659 90.3559 17.7697 90.0925 17.2608V18.8262H89.48V9.38321H90.1182V13.6972C90.3816 13.2055 90.7518 12.8217 91.2286 12.5459C91.7048 12.2701 92.237 12.1326 92.8237 12.1326C93.4448 12.1326 94.0066 12.2748 94.5085 12.5591V12.5583ZM94.164 17.9476C94.5724 17.7099 94.8934 17.3797 95.128 16.9547C95.3617 16.5305 95.4786 16.0473 95.4786 15.5043C95.4786 14.9612 95.3617 14.478 95.128 14.0538C94.8942 13.6297 94.5731 13.2987 94.164 13.061C93.7557 12.8233 93.296 12.7044 92.7856 12.7044C92.2752 12.7044 91.8178 12.8233 91.4133 13.061C91.0089 13.2987 90.6902 13.6297 90.4564 14.0538C90.2226 14.478 90.1058 14.962 90.1058 15.5043C90.1058 16.0465 90.2226 16.5305 90.4564 16.9547C90.6902 17.3789 91.0097 17.7099 91.4133 17.9476C91.8178 18.1853 92.2752 18.3042 92.7856 18.3042C93.296 18.3042 93.7557 18.1853 94.164 17.9476Z" fill="black"/>
<path d="M98.0945 9.38321H98.7327V18.8247H98.0945V9.38321Z" fill="black"/>
<path d="M107.054 15.6565H101.324C101.341 16.1739 101.473 16.6346 101.72 17.0371C101.967 17.4403 102.3 17.7518 102.722 17.9724C103.143 18.1931 103.617 18.3034 104.145 18.3034C104.579 18.3034 104.981 18.2249 105.351 18.068C105.721 17.9111 106.03 17.6796 106.277 17.3742L106.647 17.7945C106.358 18.1426 105.994 18.4098 105.556 18.5963C105.118 18.7827 104.643 18.876 104.133 18.876C103.469 18.876 102.877 18.7315 102.359 18.4432C101.84 18.155 101.433 17.7557 101.14 17.2468C100.846 16.738 100.7 16.1569 100.7 15.5035C100.7 14.8501 100.837 14.2799 101.114 13.7664C101.391 13.2529 101.772 12.852 102.256 12.5638C102.741 12.2755 103.286 12.131 103.89 12.131C104.494 12.131 105.036 12.2732 105.517 12.5576C105.998 12.8419 106.376 13.2381 106.653 13.747C106.93 14.2558 107.067 14.833 107.067 15.4779L107.055 15.6558L107.054 15.6565ZM102.625 13.0035C102.25 13.2117 101.95 13.5038 101.725 13.8814C101.5 14.2589 101.37 14.6854 101.335 15.1601H106.441C106.415 14.6854 106.287 14.2613 106.058 13.8876C105.828 13.5147 105.526 13.2218 105.152 13.0097C104.777 12.7976 104.356 12.692 103.888 12.692C103.42 12.692 102.999 12.7961 102.625 13.0035Z" fill="black"/>
<path d="M113.225 18.4432C112.719 18.155 112.321 17.7541 112.032 17.2406C111.743 16.7271 111.598 16.1483 111.598 15.5035C111.598 14.8587 111.743 14.2799 112.032 13.7664C112.321 13.2529 112.719 12.852 113.225 12.5638C113.732 12.2755 114.299 12.131 114.929 12.131C115.56 12.131 116.127 12.2755 116.633 12.5638C117.14 12.852 117.537 13.2529 117.827 13.7664C118.116 14.2799 118.261 14.8587 118.261 15.5035C118.261 16.1483 118.116 16.7271 117.827 17.2406C117.538 17.7541 117.14 18.155 116.633 18.4432C116.127 18.7315 115.559 18.876 114.929 18.876C114.3 18.876 113.732 18.7315 113.225 18.4432ZM116.301 17.9468C116.704 17.7091 117.024 17.3789 117.258 16.9539C117.491 16.5298 117.608 16.0465 117.608 15.5035C117.608 14.9605 117.491 14.4772 117.258 14.0531C117.024 13.6289 116.704 13.2979 116.301 13.0602C115.896 12.8225 115.439 12.7036 114.928 12.7036C114.418 12.7036 113.961 12.8225 113.556 13.0602C113.152 13.2979 112.833 13.6289 112.599 14.0531C112.366 14.4772 112.249 14.9612 112.249 15.5035C112.249 16.0458 112.366 16.5298 112.599 16.9539C112.833 17.3781 113.153 17.7091 113.556 17.9468C113.961 18.1845 114.418 18.3034 114.928 18.3034C115.439 18.3034 115.896 18.1845 116.301 17.9468Z" fill="black"/>
<path d="M125.472 12.8574C125.956 13.3407 126.199 14.0368 126.199 14.9442V18.8255H125.561V14.9954C125.561 14.2488 125.372 13.6809 124.993 13.2902C124.614 12.9002 124.084 12.7052 123.404 12.7052C122.621 12.7052 122.005 12.9382 121.553 13.4051C121.102 13.8721 120.877 14.4998 120.877 15.2883V18.8255H120.239V12.1831H120.851V13.6211C121.081 13.155 121.423 12.7899 121.879 12.5265C122.334 12.2639 122.873 12.1318 123.494 12.1318C124.328 12.1318 124.987 12.3734 125.472 12.8574H125.472Z" fill="black"/>
<path d="M135.414 18.4052C135.252 18.5582 135.05 18.6748 134.808 18.7548C134.565 18.8356 134.312 18.876 134.048 18.876C133.469 18.876 133.022 18.7167 132.708 18.399C132.393 18.0804 132.235 17.6376 132.235 17.0689V12.73H131.01V12.1831H132.235V10.7327H132.874V12.1831H134.992V12.73H132.874V17.0052C132.874 17.438 132.978 17.7666 133.186 17.9911C133.394 18.2156 133.703 18.3283 134.112 18.3283C134.521 18.3283 134.873 18.2055 135.146 17.9592L135.414 18.4044V18.4052Z" fill="black"/>
<path d="M142.421 12.8574C142.905 13.3407 143.149 14.0367 143.149 14.9441V18.8255H142.51V14.9954C142.51 14.2488 142.321 13.6809 141.942 13.2902C141.564 12.9002 141.034 12.7052 140.353 12.7052C139.57 12.7052 138.954 12.9382 138.503 13.4051C138.052 13.872 137.826 14.4998 137.826 15.2883V18.8255H137.188V9.38321H137.826V13.5698C138.056 13.1115 138.396 12.758 138.847 12.5071C139.298 12.2569 139.83 12.1318 140.442 12.1318C141.276 12.1318 141.935 12.3734 142.421 12.8574Z" fill="black"/>
<path d="M151.419 15.6565H145.688C145.705 16.1739 145.837 16.6346 146.084 17.0371C146.331 17.4403 146.664 17.7518 147.086 17.9724C147.508 18.1931 147.981 18.3034 148.509 18.3034C148.943 18.3034 149.345 18.2249 149.715 18.068C150.085 17.9111 150.394 17.6796 150.641 17.3742L151.011 17.7945C150.722 18.1426 150.358 18.4098 149.92 18.5963C149.482 18.7827 149.008 18.876 148.497 18.876C147.833 18.876 147.242 18.7315 146.723 18.4432C146.204 18.155 145.797 17.7557 145.504 17.2468C145.21 16.738 145.064 16.1569 145.064 15.5035C145.064 14.8501 145.202 14.2799 145.478 13.7664C145.755 13.2529 146.136 12.852 146.621 12.5638C147.106 12.2755 147.65 12.131 148.254 12.131C148.858 12.131 149.4 12.2732 149.881 12.5576C150.362 12.8419 150.741 13.2381 151.017 13.747C151.294 14.2558 151.432 14.833 151.432 15.4779L151.419 15.6558L151.419 15.6565ZM146.989 13.0035C146.615 13.2117 146.315 13.5038 146.089 13.8814C145.864 14.2589 145.734 14.6854 145.7 15.1601H150.805C150.78 14.6854 150.652 14.2613 150.423 13.8876C150.193 13.5147 149.891 13.2218 149.516 13.0097C149.142 12.7976 148.721 12.692 148.253 12.692C147.784 12.692 147.363 12.7961 146.989 13.0035Z" fill="black"/>
<path d="M61.6121 34.4315H64.2342V40.3607C63.4667 40.9698 62.5713 41.4374 61.5482 41.763C60.5251 42.0885 59.4731 42.2516 58.3931 42.2516C56.872 42.2516 55.5013 41.9222 54.2795 41.2634C53.0568 40.6046 52.0976 39.6941 51.4017 38.5327C50.7051 37.3712 50.3575 36.0606 50.3575 34.6009C50.3575 33.1411 50.7059 31.8313 51.4017 30.669C52.0976 29.5076 53.0607 28.5971 54.2904 27.9383C55.5192 27.2795 56.9016 26.9501 58.4367 26.9501C59.6874 26.9501 60.8243 27.156 61.8474 27.5662C62.8706 27.9771 63.7301 28.5792 64.4267 29.3724L62.6789 31.0723C61.542 29.9388 60.1705 29.3724 58.5653 29.3724C57.5133 29.3724 56.579 29.5923 55.7623 30.0312C54.9449 30.4702 54.3052 31.087 53.8439 31.8802C53.3818 32.6742 53.1511 33.58 53.1511 34.6001C53.1511 35.6201 53.3818 36.4848 53.8439 37.278C54.3052 38.072 54.9449 38.695 55.7623 39.148C56.579 39.6017 57.5063 39.8277 58.5442 39.8277C59.7092 39.8277 60.7323 39.5729 61.6137 39.0625V34.4299L61.6121 34.4315Z" fill="black"/>
<path d="M69.6266 41.4444C68.7024 40.9488 67.9816 40.2581 67.4626 39.3725C66.9436 38.4876 66.6849 37.4847 66.6849 36.3652C66.6849 35.2457 66.9444 34.2474 67.4626 33.3687C67.9808 32.4901 68.7024 31.8033 69.6266 31.3077C70.55 30.812 71.5879 30.5642 72.7388 30.5642C73.8898 30.5642 74.948 30.812 75.8722 31.3077C76.7956 31.8041 77.5171 32.4908 78.0361 33.3687C78.5543 34.2474 78.8138 35.2465 78.8138 36.3652C78.8138 37.4839 78.5543 38.4868 78.0361 39.3725C77.5171 40.2581 76.7963 40.9488 75.8722 41.4444C74.948 41.9409 73.9038 42.1879 72.7388 42.1879C71.5739 42.1879 70.55 41.9401 69.6266 41.4444ZM75.1685 38.9367C75.8083 38.2849 76.1278 37.4279 76.1278 36.3652C76.1278 35.3024 75.8083 34.4455 75.1685 33.7937C74.5288 33.1419 73.7191 32.8164 72.7388 32.8164C71.7586 32.8164 70.9513 33.1427 70.3193 33.7937C69.6866 34.4455 69.371 35.3024 69.371 36.3652C69.371 37.4279 69.6873 38.2849 70.3193 38.9367C70.9513 39.5885 71.7578 39.914 72.7388 39.914C73.7199 39.914 74.5295 39.5885 75.1685 38.9367Z" fill="black"/>
<path d="M83.3755 41.4444C82.4513 40.9488 81.7305 40.2581 81.2115 39.3725C80.6925 38.4876 80.4338 37.4847 80.4338 36.3652C80.4338 35.2457 80.6933 34.2474 81.2115 33.3687C81.7297 32.4901 82.4513 31.8033 83.3755 31.3077C84.2989 30.812 85.3368 30.5642 86.4878 30.5642C87.6387 30.5642 88.6969 30.812 89.6211 31.3077C90.5445 31.8041 91.266 32.4908 91.785 33.3687C92.3032 34.2474 92.5627 35.2465 92.5627 36.3652C92.5627 37.4839 92.3032 38.4868 91.785 39.3725C91.266 40.2581 90.5452 40.9488 89.6211 41.4444C88.6969 41.9409 87.6527 42.1879 86.4878 42.1879C85.3228 42.1879 84.2989 41.9401 83.3755 41.4444ZM88.9174 38.9367C89.5572 38.2849 89.8767 37.4279 89.8767 36.3652C89.8767 35.3024 89.5572 34.4455 88.9174 33.7937C88.2777 33.1419 87.468 32.8164 86.4878 32.8164C85.5075 32.8164 84.7002 33.1427 84.0682 33.7937C83.4355 34.4455 83.1199 35.3024 83.1199 36.3652C83.1199 37.4279 83.4362 38.2849 84.0682 38.9367C84.7002 39.5885 85.5067 39.914 86.4878 39.914C87.4688 39.914 88.2784 39.5885 88.9174 38.9367Z" fill="black"/>
<path d="M106.418 30.6908V40.318C106.418 44.3135 104.371 46.3108 100.279 46.3108C99.1847 46.3108 98.1467 46.1726 97.1664 45.8968C96.1861 45.6202 95.3757 45.2201 94.736 44.6957L95.9298 42.6983C96.4269 43.1093 97.0558 43.4387 97.8163 43.6865C98.5761 43.9344 99.3475 44.0587 100.129 44.0587C101.379 44.0587 102.296 43.7751 102.879 43.2087C103.462 42.6416 103.753 41.7777 103.753 40.6163V40.0212C103.297 40.5176 102.743 40.8929 102.09 41.1477C101.436 41.4025 100.718 41.5299 99.9366 41.5299C98.8566 41.5299 97.8794 41.2999 97.0059 40.8392C96.1324 40.3793 95.4428 39.7306 94.9386 38.8947C94.4344 38.0588 94.1819 37.1024 94.1819 36.0257C94.1819 34.9489 94.4344 33.9965 94.9386 33.1675C95.4428 32.3386 96.1324 31.6977 97.0059 31.244C97.8802 30.791 98.8566 30.5642 99.9366 30.5642C100.76 30.5642 101.511 30.6994 102.186 30.9682C102.86 31.2377 103.425 31.6479 103.88 32.2011V30.6924H106.417L106.418 30.6908ZM102.826 38.3734C103.473 37.7713 103.796 36.989 103.796 36.0249C103.796 35.0608 103.473 34.3033 102.826 33.7082C102.179 33.1131 101.352 32.8156 100.343 32.8156C99.3335 32.8156 98.4841 33.1131 97.8381 33.7082C97.1914 34.3033 96.868 35.0755 96.868 36.0249C96.868 36.9742 97.1914 37.7713 97.8381 38.3734C98.4841 38.9755 99.3195 39.2769 100.343 39.2769C101.366 39.2769 102.179 38.9763 102.826 38.3734Z" fill="black"/>
<path d="M109.913 26.2703H112.577V42.0387H109.913V26.2703Z" fill="black"/>
<path d="M126.732 37.2151H117.8C117.956 38.051 118.365 38.7137 119.026 39.2024C119.686 39.691 120.507 39.9357 121.487 39.9357C122.738 39.9357 123.768 39.5248 124.578 38.7028L126.006 40.3389C125.495 40.948 124.847 41.4087 124.067 41.7202C123.285 42.0318 122.404 42.1879 121.423 42.1879C120.173 42.1879 119.072 41.9401 118.119 41.4444C117.167 40.9488 116.432 40.2581 115.913 39.3725C115.394 38.4876 115.136 37.4847 115.136 36.3652C115.136 35.2457 115.388 34.2653 115.892 33.3796C116.396 32.494 117.097 31.8033 117.992 31.3077C118.888 30.812 119.897 30.5642 121.019 30.5642C122.141 30.5642 123.118 30.8089 123.993 31.2976C124.866 31.7862 125.549 32.4738 126.039 33.3586C126.529 34.2443 126.774 35.2682 126.774 36.4297C126.774 36.6138 126.76 36.8756 126.732 37.2159V37.2151ZM118.855 33.4433C118.265 33.9467 117.907 34.6156 117.779 35.4516H124.238C124.124 34.6304 123.776 33.9638 123.194 33.4542C122.611 32.9446 121.886 32.689 121.02 32.689C120.153 32.689 119.446 32.9407 118.856 33.4433H118.855Z" fill="black"/>
<path d="M144.988 27.8008C145.948 28.2258 146.683 28.8348 147.194 29.628C147.706 30.422 147.962 31.3636 147.962 32.4543C147.962 33.5451 147.706 34.4696 147.194 35.2705C146.683 36.0707 145.948 36.6837 144.988 37.1087C144.029 37.5336 142.902 37.7465 141.61 37.7465H138.242V42.0395H135.471V27.1638H141.61C142.902 27.1638 144.029 27.3766 144.988 27.8016V27.8008ZM144.232 34.6436C144.857 34.1332 145.17 33.4037 145.17 32.4543C145.17 31.505 144.857 30.7755 144.232 30.2651C143.606 29.7547 142.69 29.4998 141.482 29.4998H138.242V35.4081H141.482C142.69 35.4081 143.606 35.1532 144.232 34.6428V34.6436Z" fill="black"/>
<path d="M150.69 26.2703H153.354V42.0387H150.69V26.2703Z" fill="black"/>
<path d="M165.046 31.7645C165.934 32.5654 166.378 33.7727 166.378 35.3879V42.0395H163.863V40.6582C163.536 41.1547 163.071 41.533 162.467 41.7948C161.863 42.0566 161.134 42.1879 160.282 42.1879C159.429 42.1879 158.683 42.0426 158.044 41.7521C157.404 41.4615 156.911 41.0583 156.562 40.5409C156.214 40.0243 156.04 39.4393 156.04 38.7875C156.04 37.7674 156.421 36.9494 157.18 36.3333C157.94 35.7172 159.138 35.4088 160.772 35.4088H163.713V35.2387C163.713 34.4455 163.475 33.8364 163 33.4115C162.524 32.9865 161.817 32.7736 160.879 32.7736C160.239 32.7736 159.61 32.8731 158.992 33.0712C158.374 33.2701 157.852 33.5459 157.425 33.9001L156.381 31.9665C156.978 31.5135 157.695 31.1663 158.534 30.9254C159.372 30.6846 160.261 30.5642 161.198 30.5642C162.875 30.5642 164.158 30.9643 165.046 31.7652V31.7645ZM162.616 39.7974C163.135 39.4929 163.501 39.0571 163.714 38.4907V37.1731H160.964C159.429 37.1731 158.662 37.6766 158.662 38.6818C158.662 39.1635 158.854 39.5465 159.238 39.8293C159.622 40.1129 160.155 40.2543 160.837 40.2543C161.52 40.2543 162.098 40.102 162.617 39.7974H162.616Z" fill="black"/>
<path d="M180.233 30.6908L174.904 42.9531C174.406 44.1861 173.803 45.0531 173.092 45.5565C172.382 46.0591 171.522 46.3108 170.513 46.3108C169.944 46.3108 169.383 46.2184 168.829 46.0343C168.275 45.8501 167.82 45.5953 167.465 45.269L168.531 43.3136C168.786 43.5544 169.088 43.7456 169.437 43.8877C169.785 44.0291 170.137 44.1006 170.492 44.1006C170.961 44.1006 171.348 43.9802 171.654 43.7393C171.959 43.4985 172.24 43.0945 172.496 42.5282L172.688 42.0823L167.721 30.6916H170.492L174.073 39.0858L177.676 30.6916H180.234L180.233 30.6908Z" fill="black"/>
<path d="M45.2372 27.7721L38.0744 23.6515L32.1833 29.329L37.5671 34.5178L45.2372 30.1043C45.6595 29.8619 45.912 29.4253 45.912 28.939C45.912 28.4526 45.6595 28.016 45.2372 27.7729V27.7721Z" fill="black"/>
<path d="M36.8588 22.9515L28.976 18.4153L11.7018 9.58987L31.2124 28.3928L36.8588 22.9515Z" fill="black"/>
<path d="M11.9886 48.7907L29.0056 39.4448L36.3515 35.2177L31.2124 30.2651L11.9886 48.7907Z" fill="black"/>
<path d="M10.5493 10.3504L10.5306 48.3245L30.2415 29.3282L10.5493 10.3504Z" fill="black"/>
</g>
<defs>
<clipPath id="clip0_358_1042">
<rect width="188" height="57" fill="white"/>
</clipPath>
</defs>
</svg>
