<svg width="137" height="34" viewBox="0 0 137 34" fill="none" xmlns="http://www.w3.org/2000/svg">
<path d="M5.27193 33.6199H0.0559082V0.337048L5.27193 0.674782V33.6199Z" fill="#A9A9A9"/>
<path d="M13.8108 33.6199H8.59475V9.88265L13.8108 10.1782V33.6199ZM11.2028 2.65997C12.8433 2.65997 14.1894 4.01158 14.1894 5.65881C14.1894 7.30626 12.8433 8.65788 11.2028 8.65788C9.56223 8.65788 8.21619 7.30626 8.21619 5.65881C8.21619 4.01158 9.56223 2.65997 11.2028 2.65997Z" fill="#A9A9A9"/>
<path d="M26.2619 14.6553V19.8927H22.3498V33.597H17.1338V7.55951C17.1338 3.58937 20.4148 -0.000904083 24.2848 -0.000904083C25.5887 -0.000904083 26.6404 0.379417 26.8929 0.548168L26.6824 5.57433H24.2848C23.2331 5.57433 22.3498 6.46136 22.3498 7.55951V14.6553H26.2619Z" fill="#A9A9A9"/>
<path d="M33.5879 19.2168H37.4999V16.7673C37.4999 15.6689 36.6164 14.782 35.5647 14.782C34.4711 14.782 33.5879 15.6689 33.5879 16.7673V19.2168ZM28.3717 16.7673C28.3717 12.7967 31.5686 9.54465 35.5647 9.54465C39.5189 9.54465 42.7158 12.7967 42.7158 16.7673V21.8358C42.7158 23.3139 41.538 24.4542 40.1079 24.4542H33.5879V26.7351C33.5879 27.833 34.4711 28.7203 35.5647 28.7203H40.5706L40.7389 33.1553L36.0276 33.8731C31.4844 34.6335 28.3717 30.7053 28.3717 26.7351V16.7673Z" fill="#A9A9A9"/>
<path d="M47.1763 33.6199V0.548164H50.5417V10.6005C51.467 10.3049 52.9393 10.1783 53.9488 10.1783C57.5244 10.1783 60.3006 13.4305 60.3006 17.1052V33.6199H57.0196V17.1052C57.0196 15.2889 55.5473 13.8528 53.7385 13.8528H50.5417V33.6199H47.1763Z" fill="#A9A9A9"/>
<path d="M72.6119 27.2421V21.54H69.3728C67.5642 21.54 66.134 22.9762 66.134 24.7921V27.2421C66.134 29.0581 67.5642 30.5363 69.3728 30.5363C71.1818 30.5363 72.6119 29.0581 72.6119 27.2421ZM72.6119 16.556C72.6119 14.6553 71.7284 13.1347 69.3308 13.3883H69.3728C68.0267 13.4305 66.3023 13.5994 64.872 13.6839C64.83 12.459 64.7879 11.9944 64.7459 11.0653C65.8815 10.6428 67.522 10.2204 68.9103 10.1782C73.1167 10.0938 75.8931 13.515 75.8931 17.1894V27.2421C75.8931 30.8743 72.9906 33.8732 69.3728 33.8732C65.7554 33.8732 62.7688 30.8743 62.7688 27.2421V25.1724C62.7688 21.54 65.2505 18.7947 69.3728 18.7947C70.9294 18.7947 71.7284 18.9636 72.6119 19.2168V16.556Z" fill="#A9A9A9"/>
<path d="M85.317 10.1782C88.9349 10.1782 91.9213 13.1347 91.9213 16.8094V17.2319C90.6173 17.2741 89.5656 17.2741 88.5983 17.3163V16.8094C88.5983 15.0355 87.1258 13.5573 85.317 13.5573C83.5504 13.5573 82.1199 15.0355 82.1199 16.8094V27.3688C82.1199 29.2271 83.5504 30.6211 85.317 30.6211C87.0839 30.6211 88.5561 29.2694 88.5983 27.4953C90.2386 27.6222 91.7951 27.7067 91.9213 27.7067C91.753 31.2123 88.8085 34 85.317 34C81.6996 34 78.7548 31.0433 78.7548 27.3688V16.8094C78.7548 13.1347 81.6996 10.1782 85.317 10.1782Z" fill="#A9A9A9"/>
<path d="M105.18 33.6199L98.786 22.4268C98.1548 21.3289 98.1548 21.2021 98.9121 19.8927L104.549 10.5162H108.377L102.025 21.3289L108.881 33.6199H105.18ZM97.9445 0.632652V33.6199H94.5793V0.632652H97.9445Z" fill="#A9A9A9"/>
<path d="M112.955 20.3995H119.434V16.8515C119.434 15.0355 117.961 13.5573 116.194 13.5573C114.386 13.5573 112.955 15.0355 112.955 16.8515V20.3995ZM109.59 16.8515C109.59 13.1771 112.535 10.1782 116.194 10.1782C119.812 10.1782 122.757 13.1771 122.757 16.8515V22.0469C122.757 23.0185 121.999 23.7363 121.074 23.7363H112.955V27.3263C112.955 29.1426 114.386 30.621 116.194 30.621H120.443C120.485 31.7189 120.527 32.4796 120.611 33.2395L116.573 33.8731C112.451 34.5912 109.59 31.0012 109.59 27.3263V16.8515Z" fill="#A9A9A9"/>
<path d="M129.074 33.6199H125.708V17.1473C125.708 13.4726 128.569 10.0516 132.775 10.1359C134.205 10.1782 135.089 10.5162 136.056 10.9808C136.014 11.9944 135.972 12.8392 135.93 13.5994L132.27 13.515C130.504 13.515 129.074 15.4157 129.074 17.1473V33.6199Z" fill="#A9A9A9"/>
</svg>
