<svg width="50" height="50" viewBox="0 0 50 50" fill="none" xmlns="http://www.w3.org/2000/svg">
<circle cx="25" cy="25" r="25" fill="#0073C7"/>
<path d="M17.7 33.22C16.3507 33.22 15.1993 32.9853 14.246 32.516C13.3073 32.0467 12.574 31.372 12.046 30.492C11.5327 29.5973 11.254 28.534 11.21 27.302C11.1953 26.6713 11.188 25.9967 11.188 25.278C11.188 24.5447 11.1953 23.8553 11.21 23.21C11.254 21.9927 11.5327 20.9513 12.046 20.086C12.574 19.2207 13.3147 18.5533 14.268 18.084C15.236 17.6147 16.38 17.38 17.7 17.38C18.7707 17.38 19.7093 17.5267 20.516 17.82C21.3227 18.0987 21.99 18.4653 22.518 18.92C23.0607 19.36 23.464 19.8367 23.728 20.35C24.0067 20.8633 24.1533 21.34 24.168 21.78C24.1827 21.912 24.146 22.022 24.058 22.11C23.97 22.198 23.8527 22.242 23.706 22.242H21.44C21.2933 22.242 21.1833 22.2127 21.11 22.154C21.0367 22.0953 20.9707 22.0073 20.912 21.89C20.7947 21.582 20.6113 21.2813 20.362 20.988C20.1127 20.68 19.7753 20.4233 19.35 20.218C18.9247 20.0127 18.3747 19.91 17.7 19.91C16.7027 19.91 15.9033 20.174 15.302 20.702C14.7153 21.23 14.4 22.1027 14.356 23.32C14.312 24.596 14.312 25.8867 14.356 27.192C14.4 28.4387 14.7227 29.3333 15.324 29.876C15.94 30.4187 16.7467 30.69 17.744 30.69C18.404 30.69 18.9907 30.5727 19.504 30.338C20.032 30.1033 20.4427 29.7367 20.736 29.238C21.044 28.7393 21.198 28.1013 21.198 27.324V26.642H18.514C18.3673 26.642 18.2427 26.5907 18.14 26.488C18.0373 26.3853 17.986 26.2533 17.986 26.092V24.926C17.986 24.7647 18.0373 24.6327 18.14 24.53C18.2427 24.4273 18.3673 24.376 18.514 24.376H23.772C23.9333 24.376 24.058 24.4273 24.146 24.53C24.2487 24.6327 24.3 24.7647 24.3 24.926V27.236C24.3 28.468 24.0287 29.5313 23.486 30.426C22.958 31.3207 22.1953 32.01 21.198 32.494C20.2153 32.978 19.0493 33.22 17.7 33.22ZM33.1043 33.22C31.755 33.22 30.6036 32.9853 29.6503 32.516C28.7116 32.0467 27.9783 31.372 27.4503 30.492C26.937 29.5973 26.6583 28.534 26.6143 27.302C26.5996 26.6713 26.5923 25.9967 26.5923 25.278C26.5923 24.5447 26.5996 23.8553 26.6143 23.21C26.6583 21.9927 26.937 20.9513 27.4503 20.086C27.9783 19.2207 28.719 18.5533 29.6723 18.084C30.6403 17.6147 31.7843 17.38 33.1043 17.38C34.175 17.38 35.1136 17.5267 35.9203 17.82C36.727 18.0987 37.3943 18.4653 37.9223 18.92C38.465 19.36 38.8683 19.8367 39.1323 20.35C39.411 20.8633 39.5576 21.34 39.5723 21.78C39.587 21.912 39.5503 22.022 39.4623 22.11C39.3743 22.198 39.257 22.242 39.1103 22.242H36.8443C36.6976 22.242 36.5876 22.2127 36.5143 22.154C36.441 22.0953 36.375 22.0073 36.3163 21.89C36.199 21.582 36.0156 21.2813 35.7663 20.988C35.517 20.68 35.1796 20.4233 34.7543 20.218C34.329 20.0127 33.779 19.91 33.1043 19.91C32.107 19.91 31.3076 20.174 30.7063 20.702C30.1196 21.23 29.8043 22.1027 29.7603 23.32C29.7163 24.596 29.7163 25.8867 29.7603 27.192C29.8043 28.4387 30.127 29.3333 30.7283 29.876C31.3443 30.4187 32.151 30.69 33.1483 30.69C33.8083 30.69 34.395 30.5727 34.9083 30.338C35.4363 30.1033 35.847 29.7367 36.1403 29.238C36.4483 28.7393 36.6023 28.1013 36.6023 27.324V26.642H33.9183C33.7716 26.642 33.647 26.5907 33.5443 26.488C33.4416 26.3853 33.3903 26.2533 33.3903 26.092V24.926C33.3903 24.7647 33.4416 24.6327 33.5443 24.53C33.647 24.4273 33.7716 24.376 33.9183 24.376H39.1763C39.3376 24.376 39.4623 24.4273 39.5503 24.53C39.653 24.6327 39.7043 24.7647 39.7043 24.926V27.236C39.7043 28.468 39.433 29.5313 38.8903 30.426C38.3623 31.3207 37.5996 32.01 36.6023 32.494C35.6196 32.978 34.4536 33.22 33.1043 33.22Z" fill="white"/>
</svg>
