<svg width="139" height="20" viewBox="0 0 139 20" fill="none" xmlns="http://www.w3.org/2000/svg">
<g clip-path="url(#clip0_266_433)">
<path d="M22.6714 17.6119V2.37476C22.6714 1.5835 22.8501 0.989408 23.2075 0.59391C23.5645 0.19829 24.027 6.29425e-05 24.5931 6.29425e-05C25.1772 6.29425e-05 25.6498 0.196213 26.0118 0.587473C26.3732 0.978815 26.5545 1.57425 26.5545 2.37476V17.6119C26.5545 18.412 26.3732 19.0102 26.0118 19.4059C25.6498 19.802 25.1772 20 24.5931 20C24.0353 20 23.5756 19.7997 23.2138 19.3995C22.8522 18.9992 22.6714 18.403 22.6714 17.6119Z" fill="#A9A9A9"/>
<path d="M128.161 4.05806C124.913 4.05806 122.271 6.72671 122.271 10.0065C122.271 13.2859 124.913 15.9544 128.161 15.9544C131.408 15.9544 134.05 13.2859 134.05 10.0065C134.05 6.72671 131.408 4.05806 128.161 4.05806ZM128.161 20C122.705 20 118.266 15.5167 118.266 10.0065C118.266 4.49556 122.705 0.0124702 128.161 0.0124702C133.617 0.0124702 138.055 4.49556 138.055 10.0065C138.055 15.5167 133.617 20 128.161 20Z" fill="#A9A9A9"/>
<path d="M83.7424 4.05806C80.4954 4.05806 77.8535 6.72671 77.8535 10.0065C77.8535 13.2859 80.4954 15.9544 83.7424 15.9544C86.9899 15.9544 89.6312 13.2859 89.6312 10.0065C89.6312 6.72671 86.9899 4.05806 83.7424 4.05806ZM83.7424 20C78.2865 20 73.848 15.5167 73.848 10.0065C73.848 4.49556 78.2865 0.0124702 83.7424 0.0124702C89.1984 0.0124702 93.6371 4.49556 93.6371 10.0065C93.6371 15.5167 89.1984 20 83.7424 20Z" fill="#A9A9A9"/>
<path d="M105.902 15.9055C105.424 15.937 104.909 15.9425 104.354 15.9425H101.757V4.05767H104.354C104.909 4.05767 105.424 4.06386 105.902 4.09458C107.62 4.30196 109.112 5.25683 110.049 6.62986C110.702 7.58586 111.087 8.74158 111.09 9.9881C111.09 9.99136 111.09 9.99454 111.09 9.99796V10.0023C111.09 10.0055 111.09 10.0088 111.09 10.012C111.087 11.2585 110.702 12.4143 110.049 13.3705C109.112 14.7435 107.62 15.6979 105.902 15.9055ZM115.096 10V9.99733C115.095 7.79179 114.383 5.75209 113.181 4.09713C111.433 1.69028 108.647 0.101591 105.495 0.00794601C105.397 0.00491142 105.3 6.29425e-05 105.201 6.29425e-05C105.195 6.29425e-05 100.232 0.00652122 100.232 0.00652122C99.3839 0.00652122 98.7696 0.201714 98.39 0.591854C98.0098 0.982077 97.8198 1.61261 97.8198 2.48411V17.516C97.8198 18.3874 98.0098 19.0178 98.39 19.4085C98.7696 19.7988 99.3839 19.9938 100.232 19.9938C100.232 19.9938 105.195 20 105.201 20C105.3 20 105.397 19.9951 105.495 19.9924C108.647 19.8985 111.433 18.3099 113.181 15.9029C114.383 14.248 115.095 12.2083 115.096 10.0028V10Z" fill="#A9A9A9"/>
<path d="M68.2443 0.0892143C67.5213 -0.137653 66.7402 0.14937 66.319 0.797424L60.3531 9.9762L54.3875 0.797424C53.9667 0.14937 53.1852 -0.137653 52.4622 0.0892143C51.7393 0.316328 51.2458 1.00455 51.2458 1.78469V18.0981C51.2458 19.0771 52.0144 19.8705 52.9619 19.8705C53.9101 19.8705 54.6785 19.0771 54.6785 18.0981V7.60673L58.9143 14.1231C58.9171 14.1276 58.92 14.1317 58.9228 14.1364L58.928 14.1442C58.9331 14.1522 58.9391 14.1593 58.9444 14.1674C58.9708 14.2064 58.998 14.2452 59.0281 14.2824C59.0412 14.2989 59.0549 14.3136 59.0684 14.3292C59.0922 14.3566 59.1152 14.3841 59.1404 14.4101C59.163 14.4335 59.1872 14.4554 59.2112 14.4778C59.2285 14.4937 59.2459 14.5107 59.264 14.5263C59.2979 14.555 59.3322 14.5807 59.3677 14.606C59.3778 14.6131 59.3867 14.6216 59.3969 14.6285C59.3982 14.6296 59.3996 14.6301 59.4014 14.6312C59.4391 14.6572 59.4782 14.6806 59.5182 14.7036C59.5291 14.71 59.5399 14.7176 59.551 14.7233C59.5807 14.7398 59.6113 14.7534 59.6424 14.7681C59.8161 14.85 59.998 14.9013 60.1811 14.9204C60.1827 14.9204 60.1837 14.9205 60.1847 14.921C60.2212 14.9242 60.2575 14.9249 60.2934 14.9265C60.3134 14.9272 60.3336 14.9291 60.3531 14.9291C60.3735 14.9291 60.3931 14.9272 60.413 14.9265C60.4496 14.9249 60.4857 14.9242 60.522 14.921C60.523 14.9205 60.5244 14.9204 60.5254 14.9204C60.7089 14.9013 60.8906 14.85 61.0645 14.7681C61.0951 14.7534 61.1262 14.7398 61.1557 14.7233C61.1672 14.7176 61.1774 14.71 61.1889 14.7036C61.2287 14.6806 61.2676 14.6572 61.3053 14.6312C61.3071 14.6301 61.3087 14.6296 61.3101 14.6285C61.3202 14.6216 61.3291 14.6131 61.339 14.606C61.3745 14.5807 61.4094 14.555 61.4429 14.5263C61.4612 14.5107 61.4782 14.4937 61.4963 14.4772C61.5197 14.4554 61.5437 14.4335 61.5663 14.4106C61.5919 14.3841 61.6149 14.3564 61.6385 14.329C61.6522 14.3136 61.6661 14.2985 61.6788 14.2824C61.7087 14.2452 61.7359 14.2064 61.7625 14.1674C61.7678 14.1593 61.7738 14.1522 61.7791 14.1442L61.7839 14.1364C61.7869 14.1317 61.7896 14.1276 61.7928 14.1231L66.028 7.60673V18.0981C66.028 19.0771 66.796 19.8705 67.7452 19.8705C68.6923 19.8705 69.4615 19.0771 69.4615 18.0981V1.78469C69.4615 1.00455 68.9674 0.316328 68.2443 0.0892143Z" fill="#A9A9A9"/>
<path d="M45.4041 19.3919H32.5734C31.8986 19.3919 31.1487 18.9655 30.871 18.3018C30.5931 17.6388 30.5362 16.7361 31.1338 16.0166L41.6294 3.71685H32.9584C32.0105 3.71685 31.2417 2.88762 31.2417 1.86454C31.2417 0.841482 32.0105 0.216671 32.9584 0.216671H44.651C45.3257 0.216671 46.0245 0.325045 46.635 1.00062C47.1929 1.61795 47.1683 2.95032 46.5434 3.74486L36.4024 15.6878H45.4041C46.3522 15.6878 47.0424 16.517 47.0424 17.5396C47.0424 18.5624 46.3522 19.3919 45.4041 19.3919Z" fill="#A9A9A9"/>
<path d="M9.87899 20C7.03182 20 4.44969 18.8598 2.60827 16.7894C0.985952 14.9653 0.0559082 12.5619 0.0559082 10.1952C0.0559082 2.76818 6.16858 0.000307083 10.0219 0.000307083C13.8104 0.000307083 16.5914 1.87672 16.7079 1.9562C17.5611 2.54107 17.7894 3.72282 17.2179 4.59566C16.6476 5.46555 15.498 5.70069 14.6456 5.12243C14.5959 5.09028 12.623 3.80501 10.0219 3.80501C7.60663 3.80501 4.27596 5.41501 4.27596 10.1952C4.27596 12.9146 6.27873 16.1221 9.95075 16.1221C12.0168 16.1221 13.4693 15.5661 14.3137 15.0234V12.195H11.4525C10.4255 12.195 9.59284 11.3435 9.59284 10.2926C9.59284 9.24203 10.4255 8.39026 11.4525 8.39026H16.1736C17.2005 8.39026 18.0332 9.24203 18.0332 10.2926V15.9509C18.0332 16.4656 17.8295 16.9577 17.4688 17.3162C16.222 18.5542 13.4861 20 9.87899 20Z" fill="#A9A9A9"/>
</g>
<defs>
<clipPath id="clip0_266_433">
<rect width="138" height="20" fill="white" transform="translate(0.0559082)"/>
</clipPath>
</defs>
</svg>
