<svg width="117" height="27" viewBox="0 0 117 27" fill="none" xmlns="http://www.w3.org/2000/svg">
<g clip-path="url(#clip0_255_487)">
<path fill-rule="evenodd" clip-rule="evenodd" d="M0.481673 1.09079C0.175804 1.40408 0 1.88626 0 2.51283V24.7996C0 25.4262 0.175804 25.9084 0.493108 26.2108L0.576007 26.2775L13.6798 13.7897V13.5091L0.564573 1.02405L0.481673 1.09079Z" fill="url(#paint0_linear_255_487)"/>
<path fill-rule="evenodd" clip-rule="evenodd" d="M18.0391 17.9686L13.6683 13.8019V13.5104L18.0406 9.34375L18.1349 9.3996L23.3061 12.2001C24.7868 12.9956 24.7868 14.3059 23.3061 15.1123L18.1349 17.9128C18.1335 17.9128 18.0391 17.9686 18.0391 17.9686Z" fill="url(#paint1_linear_255_487)"/>
<path fill-rule="evenodd" clip-rule="evenodd" d="M18.1335 17.913L13.6684 13.6564L0.481689 26.2232C0.963363 26.7163 1.77377 26.7721 2.67995 26.2899L18.1335 17.913Z" fill="url(#paint2_linear_255_487)"/>
<path fill-rule="evenodd" clip-rule="evenodd" d="M18.1335 9.40109L2.67995 1.03503C1.7752 0.541946 0.963363 0.608689 0.481689 1.10177L13.667 13.6563L18.1335 9.40109Z" fill="url(#paint3_linear_255_487)"/>
<path opacity="0.2" fill-rule="evenodd" clip-rule="evenodd" d="M18.0392 17.8228L2.69142 26.133C1.83385 26.6029 1.06917 26.5702 0.576063 26.1439L0.493164 26.2229L0.576063 26.2896C1.06917 26.7146 1.83385 26.7486 2.69142 26.2787L18.145 17.9127L18.0392 17.8228Z" fill="black"/>
<path opacity="0.12" fill-rule="evenodd" clip-rule="evenodd" d="M23.3046 14.9667L18.0276 17.8231L18.122 17.913L23.2932 15.1125C24.0336 14.7093 24.398 14.1835 24.398 13.6564C24.3509 14.1386 23.975 14.5976 23.3046 14.9667Z" fill="black"/>
<path opacity="0.25" fill-rule="evenodd" clip-rule="evenodd" d="M2.67993 1.18076L23.3047 12.3473C23.975 12.7055 24.351 13.1755 24.4096 13.6577C24.4096 13.1319 24.0451 12.6047 23.3047 12.2016L2.67993 1.03501C1.19918 0.228646 0 0.900165 0 2.5129V2.65864C0 1.04591 1.19918 0.385288 2.67993 1.18076Z" fill="white"/>
<path fill-rule="evenodd" clip-rule="evenodd" d="M29.4436 12.9492C29.4436 9.37915 32.5923 6.47241 36.3385 6.47241C38.4096 6.47241 39.8832 7.24745 40.9952 8.25677L39.6859 9.50446C38.8913 8.79344 37.8136 8.24179 36.3371 8.24179C33.6014 8.24179 31.4632 10.3408 31.4632 12.9479C31.4632 15.5549 33.6014 17.6567 36.3357 17.6567C38.1094 17.6567 39.1185 16.9783 39.766 16.3599C40.2963 15.8546 40.6436 15.1286 40.7779 14.1329H36.3385V12.3676H42.5874C42.6532 12.6836 42.6875 13.0623 42.6875 13.4723C42.6875 14.7976 42.3058 16.4417 41.0781 17.6117C39.8832 18.7968 38.3596 19.4288 36.3371 19.4288C32.5895 19.4288 29.4407 16.5248 29.4407 12.952L29.4436 12.9492ZM47.7386 11.0859C45.3188 11.0859 43.3435 12.8403 43.3435 15.2553C43.3435 17.658 45.3174 19.4247 47.7386 19.4247C50.1598 19.4247 52.1308 17.6553 52.1308 15.2539C52.1308 12.8389 50.1584 11.0845 47.7386 11.0859ZM47.7386 17.7847C46.4137 17.7847 45.2688 16.7427 45.2688 15.2566C45.2688 13.7556 46.4122 12.7286 47.7386 12.7286C49.0636 12.7286 50.207 13.7542 50.207 15.2566C50.207 16.7413 49.065 17.7847 47.7386 17.7847ZM57.3221 11.0859C54.9023 11.0859 52.9298 12.8403 52.9298 15.2553C52.9298 17.658 54.9023 19.4247 57.3221 19.4247C59.7419 19.4247 61.7143 17.6553 61.7143 15.2539C61.7143 12.8389 59.7433 11.0845 57.3221 11.0859ZM57.3221 17.7847C55.9971 17.7847 54.8522 16.7427 54.8522 15.2566C54.8522 13.7556 55.9957 12.7286 57.3221 12.7286C58.647 12.7286 59.7919 13.7542 59.7919 15.2566C59.7919 16.7413 58.647 17.7847 57.3221 17.7847ZM69.0837 11.3392V12.0175H69.018C68.5878 11.5258 67.7588 11.0845 66.7154 11.0845C64.5271 11.0845 62.519 12.9179 62.519 15.273C62.519 17.609 64.5257 19.4274 66.7154 19.4274C67.7588 19.4274 68.5878 18.9861 69.018 18.4807H69.0837V19.0801C69.0837 20.6751 68.189 21.5291 66.7468 21.5291C65.5691 21.5291 64.8402 20.7228 64.5414 20.0458L62.8663 20.7091C63.3465 21.8138 64.6243 23.1732 66.7454 23.1732C68.998 23.1732 70.9047 21.9078 70.9047 18.8281V11.3379L69.0837 11.3392ZM66.8798 17.7847C65.5548 17.7847 64.4414 16.725 64.4414 15.273C64.4414 13.8046 65.5534 12.7299 66.8798 12.7299C68.189 12.7299 69.2167 13.8033 69.2167 15.273C69.2181 16.725 68.1904 17.7847 66.8798 17.7847ZM72.2325 6.9151H74.1563V19.1741H72.2325V6.9151ZM79.429 17.7847C78.4514 17.7847 77.7539 17.357 77.3094 16.522L83.1609 14.2133L82.9594 13.7392C82.5963 12.8089 81.4843 11.0859 79.2132 11.0859C76.9592 11.0859 75.0854 12.7762 75.0854 15.2566C75.0854 17.5926 76.942 19.426 79.429 19.426C81.4357 19.426 82.5963 18.2587 83.0766 17.5777L81.5844 16.631C81.0856 17.327 80.4052 17.7861 79.429 17.7847ZM79.2789 12.6972C80.0407 12.6972 80.6868 13.0609 80.9026 13.5812L76.9892 15.13C76.9406 13.5186 78.2999 12.6972 79.2789 12.6972ZM91.6023 6.9151H87.0029V19.1741H88.9224V14.5306H91.6038C93.732 14.5306 95.8245 13.0623 95.8245 10.7222C95.8245 8.38617 93.7334 6.91646 91.6066 6.91646L91.6023 6.9151ZM91.6524 12.8239H88.9224V8.62045H91.6524C93.0874 8.62045 93.9049 9.75509 93.9049 10.7222C93.9049 11.6729 93.0874 12.8239 91.6524 12.8239ZM98.8017 19.1741V6.9151H96.8822V19.1741H98.8017ZM107.425 19.1523V14.453C107.425 12.2763 105.718 11.0627 103.516 11.0627C102.128 11.0627 100.688 11.6471 100.092 12.9397L101.796 13.6167C102.161 12.9397 102.838 12.7177 103.551 12.7177C104.543 12.7177 105.552 13.2857 105.568 14.2964V14.423C105.221 14.2337 104.477 13.949 103.566 13.949C101.729 13.949 99.8594 14.9107 99.8594 16.7086C99.8594 18.35 101.366 19.4056 103.054 19.4056C104.346 19.4056 105.056 18.854 105.502 18.2083H105.568V19.155H107.423L107.425 19.1523ZM103.287 17.782C102.658 17.782 101.78 17.4823 101.78 16.7427C101.78 15.796 102.874 15.431 103.817 15.431C104.662 15.431 105.058 15.604 105.572 15.841C105.425 16.9416 104.449 17.7684 103.287 17.782ZM114.175 11.331L111.974 16.6446H111.908L109.624 11.331H107.556L110.981 18.76L109.027 22.8912H111.029L116.308 11.331H114.175Z" fill="#808285"/>
</g>
<defs>
<linearGradient id="paint0_linear_255_487" x1="12.5031" y1="2.27327" x2="-8.34716" y2="8.1029" gradientUnits="userSpaceOnUse">
<stop stop-color="#00A0FF"/>
<stop offset="0.007" stop-color="#00A1FF"/>
<stop offset="0.26" stop-color="#00BEFF"/>
<stop offset="0.512" stop-color="#00D2FF"/>
<stop offset="0.76" stop-color="#00DFFF"/>
<stop offset="1" stop-color="#00E3FF"/>
</linearGradient>
<linearGradient id="paint1_linear_255_487" x1="25.233" y1="13.6568" x2="-0.359925" y2="13.6568" gradientUnits="userSpaceOnUse">
<stop stop-color="#FFE000"/>
<stop offset="0.409" stop-color="#FFBD00"/>
<stop offset="0.775" stop-color="#FFA500"/>
<stop offset="1" stop-color="#FF9C00"/>
</linearGradient>
<linearGradient id="paint2_linear_255_487" x1="15.7055" y1="15.972" x2="0.0261318" y2="43.6632" gradientUnits="userSpaceOnUse">
<stop stop-color="#FF3A44"/>
<stop offset="1" stop-color="#C31162"/>
</linearGradient>
<linearGradient id="paint3_linear_255_487" x1="-2.83773" y1="-6.3228" x2="4.15704" y2="6.04403" gradientUnits="userSpaceOnUse">
<stop stop-color="#32A071"/>
<stop offset="0.069" stop-color="#2DA771"/>
<stop offset="0.476" stop-color="#15CF74"/>
<stop offset="0.801" stop-color="#06E775"/>
<stop offset="1" stop-color="#00F076"/>
</linearGradient>
<clipPath id="clip0_255_487">
<rect width="116.308" height="27" fill="white"/>
</clipPath>
</defs>
</svg>
