<svg width="179" height="212" viewBox="0 0 179 212" fill="none" xmlns="http://www.w3.org/2000/svg">
<g filter="url(#filter0_d_257_332)">
<rect width="151" height="184" rx="5" transform="matrix(-1 0 0 1 165 10)" fill="white"/>
</g>
<rect x="14" y="58" width="4" height="88" fill="#0073C7"/>
<g clip-path="url(#clip0_257_332)">
<g filter="url(#filter1_d_257_332)">
<path d="M57.8416 96.4351C57.8416 96.4351 57.9525 123.668 89.3724 141.114V119.72C89.3724 119.72 71.3261 113.714 57.8416 96.4351Z" fill="#0073C7"/>
<path d="M110.193 123.741C110.193 123.741 98.9456 124.203 89.3724 119.718V141.113C89.3724 141.113 97.4321 138.415 110.193 123.739V123.741Z" fill="#005DA0"/>
<path d="M121.903 69.6165C121.857 68.787 121.098 68.1949 120.294 68.3475C119.856 68.4308 119.414 68.5094 118.976 68.5803C116.323 69.0121 113.638 69.2433 110.952 69.211C110.286 69.2032 109.62 69.1786 108.955 69.1385C109.639 69.6643 110.318 70.1962 110.988 70.742C114.697 73.764 118.048 76.9957 120.947 80.343C121.347 80.8025 121.739 81.265 122.12 81.7291C122.225 76.2803 122.034 71.849 121.905 69.6134L121.903 69.6165Z" fill="#0F163D"/>
<path d="M114.158 78.7078C112.605 77.1875 110.926 75.6796 109.168 74.2272C107.387 72.7933 105.542 71.4288 103.685 70.1676C103.528 70.0611 103.315 69.8856 103.079 69.6781C101.816 68.5696 100.367 67.6494 98.7906 67.0693C97.3531 66.5373 95.9536 65.9036 94.6118 65.1636C93.5952 64.6008 92.6075 63.9764 91.6699 63.2825C91.3265 63.0281 90.9861 62.7629 90.6594 62.4869C90.3373 62.2233 90.0349 61.8872 89.5957 61.8625C89.5319 61.8594 89.4711 61.8733 89.4088 61.8825V112.849C92.2489 114.183 95.1269 115.299 98.0095 116.174C102.573 117.55 106.903 118.247 110.882 118.247C111.204 118.247 111.529 118.243 111.842 118.233C112.775 118.203 113.685 118.126 114.57 118.007C119.605 109.792 121.405 98.4941 121.947 87.9942C120.938 86.4956 119.827 85.0092 118.609 83.546C117.13 81.7729 115.676 80.1895 114.159 78.7078H114.158Z" fill="#0B6EB6"/>
<path d="M88.5199 62.3405C87.9835 62.7784 87.444 63.207 86.8803 63.6094C85.8759 64.3156 84.8243 64.9493 83.7363 65.512C82.3292 66.2429 80.8689 66.8581 79.3706 67.3653C77.5411 67.9836 75.6599 68.4384 73.7574 68.7391C71.4811 69.103 69.1759 69.2495 66.8753 69.2078C64.1325 69.1646 61.4004 68.8563 58.7032 68.3459C57.9008 68.1933 57.1441 68.7807 57.0909 69.6118C56.9557 71.8459 56.7551 76.2833 56.8523 81.7368C57.0514 82.2116 57.2626 82.6881 57.4875 83.1691C59.1712 86.7446 61.49 90.3001 64.3772 93.7369C65.8603 95.5007 67.319 97.0749 68.8371 98.5474C70.3946 100.06 72.0783 101.559 73.8334 102.997C75.6295 104.451 77.4651 105.82 79.2871 107.068C81.0877 108.301 83.0069 109.481 85.1556 110.675C86.5597 111.457 87.9804 112.179 89.4088 112.849V61.8826C89.0745 61.9319 88.7737 62.1308 88.5199 62.342V62.3405Z" fill="#0D85DC"/>
</g>
</g>
<defs>
<filter id="filter0_d_257_332" x="0" y="0" width="179" height="212" filterUnits="userSpaceOnUse" color-interpolation-filters="sRGB">
<feFlood flood-opacity="0" result="BackgroundImageFix"/>
<feColorMatrix in="SourceAlpha" type="matrix" values="0 0 0 0 0 0 0 0 0 0 0 0 0 0 0 0 0 0 127 0" result="hardAlpha"/>
<feOffset dy="4"/>
<feGaussianBlur stdDeviation="7"/>
<feComposite in2="hardAlpha" operator="out"/>
<feColorMatrix type="matrix" values="0 0 0 0 0 0 0 0 0 0 0 0 0 0 0 0 0 0 0.05 0"/>
<feBlend mode="normal" in2="BackgroundImageFix" result="effect1_dropShadow_257_332"/>
<feBlend mode="normal" in="SourceGraphic" in2="effect1_dropShadow_257_332" result="shape"/>
</filter>
<filter id="filter1_d_257_332" x="48.8266" y="53.8621" width="81.3239" height="95.2522" filterUnits="userSpaceOnUse" color-interpolation-filters="sRGB">
<feFlood flood-opacity="0" result="BackgroundImageFix"/>
<feColorMatrix in="SourceAlpha" type="matrix" values="0 0 0 0 0 0 0 0 0 0 0 0 0 0 0 0 0 0 127 0" result="hardAlpha"/>
<feOffset/>
<feGaussianBlur stdDeviation="4"/>
<feColorMatrix type="matrix" values="0 0 0 0 0.34902 0 0 0 0 0.192157 0 0 0 0 1 0 0 0 0.3 0"/>
<feBlend mode="normal" in2="BackgroundImageFix" result="effect1_dropShadow_257_332"/>
<feBlend mode="normal" in="SourceGraphic" in2="effect1_dropShadow_257_332" result="shape"/>
</filter>
<clipPath id="clip0_257_332">
<rect width="69" height="83" fill="white" transform="translate(55 60)"/>
</clipPath>
</defs>
</svg>
