<svg width="107" height="20" viewBox="0 0 107 20" fill="none" xmlns="http://www.w3.org/2000/svg">
<path d="M0 0.00537109H20.0625V19.9947H0V0.00537109ZM21.7344 0.00537109H41.7969V19.9947H21.7344V0.00537109ZM43.4688 0.00537109H63.5312V19.9947H43.4688V0.00537109ZM65.2031 0.00537109H85.2656V19.9947H65.2031V0.00537109ZM86.9375 0.00537109H107V19.9947H86.9375V0.00537109Z" fill="#00B67A"/>
<path d="M10.0313 13.4773L13.0824 12.7069L14.3572 16.6215L10.0313 13.4773ZM17.0531 8.41752H11.6823L10.0313 3.37854L8.3803 8.41752H3.0094L7.35627 11.5409L5.7053 16.5798L10.0522 13.4565L12.7272 11.5409L17.0531 8.41752ZM31.7656 13.4773L34.8168 12.7069L36.0916 16.6215L31.7656 13.4773ZM38.7875 8.41752H33.4166L31.7656 3.37854L30.1147 8.41752H24.7438L29.0906 11.5409L27.4397 16.5798L31.7865 13.4565L34.4615 11.5409L38.7875 8.41752ZM53.5 13.4773L56.5512 12.7069L57.826 16.6215L53.5 13.4773ZM60.5219 8.41752H55.151L53.5 3.37854L51.849 8.41752H46.4781L50.825 11.5409L49.174 16.5798L53.5209 13.4565L56.1959 11.5409L60.5219 8.41752ZM75.2344 13.4773L78.2856 12.7069L79.5604 16.6215L75.2344 13.4773ZM82.2563 8.41752H76.8854L75.2344 3.37854L73.5834 8.41752H68.2125L72.5594 11.5409L70.9084 16.5798L75.2553 13.4565L77.9303 11.5409L82.2563 8.41752ZM96.9688 13.4773L100.02 12.7069L101.295 16.6215L96.9688 13.4773ZM103.991 8.41752H98.6197L96.9688 3.37854L95.3178 8.41752H89.9469L94.2938 11.5409L92.6428 16.5798L96.9897 13.4565L99.6647 11.5409L103.991 8.41752Z" fill="white"/>
</svg>
