<svg width="116" height="48" viewBox="0 0 116 48" fill="none" xmlns="http://www.w3.org/2000/svg">
<path d="M63.4012 1.46643H67.4896V4.55121C67.5798 5.53953 67.2792 6.43801 66.7982 7.24664C66.1068 8.05527 65.2951 8.62431 64.3031 9.0436L63.4012 7.36644C64.0025 7.15679 64.5135 6.76745 64.9043 6.37811C65.2049 6.07861 65.2951 5.68927 65.4154 5.18014H63.4914V1.49638H63.4012V1.46643Z" fill="#A9A9A9"/>
<path d="M0 5.2698H1.80368V2.18502L7.99632 0.208374V5.2698H11.1828V9.64239H7.99632V15.6023V16.1114V16.6206C7.99632 17.0099 8.0865 17.4292 8.20675 17.8185C8.29693 18.2079 8.59755 18.3277 9.10859 18.3277C9.4092 18.3277 9.8 18.2378 10.1006 18.118C10.4914 18.0282 10.9123 17.9084 11.2129 17.7287V21.8617L10.311 22.1612C9.92025 22.251 9.49939 22.251 9.10859 22.3708L7.99632 22.4607H7.18466C6.19264 22.4607 5.20061 22.3708 4.29877 21.9515C3.60736 21.652 3.09632 21.1429 2.70552 20.5739C2.31472 19.885 2.10429 19.1962 2.01411 18.3876C1.92393 17.4891 1.92393 16.5906 1.80368 15.5124V9.55254H0V5.2698Z" fill="#A9A9A9"/>
<path d="M21.1632 18.0881C21.554 18.0881 21.8546 17.9982 22.1552 17.7886C22.4558 17.4891 22.7564 17.1896 22.8466 16.8901C23.057 16.3809 23.2374 15.9916 23.3576 15.5124C23.4478 14.9134 23.5681 14.3144 23.4478 13.7155C23.4478 13.1165 23.3576 12.5175 23.2374 11.9185C23.1472 11.4094 22.9368 10.9302 22.7264 10.5408C22.5159 10.1515 22.3356 9.85201 21.9147 9.55252C21.6141 9.34287 21.2233 9.25302 20.8024 9.25302C20.5018 9.25302 20.111 9.34287 19.9006 9.55252C19.6 9.85201 19.2994 10.1515 19.2092 10.451C18.9988 10.8403 18.9086 11.3495 18.8184 11.8287C18.7282 12.4276 18.608 12.9368 18.608 13.5058C18.608 14.6139 18.8184 15.782 19.2994 16.8002C19.6601 17.4891 20.3816 17.9982 21.1632 18.0881ZM21.1632 22.3708C19.9607 22.3708 18.7583 22.1612 17.6761 21.8617C16.5638 21.4723 15.5718 20.9632 14.6699 20.1845C13.7681 19.3759 13.0767 18.5073 12.5656 17.3992C12.0546 16.2013 11.754 14.8236 11.754 13.5358C11.754 12.248 12.0546 11.05 12.5656 9.85201C13.0767 8.86368 13.7681 7.87536 14.6699 7.15658C15.5718 6.46774 16.5638 5.86876 17.5558 5.47942C18.6681 5.09008 19.8405 4.88043 20.9527 4.88043C22.2454 4.88043 23.4478 5.09008 24.6503 5.47942C25.7626 5.86876 26.7546 6.46774 27.6564 7.27637C28.5583 8.085 29.1595 8.95354 29.6405 10.0617C30.1515 11.2596 30.3319 12.5474 30.3319 13.8353C30.3319 15.1231 30.1215 16.321 29.6405 17.519C29.1294 18.5073 28.5282 19.4957 27.6564 20.2145C26.7546 20.9033 25.7626 21.5023 24.7705 21.8018C23.5681 22.1611 22.3656 22.3708 21.1632 22.3708Z" fill="#A9A9A9"/>
<path d="M42.9436 21.8617H32.9632V17.4891H34.346V9.64236H33.0534V5.26977H39.3362L40.0276 7.24642L40.6288 6.64744C40.9295 6.34795 41.2301 6.04845 41.5307 5.8388C41.9215 5.53931 42.3423 5.32967 42.7331 5.14998C43.2442 4.94033 43.7252 4.85048 44.2362 4.85048C44.9276 4.85048 45.619 4.94033 46.3405 5.14998C46.8515 5.23982 47.3325 5.53932 47.7233 5.74896C48.0239 5.95861 48.4147 6.25809 48.6252 6.55759C48.8356 6.85708 49.016 7.06673 49.1362 7.24642C49.7374 6.64744 50.4288 6.04845 51.1203 5.65911C52.0221 5.14997 53.0141 4.85048 54.1264 4.85048C55.2387 4.76064 56.411 5.06012 57.4331 5.53931C58.2448 5.92865 58.816 6.52764 59.327 7.33627C59.7178 8.1449 60.0184 8.92357 60.1387 9.82205C60.2288 10.8104 60.3491 11.7987 60.3491 12.817V17.3992H61.9423V21.8617H53.465V13.7155V13.0266V12.218V11.2297C53.465 10.9302 53.3749 10.6307 53.2546 10.3312C53.1644 10.1215 53.0442 9.94185 52.8638 9.73221C52.6834 9.52256 52.473 9.52256 52.1724 9.52256C51.5712 9.43271 51.0601 9.73221 50.7896 10.2114C50.489 10.8104 50.3988 11.4094 50.489 12.0084V17.3693H52.473V21.8617H43.8755V13.416C43.8755 12.4276 43.8755 11.4393 43.665 10.5408C43.5749 9.94186 43.0638 9.55252 42.4626 9.64236C42.0718 9.64236 41.5607 9.7322 41.2601 10.1515C40.9595 10.6606 40.8693 11.1398 40.8693 11.649V17.6089H42.8534V21.8617H42.9436Z" fill="#A9A9A9"/>
<path d="M67.5798 21.8617V15.9018H72.0589C72.0589 16.2911 72.1491 16.7104 72.4497 17.0099C72.7503 17.3094 73.0509 17.519 73.4417 17.6987C73.8325 17.9084 74.2534 17.9982 74.6442 18.0881C74.9448 18.1779 75.3356 18.1779 75.6362 18.1779C75.9368 18.1779 76.3276 18.0881 76.6282 17.9683C76.9289 17.7586 77.1393 17.4591 77.1393 17.0698C77.1393 16.7703 76.9289 16.4708 76.4479 16.2612C75.8466 16.0515 75.3356 15.8718 74.7644 15.752C74.073 15.5424 73.2614 15.3627 72.4798 15.153C71.6681 14.9434 70.8865 14.5541 70.1951 14.1647C69.5037 13.7754 68.9025 13.1764 68.5117 12.4876C68.0006 11.6789 67.8203 10.6906 67.8203 9.79213C67.8203 8.9835 68.0307 8.29467 68.4215 7.60583C68.8123 7.00685 69.3233 6.49771 69.9246 6.10837C70.5258 5.71903 71.127 5.41954 71.8184 5.20989C72.4196 4.9104 73.0209 4.82056 73.6221 4.82056C74.7344 4.82056 75.7264 5.12004 76.7184 5.62918C77.5301 6.01852 78.2215 6.61751 78.6123 7.42614L78.9129 5.23984H83.0012V11.1997H78.6123C78.6123 10.8104 78.5221 10.5109 78.3117 10.2114C78.1012 9.91193 77.8006 9.61243 77.5 9.40279C77.1994 9.19314 76.8086 9.01345 76.3877 8.8038C75.9969 8.71396 75.5761 8.59416 75.1853 8.59416C74.8847 8.59416 74.4939 8.68401 74.2835 8.89366C73.9828 9.1033 73.8927 9.49264 73.8927 9.79213C73.8927 10.1815 74.1933 10.6008 74.5841 10.6906C75.1853 10.9901 75.7865 11.1997 76.3877 11.2896L78.6724 11.9784C79.4841 12.1881 80.2657 12.5774 80.9571 12.9667C81.6485 13.3561 82.2497 13.9551 82.7608 14.6439C83.2718 15.3327 83.4522 16.2312 83.4522 17.1297C83.4522 17.8185 83.2417 18.5074 82.9411 19.2261C82.6405 19.8251 82.1295 20.4241 81.5583 20.8135C80.9571 21.3226 80.2657 21.6221 79.5742 21.8018C78.7626 22.0114 77.981 22.1013 77.2896 22.1013C76.1773 22.1013 75.0951 21.8916 74.1031 21.4124C73.2914 21.0231 72.6 20.4241 72.119 19.7353L71.8184 21.7119L67.5798 21.8617Z" fill="#A9A9A9"/>
<path d="M25.2228 32.3677C25.2228 32.8768 25.3129 33.356 25.4332 33.8652C25.5234 34.3743 25.7338 34.7636 25.9442 35.153C26.1547 35.5423 26.335 35.8418 26.7559 36.0515C27.0565 36.2611 27.3571 36.4408 27.7479 36.4408C28.4393 36.4408 29.0405 36.0515 29.4313 35.4525C29.9424 34.554 30.243 33.6555 30.1228 32.5773C30.1228 31.9784 30.0326 31.3794 29.9123 30.9002C29.8221 30.391 29.6117 29.9119 29.4013 29.5225C29.1908 29.1332 29.0105 28.8337 28.5896 28.624C28.289 28.4144 27.9884 28.3245 27.5976 28.3245C26.9062 28.3245 26.2148 28.8337 25.9142 29.4327C25.3129 30.2712 25.1326 31.2596 25.2228 32.3677ZM20.3228 41.023L21.2246 41.622C21.6154 41.9215 22.1264 42.1311 22.6074 42.3108C23.1185 42.5205 23.7197 42.7002 24.2908 42.9098C24.8921 43.1195 25.5835 43.1195 26.1847 43.1195C26.7859 43.1195 27.4774 43.0296 28.0786 42.82C28.4694 42.6103 28.8902 42.4306 29.281 42.0114C29.5816 41.7119 29.7921 41.4124 29.8823 41.023C29.9724 40.6337 30.0927 40.3342 30.0927 39.9149V38.8068C30.0025 39.0164 29.7921 39.1961 29.5816 39.3159C29.3712 39.5256 29.0706 39.7053 28.77 39.9149C28.3792 40.1245 28.0786 40.3042 27.6577 40.424C27.1467 40.5139 26.6657 40.6337 26.1547 40.6337C24.862 40.6337 23.6596 40.424 22.4571 39.9449C21.4651 39.5555 20.6534 38.8367 19.962 38.058C19.3608 37.2494 18.8497 36.3809 18.5792 35.3626C18.2786 34.3743 18.0682 33.386 18.1884 32.2778C18.1884 31.0799 18.3988 29.8819 18.6994 28.8037C19.0001 27.8154 19.6013 26.9169 20.2927 26.1083C20.9841 25.2997 21.8859 24.7306 22.878 24.4311C23.9902 24.0418 25.1626 23.8322 26.3651 23.8322C27.0565 23.8322 27.7479 24.0418 28.4694 24.3413C28.9804 24.5509 29.4614 24.8504 29.9725 25.2398L30.6639 24.2515H38.6602V28.624H36.6761V38.5672C36.6761 39.855 36.4657 41.1428 36.0749 42.3408C35.6841 43.4489 34.9626 44.4372 34.181 45.2159C33.2792 46.0246 32.0767 46.7134 30.8743 47.1027C29.3712 47.6119 27.8682 47.7916 26.2749 47.7916C25.3731 47.7916 24.5915 47.7017 23.6896 47.4921C22.9982 47.2824 22.1866 47.1027 21.4951 46.6834C20.8939 46.3839 20.2927 46.0844 19.8117 45.6951L18.6093 44.7966L20.3228 41.023Z" fill="#A9A9A9"/>
<path d="M40.9829 24.2215H49.0694V32.2778C49.0694 33.386 49.1596 34.4641 49.4602 35.4525C49.6706 36.0514 50.2719 36.4408 50.843 36.4408C51.4443 36.4408 51.9553 36.1413 52.3461 35.752C52.7369 35.2428 52.9473 34.554 52.9473 33.955V28.6839H50.7528V24.2215H59.4406V36.4408H61.0338V40.9032H54.751L53.8492 38.8068L53.1578 39.6154C52.5565 40.3042 51.7749 40.8134 50.8731 41.1129C50.2719 41.3225 49.6706 41.4124 49.0694 41.4124C47.9571 41.4124 46.8749 41.3225 45.8829 40.9032C45.0712 40.6037 44.3798 40.0946 43.7786 39.4058C43.1774 38.5971 42.7866 37.8185 42.6663 36.8301C42.4559 35.6322 42.3657 34.4342 42.3657 33.2362V28.654H40.9829V24.2215Z" fill="#A9A9A9"/>
<path d="M72.7356 40.8134H63.4467V36.4408H64.8595V28.4743H63.4467V24.2215H71.2325V36.5306H72.8258L72.7356 40.8134Z" fill="#A9A9A9"/>
<path d="M81.6117 32.3678C81.6117 32.8769 81.7019 33.3561 81.8221 33.8652C81.9123 34.3743 82.1227 34.7637 82.3332 35.153C82.5436 35.5424 82.724 35.8419 83.1448 36.0515C83.4454 36.2612 83.7461 36.4409 84.1369 36.4409C84.8283 36.4409 85.4295 36.0515 85.8203 35.4525C86.3313 34.5541 86.6319 33.6556 86.5117 32.5774C86.5117 31.9784 86.4215 31.3794 86.3013 30.9002C86.2111 30.3911 86.0007 29.9119 85.7902 29.5226C85.5798 29.1332 85.3994 28.8337 84.9786 28.6241C84.678 28.4145 84.3773 28.3246 83.9866 28.3246C83.2951 28.3246 82.6037 28.8337 82.3031 29.4327C81.8221 30.2713 81.5215 31.2596 81.6117 32.3678ZM86.4215 20.2383H84.9184V15.8657H93.1853V36.5606H94.7786V40.9332H86.9927L86.3915 39.7353C86.181 39.9449 86.0908 40.0348 85.8804 40.1246C85.5798 40.3343 85.2792 40.5139 84.9786 40.6337C84.5878 40.8434 84.1669 40.9332 83.7761 41.0231C83.2651 41.1129 82.7841 41.2327 82.1829 41.2327C81.0706 41.2327 79.9884 41.0231 78.9964 40.5439C78.0945 40.0348 77.1927 39.4358 76.5914 38.6571C75.9 37.8485 75.389 36.8601 74.9982 35.8718C74.6074 34.7637 74.397 33.6855 74.397 32.4876C74.397 31.2896 74.6074 30.0916 74.9982 29.0134C75.389 28.0251 75.9902 27.1266 76.6816 26.318C77.373 25.6292 78.1847 25.0302 79.1767 24.6408C80.0786 24.2515 81.0706 24.0419 82.0626 24.0419C82.9645 24.0419 83.9565 24.1317 84.8583 24.551C85.3694 24.7606 85.8503 25.0601 86.3614 25.3596V20.2383H86.4215Z" fill="#A9A9A9"/>
<path d="M106.669 28.1748C106.278 28.1748 105.767 28.2647 105.376 28.4743C105.076 28.684 104.775 28.8637 104.565 29.1632C104.354 29.4627 104.264 29.7622 104.174 30.0616C104.084 30.3611 104.084 30.5708 104.084 30.8703H109.164C109.164 30.5708 109.164 30.1814 109.074 29.8819C108.984 29.5825 108.863 29.283 108.683 28.9835C108.472 28.684 108.292 28.4743 107.992 28.3845C107.571 28.2946 107.18 28.1748 106.669 28.1748ZM114.966 38.5373C113.763 39.5256 112.471 40.3342 110.968 40.8134C109.465 41.3226 107.871 41.5023 106.278 41.4124C105.166 41.4124 104.174 41.2028 103.182 40.9033C102.19 40.6038 101.198 40.0048 100.386 39.316C99.4841 38.5073 98.7927 37.6388 98.2817 36.5307C97.6805 35.2429 97.47 33.8353 97.47 32.4576C97.47 31.1698 97.6805 29.9718 98.1615 28.7738C98.5523 27.7855 99.2737 26.7972 100.055 25.9885C100.837 25.1799 101.859 24.6109 102.941 24.3114C104.053 23.922 105.226 23.7124 106.549 23.7124C107.751 23.7124 109.044 23.922 110.246 24.3114C111.238 24.7007 112.14 25.2099 112.952 25.9885C113.643 26.6774 114.244 27.5759 114.545 28.4743C114.936 29.4627 115.056 30.5708 115.056 31.649C115.056 32.0383 115.056 32.5474 114.966 32.9368L114.665 34.1347H104.084C104.174 34.4342 104.174 34.6439 104.294 34.9434C104.384 35.2429 104.595 35.5424 104.805 35.8418C105.106 36.1413 105.406 36.4408 105.797 36.5307C106.308 36.7403 106.909 36.8302 107.48 36.8302H108.472C108.863 36.8302 109.284 36.7403 109.585 36.6205C109.976 36.5307 110.487 36.321 110.877 36.1114C111.388 35.9017 111.779 35.6023 112.17 35.2129L114.966 38.5373Z" fill="#A9A9A9"/>
</svg>
