<svg width="112" height="27" viewBox="0 0 112 27" fill="none" xmlns="http://www.w3.org/2000/svg">
<path d="M28.8187 9.90002H40.1794V11.9319H35.7062V23.3858H33.2544V11.9319H28.8L28.8187 9.90002ZM39.6928 13.6221H41.789V15.5101H41.8264C41.9013 15.2404 42.0323 14.9887 42.2194 14.7369C42.4066 14.4852 42.6312 14.2514 42.9119 14.0536C43.1739 13.8379 43.4734 13.676 43.8103 13.5502C44.1285 13.4243 44.4654 13.3524 44.8022 13.3524C45.0643 13.3524 45.2514 13.3704 45.345 13.3704C45.4386 13.3884 45.5509 13.4063 45.6445 13.4063V15.4742C45.4947 15.4382 45.3263 15.4202 45.1579 15.4022C44.9894 15.3842 44.8397 15.3663 44.6712 15.3663C44.2969 15.3663 43.9413 15.4382 43.6044 15.582C43.2675 15.7259 42.9868 15.9417 42.7248 16.2114C42.4815 16.4991 42.2756 16.8407 42.1258 17.2543C41.9761 17.6678 41.9013 18.1533 41.9013 18.6928V23.3319H39.6553L39.6928 13.6221ZM55.9383 23.3858H53.7298V22.0193H53.6924C53.4117 22.5227 52.9999 22.9003 52.4571 23.206C51.9144 23.5117 51.3529 23.6555 50.7914 23.6555C49.4626 23.6555 48.4893 23.3499 47.8904 22.7025C47.2915 22.0732 46.992 21.1022 46.992 19.8256V13.6221H49.238V19.6098C49.238 20.4729 49.4064 21.0843 49.762 21.4259C50.0989 21.7855 50.5855 21.9653 51.2031 21.9653C51.6711 21.9653 52.0641 21.8934 52.3823 21.7496C52.7004 21.6057 52.9625 21.4259 53.1496 21.1921C53.3555 20.9584 53.4865 20.6707 53.5801 20.347C53.6737 20.0234 53.7111 19.6637 53.7111 19.2861V13.6221H55.957V23.3858H55.9383ZM59.7564 20.2571C59.8313 20.8865 60.0746 21.318 60.5051 21.5877C60.9355 21.8395 61.4596 21.9653 62.0585 21.9653C62.2644 21.9653 62.5077 21.9473 62.7697 21.9114C63.0317 21.8754 63.2938 21.8215 63.5183 21.7316C63.7617 21.6417 63.9488 21.5158 64.0985 21.336C64.2483 21.1562 64.3231 20.9404 64.3044 20.6707C64.2857 20.401 64.1921 20.1672 63.9862 19.9874C63.7804 19.8076 63.5371 19.6817 63.2376 19.5559C62.9381 19.448 62.5825 19.3581 62.1895 19.2861C61.7965 19.2142 61.4034 19.1243 60.9917 19.0344C60.5799 18.9445 60.1682 18.8366 59.7751 18.7108C59.3821 18.5849 59.0452 18.4231 58.727 18.1893C58.4276 17.9735 58.1655 17.7038 57.9971 17.3622C57.8099 17.0205 57.7164 16.6249 57.7164 16.1215C57.7164 15.582 57.8474 15.1505 58.1281 14.7909C58.3901 14.4313 58.7457 14.1436 59.1575 13.9278C59.5692 13.712 60.0372 13.5502 60.5425 13.4603C61.0478 13.3704 61.5344 13.3344 61.9836 13.3344C62.5077 13.3344 63.013 13.3884 63.4809 13.4962C63.9488 13.6041 64.398 13.766 64.7723 14.0177C65.1654 14.2514 65.4835 14.5751 65.7268 14.9527C65.9889 15.3303 66.1386 15.7978 66.2135 16.3372H63.874C63.7617 15.8158 63.5183 15.4742 63.144 15.2943C62.751 15.1145 62.3205 15.0246 61.8152 15.0246C61.6655 15.0246 61.4596 15.0426 61.2537 15.0606C61.0291 15.0966 60.8419 15.1325 60.6361 15.2044C60.4489 15.2764 60.2805 15.3842 60.1494 15.5101C60.0184 15.636 59.9436 15.8158 59.9436 16.0316C59.9436 16.3013 60.0371 16.4991 60.2243 16.6609C60.4115 16.8227 60.6548 16.9486 60.973 17.0745C61.2724 17.1824 61.628 17.2723 62.0211 17.3442C62.4141 17.4161 62.8258 17.506 63.2376 17.5959C63.6494 17.6858 64.0424 17.7937 64.4354 17.9196C64.8285 18.0454 65.1841 18.2073 65.4835 18.441C65.783 18.6568 66.045 18.9265 66.2322 19.2502C66.4193 19.5738 66.5129 19.9874 66.5129 20.4549C66.5129 21.0303 66.3819 21.5158 66.1012 21.9294C65.8204 22.3249 65.4648 22.6666 65.0344 22.9183C64.6039 23.1701 64.0985 23.3499 63.5745 23.4757C63.0317 23.5836 62.5077 23.6555 61.9836 23.6555C61.3473 23.6555 60.7484 23.5836 60.2056 23.4398C59.6628 23.2959 59.1762 23.0802 58.7832 22.8104C58.3901 22.5227 58.072 22.1811 57.8474 21.7496C57.6228 21.336 57.4918 20.8325 57.473 20.2391H59.7377V20.2571H59.7564ZM67.1493 13.6221H68.8524V10.6732H71.0984V13.6041H73.1197V15.2044H71.0984V20.419C71.0984 20.6527 71.1171 20.8325 71.1358 21.0123C71.1545 21.1742 71.2107 21.318 71.2668 21.4259C71.3417 21.5338 71.454 21.6237 71.585 21.6776C71.7347 21.7316 71.9219 21.7675 72.1839 21.7675C72.3336 21.7675 72.5021 21.7675 72.6518 21.7496C72.8015 21.7316 72.97 21.7136 73.1197 21.6776V23.3499C72.8764 23.3858 72.6331 23.4038 72.3898 23.4218C72.1465 23.4578 71.9219 23.4578 71.6598 23.4578C71.0609 23.4578 70.593 23.4038 70.2374 23.2959C69.8818 23.188 69.6011 23.0262 69.3952 22.8284C69.1893 22.6126 69.0583 22.3609 68.9834 22.0552C68.9086 21.7495 68.8711 21.3719 68.8524 20.9764V15.2224H67.1493V13.5861V13.6221ZM74.6918 13.6221H76.8068V14.9527H76.8442C77.1624 14.3773 77.5928 13.9817 78.1543 13.73C78.7158 13.4783 79.3147 13.3524 79.9885 13.3524C80.7933 13.3524 81.4858 13.4783 82.0847 13.766C82.6836 14.0357 83.1702 14.3953 83.5633 14.8808C83.9563 15.3483 84.2558 15.9057 84.4429 16.535C84.6301 17.1644 84.7424 17.8477 84.7424 18.5489C84.7424 19.2142 84.6488 19.8436 84.4804 20.4549C84.2932 21.0663 84.0312 21.6237 83.6756 22.0912C83.32 22.5587 82.8708 22.9363 82.3093 23.224C81.7478 23.5117 81.1115 23.6555 80.3628 23.6555C80.0447 23.6555 79.7078 23.6196 79.3896 23.5656C79.0714 23.5117 78.7532 23.4218 78.4538 23.2959C78.1543 23.1701 77.8736 23.0082 77.6303 22.8104C77.3683 22.6126 77.1624 22.3789 76.9939 22.1272H76.9565V27H74.7106V13.6221H74.6918ZM82.5339 18.513C82.5339 18.0814 82.4777 17.6499 82.3467 17.2363C82.2344 16.8227 82.0473 16.4631 81.804 16.1395C81.5607 15.8158 81.2612 15.5641 80.9243 15.3663C80.5687 15.1685 80.157 15.0786 79.7078 15.0786C78.772 15.0786 78.0608 15.3843 77.5741 16.0136C77.1062 16.6429 76.8629 17.488 76.8629 18.5309C76.8629 19.0344 76.9191 19.4839 77.0501 19.8975C77.1811 20.3111 77.3495 20.6707 77.6116 20.9764C77.8549 21.282 78.1543 21.5158 78.5099 21.6956C78.8655 21.8754 79.2586 21.9653 79.7265 21.9653C80.2505 21.9653 80.6623 21.8574 81.0179 21.6596C81.3735 21.4619 81.6542 21.1921 81.8975 20.8865C82.1221 20.5628 82.2906 20.2032 82.3842 19.7896C82.4777 19.3581 82.5339 18.9445 82.5339 18.513ZM86.483 9.90002H88.7289V11.9319H86.483V9.90002ZM86.483 13.6221H88.7289V23.3858H86.483V13.6221ZM90.7315 9.90002H92.9775V23.3858H90.7315V9.90002ZM99.8276 23.6555C99.0228 23.6555 98.2928 23.5297 97.6565 23.26C97.0202 22.9902 96.4961 22.6486 96.0469 22.1991C95.6165 21.7496 95.2796 21.1921 95.055 20.5628C94.8304 19.9335 94.6994 19.2322 94.6994 18.495C94.6994 17.7578 94.8117 17.0745 95.055 16.4451C95.2796 15.8158 95.6165 15.2764 96.0469 14.8089C96.4774 14.3593 97.0202 13.9997 97.6565 13.748C98.2928 13.4962 99.0228 13.3524 99.8276 13.3524C100.632 13.3524 101.362 13.4783 101.999 13.748C102.635 13.9997 103.159 14.3593 103.608 14.8089C104.039 15.2584 104.376 15.8158 104.6 16.4451C104.825 17.0745 104.956 17.7578 104.956 18.495C104.956 19.2502 104.843 19.9335 104.6 20.5628C104.357 21.1921 104.039 21.7316 103.608 22.1991C103.178 22.6486 102.635 23.0082 101.999 23.26C101.362 23.5117 100.651 23.6555 99.8276 23.6555ZM99.8276 21.9473C100.314 21.9473 100.763 21.8395 101.119 21.6417C101.493 21.4439 101.774 21.1742 102.017 20.8505C102.261 20.5268 102.429 20.1492 102.541 19.7537C102.654 19.3401 102.71 18.9265 102.71 18.495C102.71 18.0814 102.654 17.6678 102.541 17.2543C102.429 16.8407 102.261 16.4811 102.017 16.1574C101.774 15.8338 101.475 15.582 101.119 15.3843C100.745 15.1865 100.314 15.0786 99.8276 15.0786C99.3409 15.0786 98.8918 15.1865 98.5362 15.3843C98.1618 15.582 97.8811 15.8518 97.6378 16.1574C97.3945 16.4811 97.226 16.8407 97.1137 17.2543C97.0014 17.6678 96.9453 18.0814 96.9453 18.495C96.9453 18.9265 97.0014 19.3401 97.1137 19.7537C97.226 20.1672 97.3945 20.5268 97.6378 20.8505C97.8811 21.1742 98.1806 21.4439 98.5362 21.6417C98.9105 21.8574 99.3409 21.9473 99.8276 21.9473ZM105.63 13.6221H107.333V10.6732H109.579V13.6041H111.6V15.2044H109.579V20.419C109.579 20.6527 109.597 20.8325 109.616 21.0123C109.635 21.1742 109.691 21.318 109.747 21.4259C109.822 21.5338 109.934 21.6237 110.065 21.6776C110.215 21.7316 110.402 21.7675 110.664 21.7675C110.814 21.7675 110.982 21.7675 111.132 21.7496C111.282 21.7316 111.45 21.7136 111.6 21.6776V23.3499C111.357 23.3858 111.113 23.4038 110.87 23.4218C110.627 23.4578 110.402 23.4578 110.14 23.4578C109.541 23.4578 109.073 23.4038 108.718 23.2959C108.362 23.188 108.081 23.0262 107.875 22.8284C107.67 22.6126 107.539 22.3609 107.464 22.0552C107.389 21.7495 107.351 21.3719 107.333 20.9764V15.2224H105.63V13.5861V13.6221Z" fill="black"/>
<path d="M26.1 9.62987H16.1286L13.0591 0L9.9714 9.62987L0 9.61142L8.0643 15.5701L4.97662 25.2L13.0409 19.2413L21.1052 25.2L18.0357 15.5701L26.1 9.62987Z" fill="#00B67A"/>
<path d="M18.9 17.4347L18.1327 15.3L12.6 18.9L18.9 17.4347Z" fill="#005128"/>
</svg>
