<svg width="126" height="50" viewBox="0 0 126 50" fill="none" xmlns="http://www.w3.org/2000/svg">
<g clip-path="url(#clip0_266_420)">
<path d="M105.431 14.875V32.125H113.931C116.306 32.125 117.681 31.75 118.681 30.875C119.931 29.75 120.556 27.75 120.556 23.5C120.556 19.25 119.931 17.25 118.681 16.125C117.681 15.25 116.306 14.875 113.931 14.875H105.431ZM117.056 23.5C117.056 27.25 116.806 28.125 116.056 28.625C115.556 29 114.931 29.125 113.681 29.125H108.931V17.75H113.681C114.931 17.75 115.556 17.75 116.056 18.25C116.806 18.875 117.056 19.75 117.056 23.5ZM124.931 35.938H99.9929V11H124.931V35.938ZM79.6189 17.75V14.875H94.3689V20.375H91.2429V17.75H85.2429V21.875H89.9929V24.625H85.2429V29.25H91.3689V26.25H94.4929V32.125H79.6199V29.25H81.9939V17.75H79.6189ZM66.2439 27.625C66.2439 29.5 66.3679 30.875 66.6179 32H69.9939C69.8679 31.125 69.7439 29.5 69.7439 27.375C69.6179 24.875 68.8679 24.5 67.1179 24.125C69.1179 23.75 69.9939 22.875 69.9939 19.75C69.9939 17.25 69.6179 16.25 68.8679 15.625C68.3679 15.125 67.4939 14.875 66.1179 14.875H55.6179V32.125H59.1179V25.375H63.9939C64.9939 25.375 65.3679 25.5 65.7439 25.75C66.1199 26 66.2439 26.375 66.2439 27.625ZM59.1179 22.625V17.875H64.7439C65.4939 17.875 65.7439 18 65.8679 18.125C66.1179 18.375 66.3679 18.75 66.3679 20.25C66.3679 21.75 66.1179 22.25 65.8679 22.5C65.7439 22.625 65.4939 22.75 64.7439 22.75L59.1179 22.625ZM74.9939 35.938H49.9939V11H74.9309V35.938H74.9939ZM43.4939 29.25V32.125H31.6179V29.25H35.8679V17.75H31.6179V14.875H43.4929V17.75H39.2429V29.25H43.4939ZM23.4309 14.875H20.1809L17.8059 28.5L15.0559 15.875C14.9309 15 14.5559 14.875 13.8059 14.875H12.0559C11.3059 14.875 10.9309 15.125 10.8059 15.875L8.05591 28.5L5.68091 14.875H2.18091L5.55591 31.25C5.68091 32 5.93091 32.125 6.80591 32.125H9.18091C9.93091 32.125 10.1809 32 10.4309 31.25L13.0559 19.375L15.6809 31.25C15.8059 32 16.0559 32.125 16.9309 32.125H19.1809C19.9309 32.125 20.3059 32 20.4309 31.25L23.4309 14.875ZM25.1809 35.938H0.180908V11H25.1189V35.938H25.1809Z" fill="#A9A9A9"/>
</g>
<defs>
<clipPath id="clip0_266_420">
<rect width="125" height="50" fill="white" transform="translate(0.0559082)"/>
</clipPath>
</defs>
</svg>
