<svg width="108" height="20" viewBox="0 0 108 20" fill="none" xmlns="http://www.w3.org/2000/svg">
<g clip-path="url(#clip0_255_1081)">
<path d="M17.6429 8.57411C17.6429 8.25603 17.3036 8.1288 17.0491 8.08639L11.7266 7.3124L9.34096 2.48818C9.24554 2.28673 9.06529 2.05347 8.82143 2.05347C8.57757 2.05347 8.39732 2.28673 8.3019 2.48818L5.91629 7.3124L0.59375 8.08639C0.328683 8.1288 0 8.25603 0 8.57411C0 8.76496 0.137835 8.94521 0.265067 9.08304L4.12444 12.8364L3.21261 18.1377C3.20201 18.2119 3.19141 18.2756 3.19141 18.3498C3.19141 18.6255 3.32924 18.8799 3.63672 18.8799C3.78516 18.8799 3.92299 18.8269 4.06083 18.7527L8.82143 16.2505L13.582 18.7527C13.7093 18.8269 13.8577 18.8799 14.0061 18.8799C14.3136 18.8799 14.4408 18.6255 14.4408 18.3498C14.4408 18.2756 14.4408 18.2119 14.4302 18.1377L13.5184 12.8364L17.3672 9.08304C17.505 8.94521 17.6429 8.76496 17.6429 8.57411Z" fill="#F5C61C"/>
<path d="M40.0384 8.57411C40.0384 8.25603 39.6991 8.1288 39.4446 8.08639L34.1221 7.3124L31.7365 2.48818C31.641 2.28673 31.4608 2.05347 31.2169 2.05347C30.9731 2.05347 30.7928 2.28673 30.6974 2.48818L28.3118 7.3124L22.9893 8.08639C22.7242 8.1288 22.3955 8.25603 22.3955 8.57411C22.3955 8.76496 22.5333 8.94521 22.6606 9.08304L26.5199 12.8364L25.6081 18.1377C25.5975 18.2119 25.5869 18.2756 25.5869 18.3498C25.5869 18.6255 25.7247 18.8799 26.0322 18.8799C26.1807 18.8799 26.3185 18.8269 26.4563 18.7527L31.2169 16.2505L35.9775 18.7527C36.1048 18.8269 36.2532 18.8799 36.4016 18.8799C36.7091 18.8799 36.8364 18.6255 36.8364 18.3498C36.8364 18.2756 36.8364 18.2119 36.8258 18.1377L35.9139 12.8364L39.7627 9.08304C39.9005 8.94521 40.0384 8.76496 40.0384 8.57411Z" fill="#F5C61C"/>
<path d="M62.4339 8.57411C62.4339 8.25603 62.0946 8.1288 61.8401 8.08639L56.5176 7.3124L54.132 2.48818C54.0366 2.28673 53.8563 2.05347 53.6124 2.05347C53.3686 2.05347 53.1883 2.28673 53.0929 2.48818L50.7073 7.3124L45.3848 8.08639C45.1197 8.1288 44.791 8.25603 44.791 8.57411C44.791 8.76496 44.9289 8.94521 45.0561 9.08304L48.9155 12.8364L48.0036 18.1377C47.993 18.2119 47.9824 18.2756 47.9824 18.3498C47.9824 18.6255 48.1203 18.8799 48.4277 18.8799C48.5762 18.8799 48.714 18.8269 48.8518 18.7527L53.6124 16.2505L58.373 18.7527C58.5003 18.8269 58.6487 18.8799 58.7972 18.8799C59.1046 18.8799 59.2319 18.6255 59.2319 18.3498C59.2319 18.2756 59.2319 18.2119 59.2213 18.1377L58.3094 12.8364L62.1582 9.08304C62.296 8.94521 62.4339 8.76496 62.4339 8.57411Z" fill="#F5C61C"/>
<path d="M84.8294 8.57411C84.8294 8.25603 84.4901 8.1288 84.2356 8.08639L78.9131 7.3124L76.5275 2.48818C76.4321 2.28673 76.2518 2.05347 76.0079 2.05347C75.7641 2.05347 75.5838 2.28673 75.4884 2.48818L73.1028 7.3124L67.7803 8.08639C67.5152 8.1288 67.1865 8.25603 67.1865 8.57411C67.1865 8.76496 67.3244 8.94521 67.4516 9.08304L71.311 12.8364L70.3991 18.1377C70.3885 18.2119 70.3779 18.2756 70.3779 18.3498C70.3779 18.6255 70.5158 18.8799 70.8232 18.8799C70.9717 18.8799 71.1095 18.8269 71.2474 18.7527L76.0079 16.2505L80.7686 18.7527C80.8958 18.8269 81.0442 18.8799 81.1927 18.8799C81.5001 18.8799 81.6274 18.6255 81.6274 18.3498C81.6274 18.2756 81.6274 18.2119 81.6168 18.1377L80.7049 12.8364L84.5537 9.08304C84.6915 8.94521 84.8294 8.76496 84.8294 8.57411Z" fill="#F5C61C"/>
<path d="M107.225 8.57411C107.225 8.25603 106.886 8.1288 106.631 8.08639L101.309 7.3124L98.923 2.48818C98.8276 2.28673 98.6473 2.05347 98.4035 2.05347C98.1596 2.05347 97.9793 2.28673 97.8839 2.48818L95.4983 7.3124L90.1758 8.08639C89.9107 8.1288 89.582 8.25603 89.582 8.57411C89.582 8.76496 89.7199 8.94521 89.8471 9.08304L93.7065 12.8364L92.7946 18.1377C92.784 18.2119 92.7734 18.2756 92.7734 18.3498C92.7734 18.6255 92.9113 18.8799 93.2188 18.8799C93.3672 18.8799 93.505 18.8269 93.6429 18.7527L98.4035 16.2505L103.164 18.7527C103.291 18.8269 103.44 18.8799 103.588 18.8799C103.896 18.8799 104.023 18.6255 104.023 18.3498C104.023 18.2756 104.023 18.2119 104.012 18.1377L103.1 12.8364L106.949 9.08304C107.087 8.94521 107.225 8.76496 107.225 8.57411Z" fill="#F5C61C"/>
</g>
<defs>
<clipPath id="clip0_255_1081">
<rect width="107.225" height="20" fill="white"/>
</clipPath>
</defs>
</svg>
